<svg width="42" height="48" viewBox="0 0 42 48" fill="none" xmlns="http://www.w3.org/2000/svg">
<path d="M39.1818 17.3638H2.81818C1.81403 17.3638 1 18.1778 1 19.182V44.6365C1 45.6407 1.81403 46.4547 2.81818 46.4547H39.1818C40.186 46.4547 41 45.6407 41 44.6365V19.182C41 18.1778 40.186 17.3638 39.1818 17.3638Z" fill="#1C1C1C" stroke="#1C1C1C" stroke-width="1.5" stroke-linecap="round" stroke-linejoin="round"/>
<path d="M21.0007 34.6362C22.5069 34.6362 23.728 33.4151 23.728 31.9089C23.728 30.4027 22.5069 29.1816 21.0007 29.1816C19.4945 29.1816 18.2734 30.4027 18.2734 31.9089C18.2734 33.4151 19.4945 34.6362 21.0007 34.6362Z" fill="white"/>
<path d="M11.9102 17.3636V10.0909C11.9102 7.67985 12.8679 5.36754 14.5728 3.66267C16.2777 1.95779 18.59 1 21.0011 1C23.4121 1 25.7244 1.95779 27.4293 3.66267C29.1342 5.36754 30.092 7.67985 30.092 10.0909V17.3636" stroke="#1C1C1C" stroke-width="2" stroke-linecap="round" stroke-linejoin="round"/>
</svg>
