<svg width="52" height="66" viewBox="0 0 52 66" fill="none" xmlns="http://www.w3.org/2000/svg">
<path d="M14.0078 64.0066H38.025" stroke="#C1C1C1" stroke-width="2.34194" stroke-linecap="round" stroke-linejoin="round"/>
<path d="M11.2169 44.4926C8.36183 42.2622 6.04926 39.4139 4.45295 36.1615C2.85665 32.9091 2.01812 29.3372 2.00037 25.7142C1.92832 12.6969 12.4238 1.86219 25.4381 1.56198C30.4817 1.43981 35.4358 2.90904 39.5973 5.76119C43.7588 8.61335 46.9165 12.7036 48.6223 17.4516C50.3282 22.1996 50.4955 27.3641 49.1006 32.2126C47.7056 37.061 44.8193 41.3471 40.8511 44.4626C39.9758 45.1412 39.2666 46.0103 38.7771 47.0038C38.2877 47.9973 38.0308 49.0892 38.0261 50.1967V51.998C38.0261 52.635 37.7731 53.2458 37.3226 53.6962C36.8722 54.1467 36.2613 54.3997 35.6244 54.3997H16.4107C15.7737 54.3997 15.1628 54.1467 14.7124 53.6962C14.262 53.2458 14.0089 52.635 14.0089 51.998V50.1967C14.0078 49.0962 13.7557 48.0105 13.2719 47.0221C12.7881 46.0337 12.0853 45.1686 11.2169 44.4926Z" stroke="#C1C1C1" stroke-width="2.34194" stroke-linecap="round" stroke-linejoin="round"/>
<path d="M28.4199 11.1689C34.4242 12.1807 39.4108 17.1732 40.4285 23.1775" stroke="#C1C1C1" stroke-width="2.34194" stroke-linecap="round" stroke-linejoin="round"/>
</svg>
