<svg width="68" height="68" viewBox="0 0 68 68" fill="none" xmlns="http://www.w3.org/2000/svg">
<path d="M34.2254 66.1646C16.3331 66.1646 1.82859 51.66 1.82859 33.7678C1.82859 15.8756 16.3331 1.37102 34.2254 1.37102C52.1176 1.37102 66.6221 15.8756 66.6221 33.7678C66.6221 51.66 52.1176 66.1646 34.2254 66.1646Z" stroke="#C1C1C1" stroke-width="2.34194" stroke-linecap="round" stroke-linejoin="round"/>
<path d="M34.2256 64.9936L34.9571 65.908C34.5294 66.2501 33.9217 66.2501 33.4941 65.908L34.2256 64.9936ZM34.2256 64.9936C34.9571 65.908 34.9576 65.9076 34.9581 65.9072L34.9594 65.9061L34.9629 65.9033L34.9735 65.8947L35.0085 65.866C35.0379 65.8417 35.0793 65.8072 35.1318 65.7624C35.2368 65.6727 35.3866 65.5419 35.5748 65.3699C35.9509 65.026 36.4808 64.517 37.1128 63.8429C38.3764 62.495 40.0514 60.4837 41.7239 57.8078C45.0718 52.4512 48.4073 44.4326 48.4073 33.7678C48.4073 23.103 45.0718 15.0844 41.7239 9.72783C40.0514 7.05185 38.3764 5.04055 37.1128 3.69273C36.4808 3.01859 35.9509 2.50962 35.5748 2.16569C35.3866 1.99369 35.2368 1.86288 35.1318 1.77323C35.0793 1.7284 35.0379 1.69386 35.0085 1.66959L34.9735 1.6409L34.9629 1.63233L34.9594 1.6295L34.9581 1.62844C34.9576 1.62801 34.9571 1.62762 34.2256 2.54199M34.2256 64.9936C33.4941 65.908 33.4936 65.9076 33.4931 65.9072L33.4917 65.9061L33.4882 65.9033L33.4776 65.8947L33.4426 65.866C33.4133 65.8417 33.3719 65.8072 33.3194 65.7624C33.2143 65.6727 33.0645 65.5419 32.8764 65.3699C32.5002 65.026 31.9704 64.517 31.3384 63.8429C30.0748 62.495 28.3997 60.4837 26.7272 57.8078C23.3794 52.4512 20.0439 44.4326 20.0439 33.7678C20.0439 23.103 23.3794 15.0844 26.7272 9.72783C28.3997 7.05185 30.0748 5.04055 31.3384 3.69273C31.9704 3.01859 32.5002 2.50962 32.8764 2.16569C33.0645 1.99369 33.2143 1.86288 33.3194 1.77323C33.3719 1.7284 33.4133 1.69386 33.4426 1.66959L33.4776 1.6409L33.4882 1.63233L33.4917 1.6295L33.4931 1.62844C33.4936 1.62801 33.4941 1.62762 34.2256 2.54199M34.2256 2.54199L34.9571 1.62762C34.5294 1.28549 33.9217 1.28549 33.4941 1.62762L34.2256 2.54199Z" stroke="#C1C1C1" stroke-width="2.34194" stroke-linecap="round" stroke-linejoin="round"/>
<path d="M63.6738 23.3591H4.77416" stroke="#C1C1C1" stroke-width="2.34194" stroke-linecap="round" stroke-linejoin="round"/>
<path d="M63.6738 44.1763H4.77416" stroke="#C1C1C1" stroke-width="2.34194" stroke-linecap="round" stroke-linejoin="round"/>
</svg>
