<svg width="64" height="68" viewBox="0 0 64 68" fill="none" xmlns="http://www.w3.org/2000/svg">
<path d="M7.81319 45.8807L7.68359 14.2646" stroke="#C1C1C1" stroke-width="2.34194" stroke-linecap="round" stroke-linejoin="round"/>
<path d="M56.084 14.2646L55.9544 45.8807" stroke="#C1C1C1" stroke-width="2.34194" stroke-linecap="round" stroke-linejoin="round"/>
<path d="M58.3608 1.38396H5.40699C3.43094 1.38396 1.82903 2.98587 1.82903 4.96192V9.7759C1.82903 11.752 3.43094 13.3539 5.40699 13.3539H58.3608C60.3368 13.3539 61.9387 11.752 61.9387 9.7759V4.96192C61.9387 2.98587 60.3368 1.38396 58.3608 1.38396Z" stroke="#C1C1C1" stroke-width="2.34194" stroke-linecap="round" stroke-linejoin="round"/>
<path d="M31.8848 46.271V53.2968" stroke="#C1C1C1" stroke-width="2.34194" stroke-linecap="round" stroke-linejoin="round"/>
<path d="M31.8843 66.3075C35.1897 66.3075 37.8692 63.6279 37.8692 60.3225C37.8692 57.0171 35.1897 54.3376 31.8843 54.3376C28.5789 54.3376 25.8993 57.0171 25.8993 60.3225C25.8993 63.6279 28.5789 66.3075 31.8843 66.3075Z" stroke="#C1C1C1" stroke-width="2.34194" stroke-linecap="round" stroke-linejoin="round"/>
<path d="M3 45.8809H60.7677" stroke="#C1C1C1" stroke-width="2.34194" stroke-linecap="round" stroke-linejoin="round"/>
</svg>
