<svg width="50" height="68" viewBox="0 0 50 68" fill="none" xmlns="http://www.w3.org/2000/svg">
<path d="M25.3041 48.3211C38.269 48.3211 48.7792 37.811 48.7792 24.8461C48.7792 11.8812 38.269 1.37102 25.3041 1.37102C12.3392 1.37102 1.82903 11.8812 1.82903 24.8461C1.82903 37.811 12.3392 48.3211 25.3041 48.3211Z" stroke="#C1C1C1" stroke-width="2.34194" stroke-linecap="round" stroke-linejoin="round"/>
<path d="M25.3024 39.3997C33.34 39.3997 39.8558 32.884 39.8558 24.8463C39.8558 16.8087 33.34 10.2929 25.3024 10.2929C17.2647 10.2929 10.749 16.8087 10.749 24.8463C10.749 32.884 17.2647 39.3997 25.3024 39.3997Z" stroke="#C1C1C1" stroke-width="2.34194" stroke-linecap="round" stroke-linejoin="round"/>
<mask id="path-3-outside-1_700_371" maskUnits="userSpaceOnUse" x="8.58594" y="44.0388" width="33" height="24" fill="black">
<rect fill="white" x="8.58594" y="44.0388" width="33" height="24"/>
<path d="M38.9085 47.0388V64.9937L25.2444 59.6072L11.5859 64.9937V47.0411"/>
</mask>
<path d="M41.2505 47.0388C41.2505 45.7454 40.2019 44.6969 38.9085 44.6969C37.6151 44.6969 36.5666 45.7454 36.5666 47.0388H41.2505ZM38.9085 64.9937L38.0496 67.1724C38.7707 67.4567 39.5856 67.3658 40.2263 66.9296C40.867 66.4935 41.2505 65.7687 41.2505 64.9937H38.9085ZM25.2444 59.6072L26.1033 57.4284C25.5512 57.2108 24.9372 57.2109 24.3852 57.4286L25.2444 59.6072ZM11.5859 64.9937H9.244C9.244 65.7688 9.6275 66.4936 10.2683 66.9297C10.909 67.3658 11.7241 67.4567 12.4451 67.1723L11.5859 64.9937ZM13.9279 47.0411C13.9279 45.7476 12.8794 44.6991 11.5859 44.6991C10.2925 44.6991 9.244 45.7476 9.244 47.0411H13.9279ZM36.5666 47.0388V64.9937H41.2505V47.0388H36.5666ZM39.7674 62.8149L26.1033 57.4284L24.3855 61.786L38.0496 67.1724L39.7674 62.8149ZM24.3852 57.4286L10.7268 62.815L12.4451 67.1723L26.1036 61.7858L24.3852 57.4286ZM13.9279 64.9937V47.0411H9.244V64.9937H13.9279Z" fill="#C1C1C1" mask="url(#path-3-outside-1_700_371)"/>
</svg>
