<svg width="23" height="26" viewBox="0 0 23 26" fill="none" xmlns="http://www.w3.org/2000/svg">
<path d="M11.4992 14.7152C12.7544 14.7152 13.7719 13.7558 13.7719 12.5724C13.7719 11.389 12.7544 10.4297 11.4992 10.4297C10.2441 10.4297 9.22656 11.389 9.22656 12.5724C9.22656 13.7558 10.2441 14.7152 11.4992 14.7152Z" stroke="#1C1C1C" stroke-width="1.5" stroke-linecap="round" stroke-linejoin="round"/>
<path d="M11.5 14.7148V25" stroke="#1C1C1C" stroke-width="1.5" stroke-linecap="round" stroke-linejoin="round"/>
<path d="M5.13609 6.14404L1.59416 12.0826C1.52024 12.2236 1.48887 12.381 1.5035 12.5377C1.51814 12.6943 1.5782 12.8442 1.67711 12.9708L11.4995 25.0001L21.3208 12.9708C21.4197 12.8442 21.4797 12.6943 21.4944 12.5377C21.509 12.381 21.4776 12.2236 21.4037 12.0826L17.8629 6.14404H5.13609Z" stroke="#1C1C1C" stroke-width="1.5" stroke-linecap="round" stroke-linejoin="round"/>
<path d="M17.8636 6.14403V1.85856C17.8636 1.63124 17.7678 1.41324 17.5973 1.2525C17.4268 1.09177 17.1956 1.00146 16.9545 1.00146H6.04578C5.80468 1.00146 5.57346 1.09177 5.40298 1.2525C5.23249 1.41324 5.13672 1.63124 5.13672 1.85856V6.14403" stroke="#1C1C1C" stroke-width="1.5" stroke-linecap="round" stroke-linejoin="round"/>
</svg>
