<?xml version="1.0" encoding="utf-8"?>
<!-- Generator: Adobe Illustrator 27.8.1, SVG Export Plug-In . SVG Version: 6.00 Build 0)  -->
<svg version="1.0" id="Layer_1" xmlns="http://www.w3.org/2000/svg" xmlns:xlink="http://www.w3.org/1999/xlink" x="0px" y="0px"
	 viewBox="0 0 30 30" style="enable-background:new 0 0 30 30;" xml:space="preserve">
<path d="M0,15c0-4.3,1.8-8.1,4.7-10.9C7.4,1.6,11,0,15,0c4,0,7.6,1.6,10.3,4.1C28.2,6.9,30,10.7,30,15c0,4.3-1.8,8.2-4.7,10.9
	C22.6,28.4,19,30,15,30c-4,0-7.6-1.6-10.2-4.1C1.8,23.1,0,19.3,0,15z M1.3,15c0,3.7,1.5,7.1,3.9,9.6c0.9-0.8,2-1.5,3.1-2.1
	c-0.6-2.2-1-4.7-1-7.6c0-2.7,0.4-5.3,1-7.6C7.1,6.9,6.1,6.2,5.2,5.4C2.8,7.9,1.3,11.2,1.3,15z M21.5,15c0-2.6-0.4-4.9-0.9-7
	c-1.6,0.6-3.2,0.9-4.9,1.1V21c1.7,0.1,3.4,0.4,4.9,1.1C21.2,19.9,21.5,17.6,21.5,15z M14.4,1.3c-1.8,0.4-3.5,2.5-4.6,5.5
	c1.4,0.6,3,0.9,4.6,1V1.3z M15.6,1.3v6.4c1.6-0.1,3.1-0.4,4.6-1C19.1,3.8,17.4,1.7,15.6,1.3z M15.6,22.2v6.4
	c1.8-0.4,3.5-2.5,4.6-5.5C18.8,22.6,17.2,22.3,15.6,22.2z M14.4,28.7v-6.4c-1.6,0.1-3.1,0.4-4.6,1C10.9,26.2,12.6,28.3,14.4,28.7z
	 M14.4,21V9C12.7,8.9,11,8.6,9.4,7.9c-0.6,2.1-0.9,4.5-0.9,7c0,2.6,0.4,4.9,0.9,7C11,21.4,12.7,21.1,14.4,21z M6.1,4.5
	c0.8,0.7,1.6,1.2,2.6,1.7c0.7-1.9,1.6-3.4,2.6-4.5C9.4,2.3,7.6,3.2,6.1,4.5z M21.3,6.2c0.9-0.4,1.8-1.1,2.6-1.7
	c-1.5-1.2-3.2-2.2-5.2-2.7C19.8,2.9,20.6,4.4,21.3,6.2z M28.8,15c0-3.7-1.5-7.1-3.9-9.6c-0.9,0.8-2,1.5-3.1,2.1c0.6,2.2,1,4.7,1,7.6
	c0,2.7-0.4,5.3-1,7.6c1.1,0.6,2.1,1.2,3.1,2.1C27.3,22.1,28.8,18.7,28.8,15L28.8,15z M23.9,25.5c-0.8-0.7-1.6-1.2-2.6-1.7
	c-0.7,1.9-1.6,3.4-2.6,4.5C20.6,27.7,22.4,26.7,23.9,25.5z M8.7,23.7c-0.9,0.5-1.7,1.1-2.6,1.7c1.5,1.2,3.2,2.2,5.2,2.7
	C10.3,27.1,9.4,25.6,8.7,23.7z"/>
</svg>
