<svg width="22" height="28" viewBox="0 0 22 28" fill="none" xmlns="http://www.w3.org/2000/svg">
<path d="M10.9999 15.0001C13.2091 15.0001 15 13.2092 15 11.0001C15 8.79089 13.2091 7 10.9999 7C8.79074 7 6.99985 8.79089 6.99985 11.0001C6.99985 13.2092 8.79074 15.0001 10.9999 15.0001Z" stroke="#1C1C1C" stroke-width="1.5" stroke-linecap="round" stroke-linejoin="round"/>
<path d="M21.0001 11.0002C21.0001 20.0003 11 27.0004 11 27.0004C11 27.0004 0.999847 20.0003 0.999847 11.0002C0.999847 8.34795 2.05343 5.80437 3.92882 3.92898C5.80422 2.05358 8.34779 1 11 1C13.6522 1 16.1958 2.05358 18.0712 3.92898C19.9466 5.80437 21.0001 8.34795 21.0001 11.0002Z" stroke="#1C1C1C" stroke-width="1.5" stroke-linecap="round" stroke-linejoin="round"/>
</svg>
