<svg width="19" height="24" viewBox="0 0 19 24" fill="none" xmlns="http://www.w3.org/2000/svg">
<path d="M9.47813 13.0505C11.3559 13.0505 12.8781 11.5351 12.8781 9.66587C12.8781 7.79659 11.3559 6.28125 9.47813 6.28125C7.60036 6.28125 6.07812 7.79659 6.07812 9.66587C6.07812 11.5351 7.60036 13.0505 9.47813 13.0505Z" stroke="#1C1C1C" stroke-width="1.5" stroke-linecap="round" stroke-linejoin="round"/>
<path d="M17.9805 9.66466C17.9805 17.28 9.48047 23.2031 9.48047 23.2031C9.48047 23.2031 0.980469 17.28 0.980469 9.66466C0.980469 7.42052 1.876 5.2683 3.47006 3.68145C5.06412 2.09461 7.22613 1.20313 9.48047 1.20312C11.7348 1.20313 13.8968 2.09461 15.4909 3.68145C17.0849 5.2683 17.9805 7.42052 17.9805 9.66466Z" stroke="#1C1C1C" stroke-width="1.5" stroke-linecap="round" stroke-linejoin="round"/>
</svg>
