<svg width="22" height="22" viewBox="0 0 22 22" fill="none" xmlns="http://www.w3.org/2000/svg">
<path d="M14.0234 2.07031C15.4863 2.45552 16.8206 3.22209 17.8902 4.29172C18.9599 5.36135 19.7264 6.69571 20.1117 8.15853" stroke="#1C1C1C" stroke-width="1.5" stroke-linecap="round" stroke-linejoin="round"/>
<path d="M13.1562 5.55078C14.9523 6.03132 16.1547 7.23374 16.6352 9.02976" stroke="#1C1C1C" stroke-width="1.5" stroke-linecap="round" stroke-linejoin="round"/>
<path d="M14.5039 13.5248C14.6244 13.4446 14.7629 13.3958 14.907 13.3827C15.0511 13.3696 15.1962 13.3927 15.3291 13.4498L20.4562 15.747C20.629 15.8208 20.7733 15.9487 20.8673 16.1113C20.9614 16.274 21.0003 16.4628 20.9781 16.6494C20.8092 17.9116 20.1876 19.0696 19.2289 19.9079C18.2702 20.7462 17.0397 21.2078 15.7661 21.2068C11.8447 21.2068 8.08394 19.649 5.31109 16.8762C2.53824 14.1033 0.98047 10.3426 0.98047 6.42115C0.979496 5.14763 1.44109 3.9171 2.27939 2.9584C3.1177 1.99971 4.27567 1.37811 5.53794 1.2092C5.72453 1.18703 5.91329 1.22589 6.07595 1.31996C6.23862 1.41404 6.36645 1.55826 6.4403 1.73105L8.73751 6.86254C8.79395 6.99434 8.81694 7.13805 8.80442 7.28088C8.7919 7.4237 8.74427 7.56122 8.66576 7.68119L6.34245 10.4437C6.26004 10.5681 6.2113 10.7117 6.20101 10.8605C6.19072 11.0093 6.21923 11.1583 6.28374 11.2928C7.18284 13.1334 9.08541 15.0131 10.9314 15.9035C11.0667 15.9678 11.2163 15.9956 11.3656 15.9844C11.5149 15.9731 11.6586 15.9232 11.7827 15.8394L14.5039 13.5248Z" stroke="#1C1C1C" stroke-width="1.5" stroke-linecap="round" stroke-linejoin="round"/>
</svg>
