<svg width="30" height="30" viewBox="0 0 30 30" fill="none" xmlns="http://www.w3.org/2000/svg">
<path d="M19.2969 2.2207C21.3458 2.75982 23.2149 3.83266 24.7131 5.32965C26.2114 6.82663 27.2851 8.69412 27.8247 10.7414" stroke="#1C1C1C" stroke-width="1.5" stroke-linecap="round" stroke-linejoin="round"/>
<path d="M18.0762 7.08984C20.5919 7.76237 22.2761 9.4452 22.9492 11.9588" stroke="#1C1C1C" stroke-width="1.5" stroke-linecap="round" stroke-linejoin="round"/>
<path d="M19.9638 18.2485C20.1326 18.1364 20.3266 18.068 20.5284 18.0497C20.7303 18.0313 20.9335 18.0636 21.1197 18.1435L28.3013 21.3586C28.5433 21.4619 28.7453 21.6408 28.8771 21.8685C29.0088 22.0961 29.0633 22.3603 29.0322 22.6215C28.7956 24.3881 27.925 26.0087 26.5821 27.1819C25.2393 28.3552 23.5157 29.0012 21.7318 28.9998C16.2391 28.9998 10.9713 26.8196 7.08741 22.9389C3.20346 19.0582 1.02149 13.7949 1.02149 8.30672C1.02012 6.52438 1.66667 4.80221 2.84089 3.46048C4.01511 2.11875 5.63708 1.2488 7.40515 1.01241C7.66651 0.981383 7.9309 1.03577 8.15875 1.16743C8.3866 1.29908 8.56564 1.50093 8.66909 1.74275L11.8868 8.92447C11.9659 9.10892 11.9981 9.31005 11.9805 9.50994C11.963 9.70983 11.8963 9.90229 11.7863 10.0702L8.53203 13.9365C8.4166 14.1105 8.34833 14.3115 8.33392 14.5198C8.31951 14.7281 8.35943 14.9365 8.4498 15.1248C9.70917 17.7008 12.3741 20.3315 14.9599 21.5777C15.1493 21.6676 15.3589 21.7066 15.568 21.6908C15.7771 21.6751 15.9784 21.6051 16.1522 21.4879L19.9638 18.2485Z" stroke="#1C1C1C" stroke-width="1.5" stroke-linecap="round" stroke-linejoin="round"/>
</svg>
