<svg width="16" height="17" viewBox="0 0 16 17" fill="none" xmlns="http://www.w3.org/2000/svg">
<path d="M8 0C6.41775 0 4.87103 0.469851 3.55544 1.35014C2.23985 2.23042 1.21447 3.48161 0.608967 4.94547C0.00346628 6.40933 -0.15496 8.02012 0.153721 9.57415C0.462403 11.1282 1.22433 12.5556 2.34315 13.676C3.46197 14.7964 4.88743 15.5594 6.43928 15.8685C7.99113 16.1777 9.59966 16.019 11.0615 15.4126C12.5233 14.8063 13.7727 13.7795 14.6518 12.462C15.5308 11.1446 16 9.59571 16 8.01123C15.9959 5.88777 15.1518 3.85245 13.6524 2.35093C12.153 0.849418 10.1205 0.00407184 8 0ZM11.8077 6.60927L7.3 10.923C7.18347 11.0328 7.02922 11.0935 6.86923 11.0925C6.79103 11.0936 6.71338 11.0792 6.64077 11.0501C6.56815 11.021 6.50201 10.9778 6.44616 10.923L4.19231 8.76614C4.1298 8.71152 4.07896 8.64481 4.04285 8.57002C4.00673 8.49522 3.9861 8.41389 3.98218 8.3309C3.97826 8.24792 3.99113 8.165 4.02003 8.08712C4.04893 8.00925 4.09325 7.93803 4.15034 7.87774C4.20742 7.81746 4.27609 7.76936 4.35221 7.73633C4.42833 7.7033 4.51034 7.68602 4.5933 7.68554C4.67626 7.68506 4.75846 7.70138 4.83496 7.73352C4.91146 7.76566 4.98068 7.81296 5.03846 7.87258L6.86923 9.62118L10.9615 5.71571C11.0812 5.61117 11.2366 5.55699 11.3952 5.56451C11.5538 5.57202 11.7034 5.64065 11.8126 5.75603C11.9219 5.87142 11.9824 6.02463 11.9815 6.18365C11.9806 6.34266 11.9183 6.49516 11.8077 6.60927Z" fill="white"/>
</svg>
