<svg width="62" height="56" viewBox="0 0 62 56" fill="none" xmlns="http://www.w3.org/2000/svg">
<path d="M23.5292 0.736836C20.9272 -0.187791 18.0683 1.17201 17.1437 3.77403C16.219 6.37605 17.5788 9.23497 20.1809 10.1596L23.5292 0.736836ZM55.4268 17.3779L60.1121 19.1238L61.8848 14.3665L57.101 12.6665L55.4268 17.3779ZM38.3007 49.0177C37.3365 51.6053 38.6524 54.4846 41.2401 55.4489C43.8277 56.4131 46.707 55.0971 47.6712 52.5095L38.3007 49.0177ZM54.3446 23.3994L58.8761 21.2864L54.6499 12.2233L50.1184 14.3364L54.3446 23.3994ZM3.46677 36.0904C0.96407 37.2574 -0.118706 40.2323 1.04832 42.735C2.21535 45.2377 5.19025 46.3205 7.69295 45.1534L3.46677 36.0904ZM20.1809 10.1596L53.7526 22.0893L57.101 12.6665L23.5292 0.736836L20.1809 10.1596ZM50.7415 15.632L38.3007 49.0177L47.6712 52.5095L60.1121 19.1238L50.7415 15.632ZM50.1184 14.3364L3.46677 36.0904L7.69295 45.1534L54.3446 23.3994L50.1184 14.3364Z" fill="#1C1C1C"/>
</svg>
