<svg width="30" height="36" viewBox="0 0 30 36" fill="none" xmlns="http://www.w3.org/2000/svg">
<path d="M15.0016 20.2029C16.7592 20.2029 18.1839 18.8596 18.1839 17.2025C18.1839 15.5455 16.7592 14.2021 15.0016 14.2021C13.2441 14.2021 11.8193 15.5455 11.8193 17.2025C11.8193 18.8596 13.2441 20.2029 15.0016 20.2029Z" stroke="#1C1C1C" stroke-width="1.5" stroke-linecap="round" stroke-linejoin="round"/>
<path d="M15.0029 20.2021V34.6039" stroke="#1C1C1C" stroke-width="1.5" stroke-linecap="round" stroke-linejoin="round"/>
<path d="M6.09145 8.20068L1.13185 16.5162C1.02834 16.7136 0.98442 16.9341 1.00491 17.1534C1.02539 17.3728 1.1095 17.5826 1.248 17.7599L15.0019 34.604L28.7541 17.7599C28.8926 17.5826 28.9767 17.3728 28.9972 17.1534C29.0177 16.9341 28.9738 16.7136 28.8703 16.5162L23.9123 8.20068H6.09145Z" stroke="#1C1C1C" stroke-width="1.5" stroke-linecap="round" stroke-linejoin="round"/>
<path d="M23.9136 8.2009V2.20015C23.9136 1.88185 23.7795 1.57659 23.5408 1.35152C23.302 1.12644 22.9783 1 22.6407 1H7.36569C7.02809 1 6.70432 1.12644 6.4656 1.35152C6.22688 1.57659 6.09277 1.88185 6.09277 2.20015V8.2009" stroke="#1C1C1C" stroke-width="1.5" stroke-linecap="round" stroke-linejoin="round"/>
</svg>
