<svg width="33" height="37" viewBox="0 0 33 37" fill="none" xmlns="http://www.w3.org/2000/svg">
<path d="M1 14.8184H31.4" stroke="#1C1C1C" stroke-width="1.5" stroke-linecap="round" stroke-linejoin="round"/>
<path d="M3.76364 21.7273C3.03067 21.7273 2.32773 21.4361 1.80945 20.9178C1.29117 20.3995 1 19.6966 1 18.9636V6.52727C1 5.06135 1.58234 3.65547 2.6189 2.6189C3.65547 1.58234 5.06135 1 6.52727 1H31.4V18.9636C31.4 19.6966 31.1088 20.3995 30.5906 20.9178C30.0723 21.4361 29.3693 21.7273 28.6364 21.7273H20.3455C20.1475 21.7273 19.9519 21.7698 19.7718 21.852C19.5917 21.9342 19.4313 22.0541 19.3016 22.2036C19.1719 22.3532 19.0758 22.5288 19.0199 22.7187C18.964 22.9086 18.9495 23.1083 18.9775 23.3043L20.3455 31.4C20.3455 32.4994 19.9087 33.5539 19.1313 34.3313C18.3539 35.1087 17.2994 35.5455 16.2 35.5455C15.1006 35.5455 14.0461 35.1087 13.2687 34.3313C12.4913 33.5539 12.0545 32.4994 12.0545 31.4L13.4225 23.3043C13.4505 23.1083 13.436 22.9086 13.3801 22.7187C13.3242 22.5288 13.2281 22.3532 13.0984 22.2036C12.9687 22.0541 12.8083 21.9342 12.6282 21.852C12.4482 21.7698 12.2525 21.7273 12.0545 21.7273H3.76364Z" stroke="#1C1C1C" stroke-width="1.5" stroke-linecap="round" stroke-linejoin="round"/>
<path d="M25.873 1V9.29091" stroke="#1C1C1C" stroke-width="1.5" stroke-linecap="round" stroke-linejoin="round"/>
</svg>
