<svg width="34" height="34" viewBox="0 0 34 34" fill="none" xmlns="http://www.w3.org/2000/svg">
<path d="M24.2724 15.5457C25.879 15.5457 27.1815 14.2433 27.1815 12.6366C27.1815 11.03 25.879 9.72754 24.2724 9.72754C22.6657 9.72754 21.3633 11.03 21.3633 12.6366C21.3633 14.2433 22.6657 15.5457 24.2724 15.5457Z" stroke="#1C1C1C" stroke-width="1.5" stroke-linecap="round" stroke-linejoin="round"/>
<path d="M9.72745 27.182C11.3341 27.182 12.6365 25.8795 12.6365 24.2729C12.6365 22.6662 11.3341 21.3638 9.72745 21.3638C8.1208 21.3638 6.81836 22.6662 6.81836 24.2729C6.81836 25.8795 8.1208 27.182 9.72745 27.182Z" stroke="#1C1C1C" stroke-width="1.5" stroke-linecap="round" stroke-linejoin="round"/>
<path d="M21.3639 33V22.8182L9.72754 11.1818V1" stroke="#1C1C1C" stroke-width="1.5" stroke-linecap="round" stroke-linejoin="round"/>
<path d="M9.72754 21.3635V11.1816" stroke="#1C1C1C" stroke-width="1.5" stroke-linecap="round" stroke-linejoin="round"/>
<path d="M31.5455 1H2.45455C1.65122 1 1 1.65122 1 2.45455V31.5455C1 32.3488 1.65122 33 2.45455 33H31.5455C32.3488 33 33 32.3488 33 31.5455V2.45455C33 1.65122 32.3488 1 31.5455 1Z" stroke="#1C1C1C" stroke-width="1.5" stroke-linecap="round" stroke-linejoin="round"/>
<path d="M18.4551 1V6.81818L22.2169 10.58" stroke="#1C1C1C" stroke-width="1.5" stroke-linecap="round" stroke-linejoin="round"/>
</svg>
