<svg width="20" height="19" viewBox="0 0 20 19" fill="none" xmlns="http://www.w3.org/2000/svg">
<path d="M14.3699 1.71645C15.4135 1.71944 16.4134 2.11906 17.1513 2.82804C17.8893 3.53701 18.3052 4.49773 18.3083 5.50036V13.0674C18.3052 14.07 17.8893 15.0307 17.1513 15.7397C16.4134 16.4487 15.4135 16.8483 14.3699 16.8513H6.49397C5.4504 16.8483 4.45046 16.4487 3.71255 15.7397C2.97463 15.0307 2.55869 14.07 2.55557 13.0674V5.50036C2.55869 4.49773 2.97463 3.53701 3.71255 2.82804C4.45046 2.11906 5.4504 1.71944 6.49397 1.71645H14.3699ZM14.3699 0.203125H6.49397C3.46148 0.203125 0.980469 2.58682 0.980469 5.50036V13.0674C0.980469 15.9809 3.46148 18.3646 6.49397 18.3646H14.3699C17.4024 18.3646 19.8834 15.9809 19.8834 13.0674V5.50036C19.8834 2.58682 17.4024 0.203125 14.3699 0.203125Z" fill="white"/>
<path d="M15.5522 5.50456C15.3185 5.50456 15.0901 5.43799 14.8958 5.31327C14.7015 5.18854 14.5501 5.01126 14.4607 4.80385C14.3713 4.59644 14.3479 4.36821 14.3934 4.14802C14.439 3.92784 14.5515 3.72558 14.7168 3.56684C14.882 3.40809 15.0925 3.29998 15.3217 3.25619C15.5509 3.21239 15.7884 3.23487 16.0043 3.32078C16.2202 3.40669 16.4047 3.55218 16.5345 3.73884C16.6643 3.92551 16.7336 4.14497 16.7336 4.36947C16.7339 4.51862 16.7036 4.66637 16.6444 4.80423C16.5851 4.94209 16.4981 5.06735 16.3883 5.17282C16.2785 5.27828 16.1482 5.36188 16.0047 5.41881C15.8612 5.47574 15.7074 5.50488 15.5522 5.50456ZM10.4328 6.26102C11.0559 6.26102 11.665 6.43856 12.1832 6.77117C12.7013 7.10379 13.1051 7.57655 13.3436 8.12967C13.582 8.68279 13.6444 9.29143 13.5229 9.87862C13.4013 10.4658 13.1012 11.0052 12.6606 11.4285C12.22 11.8519 11.6586 12.1402 11.0474 12.257C10.4363 12.3738 9.80278 12.3138 9.22707 12.0847C8.65137 11.8556 8.15931 11.4676 7.81312 10.9698C7.46692 10.472 7.28214 9.88677 7.28214 9.28807C7.28303 8.48551 7.61526 7.71607 8.20592 7.14857C8.79659 6.58108 9.59744 6.26188 10.4328 6.26102ZM10.4328 4.7477C9.49811 4.7477 8.58443 5.01399 7.80729 5.51289C7.03015 6.01179 6.42444 6.7209 6.06676 7.55055C5.70908 8.38019 5.61549 9.29311 5.79784 10.1739C5.98018 11.0546 6.43026 11.8636 7.09117 12.4986C7.75208 13.1336 8.59412 13.566 9.51082 13.7412C10.4275 13.9164 11.3777 13.8265 12.2412 13.4828C13.1047 13.1392 13.8428 12.5572 14.3621 11.8106C14.8813 11.0639 15.1585 10.1861 15.1585 9.28807C15.1585 8.08389 14.6606 6.92903 13.7744 6.07754C12.8881 5.22606 11.6861 4.7477 10.4328 4.7477Z" fill="white"/>
</svg>
