<?xml version="1.0" encoding="UTF-8"?>
<svg xmlns="http://www.w3.org/2000/svg" xmlns:xlink="http://www.w3.org/1999/xlink" width="3000" height="3096" viewBox="0 0 3000 3096">
<path fill-rule="nonzero" fill="rgb(0%, 0%, 0%)" fill-opacity="1" d="M 1438.320312 2.121094 C 1478.609375 -1.410156 1520.441406 0.109375 1560.820312 2.089844 C 1697.441406 8.78125 1832.769531 32.308594 1962.738281 77.191406 C 2091.261719 121.578125 2217.460938 183.441406 2329.53125 262.46875 C 2367.46875 289.21875 2405.089844 317.78125 2440.539062 347.980469 C 2452.949219 358.550781 2464.449219 370.210938 2476.679688 380.980469 C 2509.859375 410.210938 2542.160156 440.679688 2572.488281 473.070312 C 2591.660156 493.558594 2609.199219 515.519531 2627.300781 537 C 2663.570312 580.03125 2698.910156 624.320312 2730.449219 671.191406 C 2772.179688 733.191406 2807.960938 798.679688 2841.519531 865.628906 C 2853.78125 890.101562 2864.121094 915.710938 2875.390625 940.671875 C 2887.390625 967.21875 2900.21875 995.691406 2908.269531 1023.820312 L 2927.148438 1077.519531 L 2932.460938 1093.621094 L 2939.179688 1116.238281 L 2948.949219 1153.769531 C 2956.378906 1184.910156 2964.570312 1216.121094 2970.570312 1247.640625 C 2985.691406 1327.101562 2995.480469 1407.921875 2998.710938 1488.871094 C 3003.269531 1602.808594 2995.769531 1717.960938 2975.769531 1830.078125 C 2972.121094 1850.53125 2966.820312 1871 2962 1891.160156 C 2954.890625 1920.949219 2948.429688 1950.691406 2940.179688 1980.160156 C 2926.199219 2030.109375 2907.269531 2079.738281 2887.789062 2127.632812 C 2840.128906 2244.765625 2782.160156 2354.46875 2708.539062 2456.480469 C 2678.320312 2498.34375 2648.449219 2538.933594 2614 2577.363281 C 2508.539062 2694.980469 2388.96875 2799.183594 2255.421875 2881.503906 C 2046.128906 3010.503906 1801 3084.320312 1557.648438 3093.917969 L 1554.269531 3094.128906 C 1339.601562 3102.332031 1119.71875 3061.125 922.121094 2973.878906 C 824.667969 2930.851562 731.265625 2875.234375 644.390625 2812.816406 C 609.328125 2787.621094 575.980469 2760.878906 542.9375 2732.949219 C 524.273438 2717.179688 505.410156 2702.113281 487.820312 2685 C 393.132812 2592.871094 306.730469 2488.546875 236.078125 2375.671875 C 213.46875 2339.554688 193.414062 2301.4375 173.980469 2263.4375 C 108.492188 2135.386719 58.453125 1999.070312 29.082031 1857.359375 C 21.003906 1818.371094 16.542969 1778.300781 11.464844 1738.808594 C 6.21875 1697.980469 1.988281 1655.878906 0.949219 1614.710938 C -1.128906 1532.410156 -0.367188 1449.398438 9.109375 1367.589844 C 16.996094 1299.460938 30.75 1231.640625 47.679688 1165.328125 C 55.347656 1135.289062 62.554688 1105.230469 71.855469 1075.671875 C 123.574219 911.28125 203.921875 754.949219 306.34375 618.148438 C 351.101562 558.371094 400.519531 505.230469 450.859375 450.628906 C 483.609375 415.121094 519.734375 384.828125 556.296875 353.710938 C 718.847656 215.328125 906.496094 113.988281 1109.878906 56.398438 C 1217.871094 25.820312 1326.070312 5.101562 1438.320312 2.121094 Z M 1611.328125 1000.378906 L 1186.320312 1003.058594 C 1184.671875 1014.28125 1184.539062 1025.238281 1183.429688 1036.449219 C 1180.171875 1069.460938 1176.609375 1102.039062 1174.179688 1135.160156 C 1171.269531 1174.890625 1166.808594 1214.839844 1164.730469 1254.660156 C 1162.429688 1298.890625 1162.339844 1343.429688 1161.300781 1387.71875 C 1159.710938 1455.398438 1157.949219 1523.269531 1158.449219 1590.96875 C 1158.679688 1620.640625 1160.539062 1650.261719 1161.070312 1679.921875 C 1162.800781 1778.449219 1165.699219 1876.339844 1174.679688 1974.441406 C 1176.359375 1992.730469 1176.46875 2011.199219 1178.179688 2029.5 C 1179.308594 2041.570312 1181.960938 2053.640625 1183.558594 2065.679688 C 1184.699219 2074.28125 1184.410156 2082.859375 1186.390625 2091.320312 L 1395.640625 2092.558594 L 1813.800781 2092.121094 C 1821.121094 1998.539062 1830.058594 1905.269531 1835.140625 1811.488281 C 1846.160156 1608.339844 1844.410156 1403.050781 1831.089844 1200.070312 C 1827.570312 1146.550781 1823.589844 1093.820312 1817.691406 1040.519531 C 1816.25 1027.519531 1816.28125 1014.359375 1813.800781 1001.488281 Z M 348.59375 1000.359375 L 265.726562 1000.921875 C 251.199219 1040.558594 233.097656 1078.570312 219.890625 1118.871094 C 196.042969 1191.648438 177.726562 1269.308594 166.019531 1345.199219 C 163.839844 1359.328125 163.25 1373.601562 161.4375 1387.738281 C 157.46875 1418.710938 153.359375 1450.648438 152.007812 1481.890625 C 148.761719 1556.820312 153.054688 1632.910156 161.71875 1707.269531 C 168.0625 1761.769531 175.566406 1815.410156 188.84375 1868.628906 C 192.714844 1884.140625 195.464844 1900.339844 200.589844 1915.5 L 257.59375 2077.570312 C 258.890625 2082.339844 260.992188 2088.839844 264.464844 2092.269531 L 265.804688 2092.140625 L 402.074219 2092.339844 L 557.425781 2091.96875 C 558.996094 2072.941406 553.066406 2048.949219 550.292969 2030 C 546.890625 2006.730469 544.589844 1983.179688 541.621094 1959.839844 C 535.511719 1911.851562 532.441406 1863.140625 528.523438 1814.910156 C 522.394531 1739.359375 520.546875 1663.429688 519.480469 1587.648438 C 517.234375 1427.960938 523.214844 1267.859375 544.164062 1109.519531 C 548.914062 1073.628906 551.78125 1036.839844 558.910156 1001.390625 C 531.554688 997.96875 502.804688 999.820312 475.253906 999.890625 C 433.050781 1000 390.792969 999.71875 348.59375 1000.390625 Z M 2507.960938 1000.421875 L 2439.371094 1001.738281 C 2442.441406 1025.570312 2447.320312 1049.039062 2450.730469 1072.789062 C 2458.949219 1129.941406 2463.320312 1188.261719 2467.21875 1245.890625 C 2469.800781 1283.910156 2474.460938 1322.058594 2476.640625 1360.199219 C 2480.429688 1426.371094 2480.5 1492.789062 2480.128906 1559.058594 C 2479.429688 1688.128906 2473.070312 1817.160156 2458.988281 1945.398438 C 2453.589844 1994.609375 2444.980469 2043.011719 2438.570312 2091.941406 L 2732.351562 2092.980469 C 2734.191406 2091.621094 2735.679688 2091.238281 2736.28125 2088.941406 C 2742.808594 2063.988281 2757.160156 2039.230469 2766.28125 2014.820312 C 2781.449219 1974.191406 2792.460938 1932.011719 2803.261719 1889.960938 C 2863.648438 1654.839844 2861.441406 1406.101562 2796.148438 1172.320312 C 2785.601562 1134.53125 2772.941406 1097.519531 2759.160156 1060.859375 C 2751.808594 1041.289062 2742.121094 1021.171875 2736.46875 1001.109375 Z M 1993.070312 1000.449219 L 1970.511719 1001.449219 C 1969.480469 1032.320312 1975.460938 1062.558594 1977.359375 1093.191406 C 1981.339844 1157.730469 1984.320312 1222.359375 1987 1286.980469 C 1987.511719 1298.75 1989.230469 1310.371094 1989.578125 1322.128906 C 1992.839844 1429.539062 1992.53125 1535.921875 1991.429688 1643.339844 C 1990.871094 1696.789062 1991.539062 1750.441406 1989.511719 1803.859375 C 1987.761719 1849.371094 1983.730469 1894.921875 1980.230469 1940.308594 C 1976.320312 1991.058594 1973.539062 2041.789062 1968.738281 2092.480469 L 2278.558594 2092.371094 L 2282.230469 2091.101562 C 2289.011719 2029.949219 2302.71875 1969.421875 2309.050781 1908.171875 C 2326.949219 1735.179688 2331.828125 1562.519531 2324.429688 1388.789062 C 2323.039062 1356.039062 2322.769531 1323.390625 2320.539062 1290.648438 C 2316.289062 1228.320312 2308.828125 1166.328125 2299.429688 1104.628906 C 2295.058594 1075.988281 2291.128906 1047.179688 2285.519531 1018.761719 C 2284.539062 1013.808594 2284.140625 1004.808594 2281.300781 1000.929688 Z M 793.519531 1000.398438 L 715.253906 1001.570312 C 710.226562 1033.859375 706.226562 1066.339844 701.246094 1098.601562 C 697.980469 1119.75 693.84375 1140.988281 691.238281 1162.28125 C 685.523438 1208.910156 681.714844 1256.929688 678.027344 1303.820312 C 673.570312 1360.589844 673.789062 1418.308594 673.265625 1475.269531 C 672.589844 1548.5 671.902344 1620.910156 674.863281 1694.070312 C 675.640625 1713.261719 675.5625 1732.628906 676.828125 1751.78125 C 678.152344 1771.808594 680.882812 1791.558594 682.414062 1811.539062 C 683.738281 1828.808594 683.695312 1846.410156 686.632812 1863.46875 C 689.207031 1878.371094 689.804688 1893.78125 691.324219 1908.839844 C 693.265625 1928.058594 696.078125 1947.269531 698.199219 1966.511719 C 701.90625 2000.109375 708.675781 2033.328125 714.15625 2066.609375 C 715.238281 2073.179688 714.269531 2087.960938 719.410156 2092.109375 L 933.222656 2092.320312 L 1029.601562 2092.691406 C 1021.808594 1990.910156 1012.289062 1889.011719 1008.679688 1786.921875 C 1005.628906 1700.730469 1006.421875 1614.140625 1006.558594 1527.890625 C 1006.679688 1453.96875 1005.789062 1379.289062 1008.851562 1305.46875 C 1009.511719 1289.460938 1011.449219 1273.539062 1012.359375 1257.539062 C 1013.738281 1233.160156 1014 1208.691406 1015.628906 1184.320312 C 1019.691406 1123.109375 1025.519531 1062.058594 1030.589844 1000.921875 Z M 1207.339844 2249.679688 C 1211.441406 2286.183594 1218.980469 2323.371094 1226.289062 2359.3125 C 1228.199219 2368.703125 1228.628906 2378.550781 1230.628906 2387.832031 C 1233.621094 2401.660156 1237.589844 2415.570312 1241 2429.3125 C 1242.960938 2437.210938 1243.699219 2445.25 1246.328125 2452.9375 L 1284.429688 2592.089844 L 1286.441406 2598.023438 L 1303.96875 2647.625 C 1309.628906 2661.523438 1313.261719 2676.371094 1318.859375 2690.328125 C 1332.300781 2723.84375 1347.691406 2756.378906 1364.628906 2788.164062 C 1391.359375 2838.328125 1419.699219 2882.863281 1468.238281 2913.332031 C 1482.101562 2922.035156 1499.128906 2925.71875 1514.929688 2921.289062 C 1552.738281 2910.679688 1581.78125 2872.402344 1602.941406 2840.800781 C 1615.53125 2822.015625 1627.378906 2802.863281 1637.96875 2782.804688 L 1644.558594 2769.808594 C 1674.121094 2703.363281 1701.390625 2637.160156 1722.941406 2567.40625 C 1754.851562 2464.167969 1774.050781 2357.203125 1793.210938 2250.902344 C 1759.21875 2247.375 1724.050781 2249.167969 1689.890625 2249.136719 C 1629.730469 2249.074219 1569.570312 2249.078125 1509.410156 2248.902344 C 1444.660156 2248.71875 1379.898438 2248.492188 1315.140625 2248.371094 C 1279.75 2248.308594 1242.480469 2246.25 1207.339844 2249.679688 Z M 1497.578125 170.949219 C 1489.160156 172.601562 1482.539062 174.660156 1474.699219 178.390625 L 1472.679688 179.308594 C 1453.429688 188.398438 1435.46875 206.238281 1421.730469 222.648438 C 1394.511719 255.140625 1375.460938 288.960938 1356.070312 326.710938 C 1342.890625 352.398438 1329.730469 378.511719 1320.210938 405.929688 C 1307.101562 443.75 1292.429688 481.039062 1280.160156 519.191406 C 1270 550.808594 1262.058594 583.238281 1254.800781 615.609375 C 1249.730469 638.21875 1242.21875 660.390625 1237.351562 683.148438 C 1229.820312 718.371094 1222.640625 754.210938 1216.621094 789.730469 C 1213.589844 807.640625 1212.390625 828.191406 1207.609375 845.46875 L 1505.671875 845.238281 L 1792.03125 844.851562 C 1785.949219 795.679688 1775.898438 747.839844 1765.761719 699.421875 C 1759.640625 670.179688 1754.398438 640.609375 1747.039062 611.679688 C 1737.589844 574.488281 1725.660156 537.75 1714.140625 501.199219 C 1705.871094 474.988281 1698.050781 448.539062 1687.980469 422.980469 C 1675.890625 392.308594 1661.308594 362.609375 1646.820312 333.089844 C 1622.039062 282.550781 1592.429688 227.449219 1548.460938 191.851562 C 1533.71875 179.910156 1516.859375 169.898438 1497.589844 170.960938 Z M 751.097656 2249.683594 L 754.207031 2263.402344 C 755.945312 2273.226562 759.726562 2282.875 762.460938 2292.453125 C 768.011719 2311.902344 772.699219 2331.96875 779.367188 2351.101562 L 793.167969 2393.765625 L 798.808594 2409.867188 L 812.945312 2450.550781 L 822.925781 2474.070312 C 838.46875 2515.144531 858.644531 2555.242188 879.652344 2593.601562 C 888.691406 2610.113281 897.214844 2627.367188 906.976562 2643.410156 C 919.832031 2664.523438 934.777344 2683.949219 949.46875 2703.65625 C 1008.078125 2782.28125 1078.109375 2847.136719 1167.351562 2886.226562 C 1198.039062 2899.664062 1227.539062 2906.527344 1259.839844 2914.160156 L 1258.328125 2911.789062 C 1185.691406 2796.792969 1140.441406 2666.105469 1106.480469 2534.167969 C 1095.710938 2492.304688 1084.988281 2450.480469 1076.410156 2408.074219 C 1068.539062 2369.191406 1062.878906 2329.722656 1055.820312 2290.664062 C 1053.390625 2277.203125 1052.148438 2263.75 1048.679688 2250.484375 C 979.253906 2247.71875 909.480469 2248.867188 840.007812 2249.007812 C 820.46875 2249.050781 800.929688 2249.046875 781.390625 2249.097656 C 771.710938 2249.121094 760.632812 2248.207031 751.097656 2249.6875 Z M 1738.910156 179.96875 C 1744.511719 193.210938 1753.539062 205.28125 1760.609375 217.78125 C 1774.039062 241.558594 1786.730469 265.808594 1798.320312 290.609375 C 1817 330.621094 1833.960938 371.109375 1848.28125 413.019531 C 1859.011719 444.441406 1867.671875 476.621094 1878.308594 507.980469 L 1897.039062 574.171875 L 1908.488281 622.761719 L 1949.878906 845.511719 C 2017.308594 845.390625 2084.730469 845.171875 2152.140625 844.941406 C 2171.710938 844.890625 2191.269531 844.78125 2210.828125 844.828125 C 2222.851562 844.871094 2235.339844 845.730469 2247.289062 844.441406 C 2239.839844 815.660156 2233.351562 786.871094 2224.78125 758.390625 C 2217.371094 733.75 2207.851562 709.78125 2199.378906 685.511719 C 2152.808594 552.03125 2089.238281 422.109375 1990.628906 321.398438 C 1960.378906 290.5 1926.828125 261.089844 1889.859375 239.03125 C 1842.429688 210.738281 1791.898438 193.050781 1738.910156 179.960938 Z M 1952.441406 2249.683594 C 1942.25 2311.445312 1930.46875 2372.714844 1916.308594 2433.601562 C 1906 2477.878906 1898.058594 2522.605469 1885.410156 2566.339844 C 1878.339844 2590.773438 1869.460938 2614.457031 1861.890625 2638.707031 C 1853.050781 2666.976562 1844.941406 2695.28125 1833.859375 2722.785156 C 1826.769531 2740.417969 1818.351562 2757.46875 1810.921875 2774.960938 C 1802.558594 2794.65625 1795.171875 2814.390625 1785.808594 2833.679688 C 1778.21875 2849.332031 1769.28125 2864.945312 1760.148438 2879.683594 C 1753.910156 2889.75 1743.261719 2903.605469 1740.480469 2914.980469 C 1760.960938 2909.113281 1781.871094 2905.132812 1802.171875 2898.53125 C 1852.609375 2882.144531 1903.75 2851.148438 1944.550781 2816.621094 C 1977.878906 2786.664062 2009.609375 2755.617188 2037.621094 2720.207031 C 2070.371094 2678.792969 2096.648438 2632.847656 2121.53125 2586.160156 C 2153.101562 2526.917969 2180.828125 2466.566406 2202.851562 2402.78125 C 2220.070312 2352.898438 2233.820312 2301.351562 2248.359375 2250.589844 C 2177.429688 2249.679688 2106.601562 2248.96875 2035.660156 2248.980469 C 2017.429688 2248.984375 1999.191406 2248.960938 1980.96875 2249.035156 C 1971.851562 2249.074219 1961.359375 2248.253906 1952.441406 2249.683594 Z M 1255.53125 182.890625 C 1228.050781 188.328125 1203.28125 197.738281 1176.96875 206.960938 C 1153 215.359375 1129.589844 229.269531 1108.058594 242.828125 C 988.394531 318.199219 907.398438 439.53125 847.007812 567.441406 C 819.464844 625.769531 797.152344 686.28125 778.242188 748.089844 C 769.082031 778.019531 759.660156 808.578125 753.597656 839.359375 L 752.464844 844.910156 C 755.214844 845.601562 757.859375 845.988281 760.675781 846.308594 C 834.484375 842.511719 909.519531 844.910156 983.46875 844.960938 C 999.777344 844.96875 1016.089844 844.980469 1032.410156 845.070312 C 1037.628906 845.101562 1045.878906 846.261719 1050.589844 844.421875 C 1056.140625 789.691406 1066.488281 734.839844 1077.769531 681.070312 C 1092 613.210938 1108.449219 544.109375 1129.128906 478.019531 C 1137.929688 449.898438 1148.421875 422.28125 1158.398438 394.589844 C 1184.800781 321.378906 1214.738281 244.578125 1262.460938 183 Z M 2409.21875 2249.683594 C 2392.519531 2306.8125 2377.890625 2364.265625 2359.550781 2420.886719 C 2327 2521.40625 2281.328125 2614.171875 2234.351562 2708.0625 L 2378.75 2594.230469 C 2435.46875 2542.582031 2491.589844 2486.609375 2539.589844 2426.199219 C 2582.75 2371.882812 2622.75 2310.59375 2656.738281 2249.695312 C 2594.109375 2247.921875 2531.28125 2247.984375 2468.628906 2248.492188 C 2450.5 2248.640625 2426.699219 2245.847656 2409.21875 2249.683594 Z M 342.257812 2249.683594 C 363.765625 2286.210938 384.476562 2322.394531 408.785156 2357.132812 C 432.007812 2390.3125 457.257812 2420.425781 483.46875 2451.023438 C 507.566406 2479.15625 530.949219 2507.28125 556.652344 2533.960938 C 578.59375 2556.734375 601.9375 2577.675781 625.324219 2598.824219 C 654.519531 2625.226562 682.125 2650.382812 714.515625 2672.800781 C 724.566406 2679.757812 734.609375 2686.671875 744.476562 2693.902344 C 750.035156 2697.980469 756.027344 2703.589844 762.511719 2705.664062 C 744.34375 2669.28125 723.464844 2634.808594 706.378906 2597.71875 C 668.375 2515.210938 640.386719 2426.296875 614.914062 2338.945312 C 606.730469 2310.871094 595.851562 2279.667969 592.933594 2250.515625 C 536.421875 2245.320312 477.542969 2248.292969 420.789062 2248.289062 C 403.113281 2248.289062 385.4375 2248.167969 367.761719 2248.460938 C 359.648438 2248.59375 350.097656 2247.855469 342.257812 2249.683594 Z M 2237.390625 391.859375 C 2244.101562 408.191406 2253.871094 423.929688 2262.011719 439.621094 C 2271.398438 457.710938 2279.828125 476.78125 2288.351562 495.339844 C 2311.589844 545.96875 2332.480469 597.980469 2351.851562 650.359375 C 2356.570312 663.128906 2359.609375 676.589844 2364.339844 689.230469 L 2384.140625 755.238281 L 2390.640625 778.820312 C 2397.429688 799.691406 2404.269531 823.449219 2406.75 845.289062 C 2464.070312 845.230469 2521.390625 845.261719 2578.699219 845.320312 C 2603 845.351562 2631.679688 842.410156 2655.441406 846.140625 C 2635.28125 807.808594 2610.28125 771.101562 2585.359375 735.898438 C 2507.730469 626.261719 2417.660156 529.960938 2313.210938 447.21875 C 2288.839844 427.921875 2264.101562 407.578125 2237.390625 391.859375 Z M 764.710938 390.160156 C 700.121094 436.738281 635.453125 487.339844 577.886719 542.921875 C 558.253906 561.878906 540.21875 582.789062 521.855469 603.050781 C 505.792969 620.769531 488.972656 637.949219 473.546875 656.261719 C 451.246094 682.71875 430.929688 710.460938 410.71875 738.609375 C 386.136719 772.839844 361.917969 806.640625 342.257812 844.28125 L 343.375 845.449219 L 591.484375 845.339844 C 598.492188 810.179688 608.84375 776.210938 618.925781 741.910156 C 654.71875 620.148438 701.285156 499.640625 765.996094 391.140625 Z M 764.710938 390.160156 "/>
</svg>
