<svg width="32" height="32" viewBox="0 0 32 32" fill="none" xmlns="http://www.w3.org/2000/svg">
<path d="M16 18.5C18.0711 18.5 19.75 16.8211 19.75 14.75C19.75 12.6789 18.0711 11 16 11C13.9289 11 12.25 12.6789 12.25 14.75C12.25 16.8211 13.9289 18.5 16 18.5Z" stroke="#1C1C1C" stroke-width="1.5" stroke-linecap="round" stroke-linejoin="round"/>
<path d="M16.5556 31.0001H15.4431C14.8806 31.003 14.3332 30.8184 13.8872 30.4754C13.4413 30.1325 13.1223 29.6508 12.9806 29.1064L11.076 21.6064C10.985 21.2349 10.9801 20.8475 11.0617 20.4739C11.1433 20.1002 11.3093 19.7502 11.5469 19.4505C11.7845 19.1508 12.0874 18.9093 12.4326 18.7446C12.7778 18.5799 13.156 18.4963 13.5385 18.5001H18.4603C18.8428 18.4963 19.221 18.5799 19.5662 18.7446C19.9114 18.9093 20.2143 19.1508 20.4519 19.4505C20.6895 19.7502 20.8555 20.1002 20.9371 20.4739C21.0187 20.8475 21.0138 21.2349 20.9228 21.6064L19.0181 29.1064C18.8765 29.6508 18.5575 30.1325 18.1116 30.4754C17.6656 30.8184 17.1182 31.003 16.5556 31.0001Z" stroke="#1C1C1C" stroke-width="1.5" stroke-linecap="round" stroke-linejoin="round"/>
<path d="M6.3125 18.4999C5.93437 17.0231 5.8989 15.4794 6.2088 13.9867C6.51869 12.4941 7.16575 11.0921 8.10051 9.88781C9.03527 8.68356 10.233 7.70896 11.6021 7.03852C12.9712 6.36807 14.4755 6.01953 16 6.01953C17.5245 6.01953 19.0288 6.36807 20.3979 7.03852C21.767 7.70896 22.9647 8.68356 23.8995 9.88781C24.8343 11.0921 25.4813 12.4941 25.7912 13.9867C26.1011 15.4794 26.0656 17.0231 25.6875 18.4999" stroke="#1C1C1C" stroke-width="1.5" stroke-linecap="round" stroke-linejoin="round"/>
<path d="M7.70625 28.4986C5.02147 26.717 2.98171 24.1183 1.88896 21.0871C0.796214 18.0559 0.708559 14.7535 1.63897 11.6686C2.56939 8.58376 4.46842 5.88049 7.05491 3.95901C9.64141 2.03754 12.7779 1 16 1C19.2221 1 22.3586 2.03754 24.9451 3.95901C27.5316 5.88049 29.4306 8.58376 30.361 11.6686C31.2915 14.7535 31.2038 18.0559 30.111 21.0871C29.0183 24.1183 26.9785 26.717 24.2938 28.4986" stroke="#1C1C1C" stroke-width="1.5" stroke-linecap="round" stroke-linejoin="round"/>
</svg>
