<svg width="40" height="29" viewBox="0 0 40 29" fill="none" xmlns="http://www.w3.org/2000/svg">
<path d="M30.8574 11.8555C32.4378 11.8543 33.9967 12.2217 35.4102 12.9284C36.8238 13.6352 38.053 14.6619 39.0003 15.9269" stroke="white" stroke-width="1.5" stroke-linecap="round" stroke-linejoin="round"/>
<path d="M1 15.9269C1.94728 14.6619 3.17652 13.6352 4.59005 12.9284C6.00359 12.2217 7.56248 11.8543 9.14286 11.8555" stroke="white" stroke-width="1.5" stroke-linecap="round" stroke-linejoin="round"/>
<path d="M20.0006 22.716C23.7482 22.716 26.7863 19.6779 26.7863 15.9302C26.7863 12.1826 23.7482 9.14453 20.0006 9.14453C16.2529 9.14453 13.2148 12.1826 13.2148 15.9302C13.2148 19.6779 16.2529 22.716 20.0006 22.716Z" stroke="white" stroke-width="1.5" stroke-linecap="round" stroke-linejoin="round"/>
<path d="M10.5 28.1434C11.4742 26.4902 12.8631 25.1198 14.5292 24.1677C16.1953 23.2156 18.081 22.7148 20 22.7148C21.919 22.7148 23.8047 23.2156 25.4708 24.1677C27.1369 25.1198 28.5258 26.4902 29.5 28.1434" stroke="white" stroke-width="1.5" stroke-linecap="round" stroke-linejoin="round"/>
<path d="M26 5.07143C26.2538 4.08846 26.7782 3.19635 27.5135 2.49643C28.2489 1.7965 29.1658 1.3168 30.1601 1.11182C31.1544 0.906827 32.1862 0.984762 33.1385 1.33677C34.0907 1.68878 34.9251 2.30075 35.547 3.10318C36.1689 3.90562 36.5533 4.86637 36.6566 5.87631C36.7599 6.88625 36.5779 7.90492 36.1313 8.81662C35.6847 9.72832 34.9914 10.4965 34.1301 11.034C33.2689 11.5715 32.2741 11.8566 31.2589 11.8571" stroke="white" stroke-width="1.5" stroke-linecap="round" stroke-linejoin="round"/>
<path d="M9.14459 11.8571C8.12938 11.8566 7.13465 11.5715 6.27339 11.034C5.41212 10.4965 4.71882 9.72832 4.27222 8.81662C3.82563 7.90492 3.64364 6.88625 3.74692 5.87631C3.8502 4.86637 4.23461 3.90562 4.8565 3.10318C5.47839 2.30075 6.31283 1.68878 7.26506 1.33677C8.21729 0.984762 9.24915 0.906827 10.2434 1.11182C11.2377 1.3168 12.1546 1.7965 12.89 2.49643C13.6254 3.19635 14.1497 4.08846 14.4035 5.07143" stroke="white" stroke-width="1.5" stroke-linecap="round" stroke-linejoin="round"/>
</svg>
