<svg width="21" height="21" viewBox="0 0 21 21" fill="none" xmlns="http://www.w3.org/2000/svg">
<path fill-rule="evenodd" clip-rule="evenodd" d="M21 10.5634C21 4.72996 16.2984 0 10.5 0C4.70156 0 0 4.72996 0 10.5634C0 15.8357 3.83906 20.2059 8.85938 20.9991V13.6179H6.19266V10.5634H8.85938V8.23617C8.85938 5.58918 10.4273 4.12587 12.8255 4.12587C13.9744 4.12587 15.1763 4.33242 15.1763 4.33242V6.93225H13.8516C12.548 6.93225 12.1402 7.7462 12.1402 8.58278V10.5634H15.052L14.587 13.6179H12.1406V21C17.1609 20.2073 21 15.8371 21 10.5634V10.5634Z" fill="#1C1C1C"/>
</svg>
