<svg width="32" height="32" viewBox="0 0 32 32" fill="none" xmlns="http://www.w3.org/2000/svg">
<path d="M16.0674 20.9083C19.5036 20.9083 22.2892 18.1228 22.2892 14.6866C22.2892 11.2504 19.5036 8.46484 16.0674 8.46484C12.6313 8.46484 9.8457 11.2504 9.8457 14.6866C9.8457 18.1228 12.6313 20.9083 16.0674 20.9083Z" stroke="#1C1C1C" stroke-width="1.5" stroke-linecap="round" stroke-linejoin="round"/>
<path d="M6.08203 27.0317C7.01826 25.1876 8.44685 23.6388 10.2094 22.5569C11.972 21.475 13.9998 20.9023 16.0679 20.9023C18.1361 20.9023 20.1638 21.475 21.9264 22.5569C23.689 23.6388 25.1176 25.1876 26.0538 27.0317" stroke="#1C1C1C" stroke-width="1.5" stroke-linecap="round" stroke-linejoin="round"/>
<path d="M23.5332 4.73438H30.9993" stroke="#1C1C1C" stroke-width="1.5" stroke-linecap="round" stroke-linejoin="round"/>
<path d="M27.2656 1V8.46608" stroke="#1C1C1C" stroke-width="1.5" stroke-linecap="round" stroke-linejoin="round"/>
<path d="M30.7927 13.4435C31.3177 16.5627 30.8377 19.768 29.4222 22.5967C28.0067 25.4253 25.7288 27.7308 22.9174 29.1804C20.1061 30.63 16.9068 31.1486 13.7815 30.6614C10.6562 30.1741 7.76667 28.7062 5.53006 26.4696C3.29345 24.233 1.82553 21.3434 1.33827 18.2181C0.851002 15.0928 1.36961 11.8935 2.8192 9.08219C4.26879 6.27087 6.57435 3.99298 9.40298 2.57744C12.2316 1.1619 15.4369 0.68197 18.5561 1.20694" stroke="#1C1C1C" stroke-width="1.5" stroke-linecap="round" stroke-linejoin="round"/>
</svg>
