<svg width="32" height="30" viewBox="0 0 32 30" fill="none" xmlns="http://www.w3.org/2000/svg">
<path d="M29.75 6.25H2.25C1.55964 6.25 1 6.80964 1 7.5V27.5C1 28.1904 1.55964 28.75 2.25 28.75H29.75C30.4404 28.75 31 28.1904 31 27.5V7.5C31 6.80964 30.4404 6.25 29.75 6.25Z" stroke="#1C1C1C" stroke-width="1.5" stroke-linecap="round" stroke-linejoin="round"/>
<path d="M22.25 6.25V3.75C22.25 3.08696 21.9866 2.45107 21.5178 1.98223C21.0489 1.51339 20.413 1.25 19.75 1.25H12.25C11.587 1.25 10.9511 1.51339 10.4822 1.98223C10.0134 2.45107 9.75 3.08696 9.75 3.75V6.25" stroke="#1C1C1C" stroke-width="1.5" stroke-linecap="round" stroke-linejoin="round"/>
<path d="M16 13.75V21.25" stroke="#1C1C1C" stroke-width="1.5" stroke-linecap="round" stroke-linejoin="round"/>
<path d="M19.75 17.5H12.25" stroke="#1C1C1C" stroke-width="1.5" stroke-linecap="round" stroke-linejoin="round"/>
</svg>
