<svg width="24" height="26" viewBox="0 0 24 26" fill="none" xmlns="http://www.w3.org/2000/svg">
<path d="M1.3438 2.78666C1.1901 2.63313 1.08535 2.43748 1.04278 2.22444C1.00022 2.0114 1.02175 1.79053 1.10466 1.58972C1.18757 1.38892 1.32814 1.21719 1.5086 1.09624C1.68907 0.975282 1.90133 0.910528 2.11858 0.910157H21.9001C22.1176 0.909985 22.3303 0.974347 22.5112 1.09509C22.692 1.21584 22.833 1.38754 22.9163 1.58846C22.9995 1.78937 23.0213 2.01048 22.9788 2.22377C22.9363 2.43706 22.8315 2.63296 22.6777 2.78666L12.0094 12.9989L1.3438 2.78666Z" stroke="#1C1C1C" stroke-width="1.5" stroke-linecap="round" stroke-linejoin="round"/>
<path d="M1.3438 23.2122C1.1901 23.3658 1.08535 23.5614 1.04278 23.7744C1.00022 23.9875 1.02175 24.2084 1.10466 24.4092C1.18757 24.61 1.32814 24.7817 1.5086 24.9027C1.68907 25.0236 1.90133 25.0884 2.11858 25.0887H21.9001C22.1176 25.0889 22.3303 25.0245 22.5112 24.9038C22.692 24.7831 22.833 24.6114 22.9163 24.4104C22.9995 24.2095 23.0213 23.9884 22.9788 23.7751C22.9363 23.5618 22.8315 23.3659 22.6777 23.2122L12.0094 13L1.3438 23.2122Z" stroke="#1C1C1C" stroke-width="1.5" stroke-linecap="round" stroke-linejoin="round"/>
<path d="M12.0098 13V18.4949" stroke="#1C1C1C" stroke-width="1.5" stroke-linecap="round" stroke-linejoin="round"/>
<path d="M18.896 6.40625H5.12305" stroke="#1C1C1C" stroke-width="1.5" stroke-linecap="round" stroke-linejoin="round"/>
</svg>
