<svg width="38" height="38" viewBox="0 0 38 38" fill="none" xmlns="http://www.w3.org/2000/svg">
<path d="M1.30078 22.2685C0.520897 18.0555 1.26918 13.7022 3.41093 9.99221C5.55269 6.28223 8.94726 3.4592 12.9837 2.03125V15.5227L1.30078 22.2685Z" stroke="white" stroke-width="1.5" stroke-linecap="round" stroke-linejoin="round"/>
<path d="M18.9751 19.0673V1C22.1241 1.00047 25.2178 1.82897 27.9463 3.40253C30.6747 4.97609 32.9422 7.23948 34.5217 9.96603C36.1012 12.6926 36.9372 15.7866 36.946 18.9383C36.9548 22.0899 36.1361 25.1886 34.5719 27.924C33.0077 30.6593 30.7529 32.9354 28.0333 34.5242C25.3137 36.113 22.2247 36.9589 19.0757 36.977C15.9267 36.9951 12.8283 36.1849 10.0906 34.6275C7.35288 33.07 5.07208 30.8201 3.47656 28.1029L34.541 9.99432" stroke="white" stroke-width="1.5" stroke-linecap="round" stroke-linejoin="round"/>
</svg>
