<svg width="19" height="19" viewBox="0 0 19 19" fill="none" xmlns="http://www.w3.org/2000/svg">
<path d="M13.3894 1.51332C14.433 1.51632 15.433 1.91594 16.1709 2.62491C16.9088 3.33389 17.3247 4.2946 17.3278 5.29724V12.8643C17.3247 13.8669 16.9088 14.8276 16.1709 15.5366C15.433 16.2456 14.433 16.6452 13.3894 16.6482H5.5135C4.46993 16.6452 3.46999 16.2456 2.73208 15.5366C1.99416 14.8276 1.57822 13.8669 1.5751 12.8643V5.29724C1.57822 4.2946 1.99416 3.33389 2.73208 2.62491C3.46999 1.91594 4.46993 1.51632 5.5135 1.51332H13.3894ZM13.3894 0H5.5135C2.48101 0 0 2.3837 0 5.29724V12.8643C0 15.7778 2.48101 18.1615 5.5135 18.1615H13.3894C16.4219 18.1615 18.9029 15.7778 18.9029 12.8643V5.29724C18.9029 2.3837 16.4219 0 13.3894 0Z" fill="#FFDAC4"/>
<path d="M14.5717 5.29948C14.338 5.29948 14.1096 5.23291 13.9153 5.10819C13.7211 4.98346 13.5696 4.80618 13.4802 4.59877C13.3908 4.39136 13.3674 4.16313 13.413 3.94295C13.4586 3.72276 13.5711 3.5205 13.7363 3.36176C13.9015 3.20301 14.112 3.09491 14.3412 3.05111C14.5704 3.00731 14.8079 3.02979 15.0238 3.1157C15.2397 3.20161 15.4242 3.3471 15.554 3.53377C15.6838 3.72043 15.7531 3.93989 15.7531 4.16439C15.7535 4.31354 15.7231 4.46129 15.6639 4.59915C15.6046 4.73701 15.5176 4.86227 15.4079 4.96774C15.2981 5.07321 15.1677 5.1568 15.0242 5.21373C14.8807 5.27066 14.7269 5.29981 14.5717 5.29948ZM9.4523 6.05594C10.0754 6.05594 10.6846 6.23348 11.2027 6.56609C11.7208 6.89871 12.1246 7.37147 12.3631 7.92459C12.6016 8.47771 12.664 9.08635 12.5424 9.67354C12.4208 10.2607 12.1208 10.8001 11.6801 11.2234C11.2395 11.6468 10.6781 11.9351 10.067 12.0519C9.45579 12.1687 8.82231 12.1087 8.24661 11.8796C7.6709 11.6505 7.17884 11.2625 6.83265 10.7647C6.48645 10.2669 6.30167 9.68169 6.30167 9.083C6.30256 8.28043 6.63479 7.51099 7.22545 6.94349C7.81612 6.376 8.61698 6.0568 9.4523 6.05594ZM9.4523 4.54262C8.51764 4.54262 7.60397 4.80891 6.82682 5.30781C6.04968 5.80671 5.44397 6.51582 5.08629 7.34547C4.72861 8.17511 4.63502 9.08803 4.81737 9.96878C4.99971 10.8495 5.44979 11.6585 6.1107 12.2935C6.77161 12.9285 7.61365 13.3609 8.53035 13.5361C9.44706 13.7113 10.3972 13.6214 11.2608 13.2778C12.1243 12.9341 12.8623 12.3522 13.3816 11.6055C13.9009 10.8588 14.178 9.981 14.178 9.083C14.178 7.87881 13.6801 6.72395 12.7939 5.87247C11.9077 5.02098 10.7056 4.54262 9.4523 4.54262Z" fill="#FFDAC4"/>
</svg>
