<svg width="47" height="43" viewBox="0 0 47 43" fill="none" xmlns="http://www.w3.org/2000/svg">
<path d="M3.6723 18.8251H13.7061V40.565H3.6723C3.22878 40.565 2.80342 40.3888 2.48981 40.0752C2.17619 39.7616 2 39.3362 2 38.8927V20.4974C2 20.0539 2.17619 19.6285 2.48981 19.3149C2.80342 19.0013 3.22878 18.8251 3.6723 18.8251Z" stroke="#2F2F2F" stroke-width="3" stroke-linecap="round" stroke-linejoin="round"/>
<path d="M13.707 18.8251L22.0685 2.10205C23.8426 2.10205 25.5441 2.8068 26.7985 4.06127C28.053 5.31575 28.7578 7.01717 28.7578 8.79126V13.8082H42.1362C42.6106 13.8083 43.0796 13.9094 43.512 14.1047C43.9444 14.3 44.3302 14.585 44.644 14.9409C44.9578 15.2968 45.1922 15.7153 45.3318 16.1687C45.4714 16.6222 45.5129 17.1001 45.4536 17.5708L42.9452 37.6385C42.8433 38.4466 42.4502 39.1897 41.8394 39.7285C41.2286 40.2674 40.4422 40.5648 39.6277 40.565H13.707" stroke="#2F2F2F" stroke-width="3" stroke-linecap="round" stroke-linejoin="round"/>
</svg>
