<svg width="35" height="44" viewBox="0 0 35 44" fill="none" xmlns="http://www.w3.org/2000/svg">
<path d="M9.69141 42.0046H25.0761" stroke="#2F2F2F" stroke-width="3" stroke-linecap="round" stroke-linejoin="round"/>
<path d="M17.3848 35.8508V25.0815" stroke="#2F2F2F" stroke-width="3" stroke-linecap="round" stroke-linejoin="round"/>
<path d="M11.2324 18.9276L17.3863 25.0815L23.5402 18.9276" stroke="#2F2F2F" stroke-width="3" stroke-linecap="round" stroke-linejoin="round"/>
<path d="M7.90411 29.5046C6.0752 28.0759 4.59384 26.2513 3.57129 24.1679C2.54875 22.0845 2.01161 19.7965 2.00024 17.4757C1.95408 9.13724 8.67719 2.19682 17.0138 2.00451C20.2446 1.92626 23.418 2.8674 26.0837 4.69441C28.7495 6.52142 30.7722 9.1415 31.8649 12.1829C32.9576 15.2243 33.0648 18.5326 32.1712 21.6384C31.2777 24.7442 29.4288 27.4897 26.8869 29.4854C26.3262 29.9201 25.8719 30.4768 25.5584 31.1132C25.2448 31.7496 25.0803 32.449 25.0773 33.1585V34.3123C25.0773 34.7204 24.9152 35.1117 24.6267 35.4002C24.3381 35.6887 23.9468 35.8508 23.5388 35.8508H11.231C10.823 35.8508 10.4317 35.6887 10.1432 35.4002C9.85467 35.1117 9.69258 34.7204 9.69258 34.3123V33.1585C9.69184 32.4536 9.53038 31.7581 9.22047 31.1249C8.91056 30.4918 8.46036 29.9376 7.90411 29.5046Z" stroke="#2F2F2F" stroke-width="3" stroke-linecap="round" stroke-linejoin="round"/>
</svg>
