<svg width="58" height="43" viewBox="0 0 58 43" fill="none" xmlns="http://www.w3.org/2000/svg">
<path d="M44.4297 17.6907C46.6755 17.689 48.8907 18.2111 50.8995 19.2154C52.9082 20.2198 54.655 21.6787 56.0011 23.4764" stroke="#2F2F2F" stroke-width="3" stroke-linecap="round" stroke-linejoin="round"/>
<path d="M2 23.4764C3.34613 21.6787 5.09295 20.2198 7.10166 19.2154C9.11037 18.2111 11.3256 17.689 13.5714 17.6907" stroke="#2F2F2F" stroke-width="3" stroke-linecap="round" stroke-linejoin="round"/>
<path d="M29.0003 33.1193C34.3259 33.1193 38.6431 28.8021 38.6431 23.4765C38.6431 18.1509 34.3259 13.8336 29.0003 13.8336C23.6747 13.8336 19.3574 18.1509 19.3574 23.4765C19.3574 28.8021 23.6747 33.1193 29.0003 33.1193Z" stroke="#2F2F2F" stroke-width="3" stroke-linecap="round" stroke-linejoin="round"/>
<path d="M15.5 40.8337C16.8844 38.4843 18.858 36.5369 21.2257 35.184C23.5933 33.831 26.2731 33.1194 29 33.1194C31.7269 33.1194 34.4067 33.831 36.7743 35.184C39.142 36.5369 41.1156 38.4843 42.5 40.8337" stroke="#2F2F2F" stroke-width="3" stroke-linecap="round" stroke-linejoin="round"/>
<path d="M36.957 8.04792C37.3177 6.65107 38.0628 5.38334 39.1078 4.38871C40.1528 3.39407 41.4558 2.7124 42.8687 2.4211C44.2817 2.1298 45.748 2.24055 47.1012 2.74077C48.4543 3.24099 49.6401 4.11064 50.5238 5.25094C51.4076 6.39125 51.9539 7.75652 52.1006 9.1917C52.2474 10.6269 51.9888 12.0745 51.3541 13.37C50.7195 14.6656 49.7343 15.7573 48.5104 16.521C47.2865 17.2848 45.8729 17.6901 44.4302 17.6908" stroke="#2F2F2F" stroke-width="3" stroke-linecap="round" stroke-linejoin="round"/>
<path d="M13.5717 17.6908C12.1291 17.6901 10.7155 17.2848 9.4916 16.521C8.26769 15.7573 7.28248 14.6656 6.64784 13.37C6.01321 12.0745 5.75459 10.6269 5.90136 9.1917C6.04812 7.75652 6.59439 6.39125 7.47813 5.25094C8.36187 4.11064 9.54765 3.24099 10.9008 2.74077C12.254 2.24055 13.7203 2.1298 15.1333 2.4211C16.5462 2.7124 17.8492 3.39407 18.8942 4.38871C19.9391 5.38334 20.6843 6.65107 21.0449 8.04792" stroke="#2F2F2F" stroke-width="3" stroke-linecap="round" stroke-linejoin="round"/>
</svg>
