<svg width="63" height="43" viewBox="0 0 63 43" fill="none" xmlns="http://www.w3.org/2000/svg">
<path d="M49.2054 25.6028L39.3708 35.4373L23.6356 31.5035L9.86719 21.6689" stroke="#2F2F2F" stroke-width="3" stroke-linecap="round" stroke-linejoin="round"/>
<path d="M17.9014 5.59698L31.5025 2L45.1037 5.59698" stroke="#2F2F2F" stroke-width="3" stroke-linecap="round" stroke-linejoin="round"/>
<path d="M8.48217 3.08644L2.20773 15.6402C1.97454 16.1065 1.93601 16.6463 2.10059 17.141C2.26517 17.6356 2.61941 18.0447 3.08546 18.2784L9.86638 21.6688L17.9012 5.59671L11.1227 2.20871C10.8917 2.09286 10.6402 2.02367 10.3824 2.00509C10.1247 1.98651 9.8658 2.0189 9.62058 2.10042C9.37535 2.18193 9.14859 2.31097 8.95326 2.48015C8.75792 2.64934 8.59784 2.85536 8.48217 3.08644Z" stroke="#2F2F2F" stroke-width="3" stroke-linecap="round" stroke-linejoin="round"/>
<path d="M53.1374 21.6691L59.9183 18.2786C60.3843 18.045 60.7386 17.6359 60.9031 17.1412C61.0677 16.6465 61.0292 16.1068 60.796 15.6405L54.5216 3.08669C54.4059 2.8556 54.2458 2.64958 54.0505 2.4804C53.8551 2.31121 53.6284 2.18217 53.3832 2.10066C53.1379 2.01915 52.8791 1.98675 52.6213 2.00534C52.3636 2.02392 52.112 2.09311 51.881 2.20895L45.1025 5.59695L53.1374 21.6691Z" stroke="#2F2F2F" stroke-width="3" stroke-linecap="round" stroke-linejoin="round"/>
<path d="M45.2709 5.93359H35.4364L24.2102 16.8229C24.0015 17.0315 23.8425 17.2843 23.7448 17.5628C23.647 17.8412 23.6132 18.138 23.6458 18.4313C23.6784 18.7245 23.7765 19.0067 23.933 19.2569C24.0894 19.5071 24.3001 19.7188 24.5495 19.8765C28.8546 22.6277 34.6988 22.4384 39.3702 17.735L49.2047 25.6027L53.1385 21.6689" stroke="#2F2F2F" stroke-width="3" stroke-linecap="round" stroke-linejoin="round"/>
<path d="M30.5333 41.3381L20.2759 38.7738L13.7998 34.1466" stroke="#2F2F2F" stroke-width="3" stroke-linecap="round" stroke-linejoin="round"/>
</svg>
