<svg width="181" height="39" viewBox="0 0 181 39" fill="none" xmlns="http://www.w3.org/2000/svg">
<path d="M0.294922 25.715L13.1415 19.9971L20.5357 24.2853L22.0295 38.3538L12.9174 38.2788L14.2618 28.4981L12.6933 27.5954L5.00032 33.6143L0.294922 25.715Z" fill="#9E9E9E"/>
<path d="M21.3594 23.6837L32.7123 32.0343L37.1936 23.9847L28.0812 20.2982V18.4927L37.1936 14.731L32.7123 6.75635L21.3594 15.1072V23.6837Z" fill="#9E9E9E"/>
<path d="M20.5357 14.4299L22.0295 0.361328L12.9174 0.5118L14.2618 10.292L12.6933 11.1948L4.92564 5.17624L0.294922 13.0004L13.1415 18.7181L20.5357 14.4299Z" fill="#9E9E9E"/>
<path d="M67.5894 17.6729V30.8534H72.4934V14.0562H65.3516V17.6729H67.5894Z" fill="#9E9E9E"/>
<path d="M67.4384 11.6957C67.888 12.1656 68.5725 12.4005 69.492 12.4005C70.4119 12.4005 71.0858 12.1656 71.5146 11.6957C71.9647 11.205 72.189 10.592 72.189 9.85652C72.189 9.10036 71.9647 8.48734 71.5146 8.01744C71.0858 7.52704 70.4119 7.28174 69.492 7.28174C68.5725 7.28174 67.888 7.52704 67.4384 8.01744C67.0096 8.48734 66.7949 9.10036 66.7949 9.85652C66.7949 10.592 67.0096 11.205 67.4384 11.6957Z" fill="#9E9E9E"/>
<path d="M50.5172 30.4849C51.9065 31.1182 53.6128 31.4352 55.6354 31.4352C57.5361 31.4352 59.1704 31.1385 60.54 30.5461C61.909 29.9538 62.9611 29.126 63.6967 28.0632C64.4531 26.9803 64.8308 25.7236 64.8308 24.2932C64.8308 22.9037 64.4739 21.7288 63.7585 20.7683C63.0634 19.7875 62.0933 19.0212 60.8463 18.4696C59.5998 17.8973 58.1593 17.5397 56.5245 17.3968L54.8081 17.2436C53.7864 17.1616 53.0508 16.886 52.6012 16.4158C52.1516 15.9459 51.9268 15.3941 51.9268 14.7608C51.9268 14.2702 52.0498 13.8208 52.2944 13.4121C52.5399 12.9829 52.9075 12.6458 53.3981 12.4005C53.9089 12.1554 54.5322 12.0328 55.2679 12.0328C56.044 12.0328 56.688 12.1756 57.1989 12.462C57.3113 12.5224 57.4181 12.5871 57.5184 12.6557L57.5427 12.6727C57.5801 12.6986 57.6171 12.7255 57.653 12.7527C57.9634 12.9898 58.2105 13.2709 58.3943 13.596C58.6596 14.0456 58.7932 14.5461 58.7932 15.098H63.6967C63.6967 13.6265 63.3595 12.3494 62.6857 11.2665C62.0113 10.1631 61.0407 9.3151 59.7739 8.72228C58.5269 8.10925 57.0252 7.80273 55.2679 7.80273C53.592 7.80273 52.1415 8.08899 50.9152 8.66106C49.6894 9.21293 48.729 10.0098 48.0344 11.0518C47.3595 12.094 47.0223 13.3304 47.0223 14.7608C47.0223 16.7428 47.687 18.3366 49.0151 19.5424C50.3431 20.748 52.1212 21.4428 54.3484 21.6266L56.0344 21.7798C57.4029 21.9025 58.3943 22.1784 59.0074 22.6073C59.62 23.016 59.9268 23.578 59.9268 24.2932C59.9268 24.6219 59.8732 24.9301 59.7653 25.2182C59.6853 25.432 59.576 25.6345 59.4367 25.8259C59.1092 26.2547 58.6292 26.5919 57.9958 26.8375C57.3624 27.0825 56.5756 27.2051 55.6354 27.2051C54.5935 27.2051 53.7454 27.0623 53.0918 26.7757C52.4376 26.4694 51.9475 26.0709 51.62 25.5808C51.3137 25.0901 51.1608 24.559 51.1608 23.9867H46.2871C46.2871 25.4376 46.6446 26.7251 47.3595 27.8486C48.0749 28.9523 49.1275 29.8312 50.5172 30.4849Z" fill="#9E9E9E"/>
<path d="M83.4364 31.0662C81.7403 31.0662 80.3712 30.8622 79.3293 30.4531C78.2868 30.0243 77.5208 29.319 77.0302 28.3383C76.5603 27.3368 76.3254 25.9885 76.3254 24.2923V17.641H73.7812V14.0548H76.3254V9.51855H80.8922V14.0548H85.7968V17.641H80.8922V24.4764C80.8922 25.2733 81.0968 25.8863 81.5054 26.3151C81.9342 26.7242 82.5372 26.9282 83.3139 26.9282H85.7968V31.0662H83.4364Z" fill="#9E9E9E"/>
<path fill-rule="evenodd" clip-rule="evenodd" d="M91.7044 30.6989C92.8077 31.189 94.0749 31.4346 95.5052 31.4346C96.9148 31.4346 98.1618 31.189 99.2448 30.6989C100.328 30.2083 101.227 29.5238 101.942 28.6453C102.657 27.7664 103.138 26.7649 103.382 25.6415H98.8767C98.6726 26.1523 98.2843 26.5812 97.7122 26.9285C97.1401 27.2758 96.4039 27.45 95.5052 27.45C94.9483 27.45 94.4506 27.3836 94.0122 27.252C93.6785 27.1518 93.3793 27.0135 93.1145 26.8368C92.5014 26.4283 92.0518 25.8556 91.7657 25.1203C91.6862 24.9108 91.6184 24.6916 91.5612 24.4634C91.5029 24.2321 91.4558 23.9915 91.4204 23.741H103.689V22.0857C103.689 20.5532 103.362 19.1432 102.708 17.8559C102.054 16.548 101.104 15.4956 99.8579 14.6987C98.6316 13.8813 97.1193 13.4727 95.3209 13.4727C93.9519 13.4727 92.7256 13.718 91.6427 14.2084C90.581 14.6783 89.6919 15.3219 88.9765 16.1393C88.2616 16.9567 87.7097 17.8866 87.3209 18.9287C86.9533 19.9503 86.7695 21.0231 86.7695 22.1469V22.76C86.7695 23.8431 86.9533 24.9056 87.3209 25.9478C87.7097 26.9695 88.2616 27.8991 88.9765 28.737C89.7121 29.5547 90.621 30.2083 91.7044 30.6989ZM91.505 20.7101C91.5186 20.6452 91.5328 20.5813 91.5485 20.5184C91.591 20.3451 91.6401 20.179 91.6958 20.0203C91.7272 19.93 91.7606 19.8419 91.7966 19.7562C92.1029 19.0001 92.5525 18.428 93.1449 18.0398C93.3666 17.8947 93.6066 17.7767 93.8643 17.6859C94.2977 17.5336 94.7838 17.4574 95.3209 17.4574C96.1594 17.4574 96.8535 17.6516 97.4054 18.0398C97.9775 18.4076 98.4068 18.949 98.6929 19.6642C98.7162 19.722 98.738 19.7807 98.7592 19.8402C98.7931 19.9349 98.8245 20.0322 98.8539 20.1319C98.8969 20.2802 98.9349 20.4337 98.9683 20.5924C98.9926 20.7094 99.0134 20.8291 99.0321 20.9517H91.4579C91.472 20.8698 91.4877 20.7893 91.505 20.7101Z" fill="#9E9E9E"/>
<path d="M105.709 30.8524V14.0552H109.602V18.2857C109.655 18.0342 109.715 17.7928 109.782 17.5613C109.84 17.3664 109.902 17.1783 109.97 16.9977C110.399 15.8533 111.042 14.9952 111.901 14.4229C112.759 13.8303 113.811 13.5342 115.058 13.5342H115.272C116.539 13.5342 117.591 13.8303 118.429 14.4229C119.287 14.9952 119.931 15.8533 120.36 16.9977L120.394 17.084L120.423 17.163C120.442 17.1072 120.463 17.0522 120.483 16.9977C120.932 15.8533 121.587 14.9952 122.445 14.4229C123.303 13.8303 124.356 13.5342 125.602 13.5342H125.817C127.083 13.5342 128.146 13.8303 129.004 14.4229C129.883 14.9952 130.547 15.8533 130.996 16.9977C131.446 18.1421 131.671 19.5725 131.671 21.2889V30.8524H126.766V21.013C126.766 20.0934 126.521 19.3476 126.031 18.7755C125.561 18.2032 124.887 17.9172 124.008 17.9172C123.129 17.9172 122.435 18.2136 121.924 18.8062C121.413 19.3782 121.157 20.1445 121.157 21.105V30.8524H116.222V21.013C116.222 20.0934 115.977 19.3476 115.487 18.7755C115.017 18.2032 114.353 17.9172 113.495 17.9172C112.595 17.9172 111.89 18.2136 111.38 18.8062C110.869 19.3782 110.613 20.1445 110.613 21.105V30.8524H105.709Z" fill="#9E9E9E"/>
<path fill-rule="evenodd" clip-rule="evenodd" d="M144.773 27.6157V30.8524H148.665V20.5533C148.665 19.0002 148.359 17.7334 147.746 16.7524C147.132 15.7512 146.234 15.0054 145.049 14.515C143.884 14.0246 142.443 13.7793 140.727 13.7793C140.355 13.7793 139.966 13.7832 139.561 13.7914C139.322 13.7964 139.077 13.8025 138.826 13.8099C138.152 13.8304 137.498 13.861 136.865 13.902L136.381 13.9345C136.132 13.9518 135.899 13.9689 135.679 13.9861C135.514 13.9989 135.357 14.0118 135.21 14.0246V18.1626C135.843 18.1216 136.548 18.0807 137.324 18.04C137.542 18.0286 137.757 18.018 137.97 18.0081C138.279 17.9938 138.584 17.9814 138.885 17.9706C139.123 17.9619 139.359 17.9543 139.593 17.9479C140.328 17.9274 140.921 17.9173 141.37 17.9173C142.269 17.9173 142.923 18.1318 143.332 18.5609C143.741 18.9901 143.945 19.6337 143.945 20.4921V20.5533H140.911C139.419 20.5533 138.101 20.7475 136.956 21.1357C135.812 21.5035 134.923 22.0859 134.29 22.8828C133.656 23.6594 133.34 24.6606 133.34 25.8866C133.34 27.0106 133.595 27.9812 134.106 28.7989C134.617 29.5953 135.322 30.2084 136.221 30.6373C137.141 31.0666 138.203 31.2813 139.408 31.2813C140.573 31.2813 141.554 31.0666 142.351 30.6373C143.169 30.2084 143.802 29.5953 144.252 28.7989C144.331 28.6642 144.405 28.525 144.473 28.3802C144.571 28.1756 144.657 27.9604 144.734 27.7346L144.773 27.6157ZM143.945 24.6301V23.2813H140.88C140.021 23.2813 139.358 23.4958 138.888 23.925C138.438 24.3337 138.213 24.8956 138.213 25.6107C138.213 25.9474 138.269 26.2532 138.381 26.5291C138.494 26.8056 138.663 27.0511 138.888 27.2658C139.358 27.6749 140.021 27.8789 140.88 27.8789C141.043 27.8789 141.201 27.8708 141.354 27.8551C141.478 27.842 141.599 27.8232 141.716 27.7994C141.941 27.7539 142.153 27.6881 142.351 27.603C142.801 27.399 143.169 27.0618 143.454 26.5914C143.741 26.1216 143.904 25.4674 143.945 24.6301Z" fill="#9E9E9E"/>
<path d="M151.6 30.8525V14.0553H155.493V19.5995C155.679 18.0168 156.149 16.7407 156.903 15.7717C157.924 14.4845 159.395 13.8408 161.317 13.8408H161.96V18.0706H160.734C159.385 18.0706 158.343 18.4383 157.607 19.174C156.872 19.8892 156.504 20.9314 156.504 22.3004V30.8525H151.6Z" fill="#9E9E9E"/>
<path d="M168.181 23.0057H169.806L175.109 30.8528H180.626L173.902 21.2158L179.43 14.0556H174.281L168.181 22.0423V8.47705H163.277V30.8528H168.181V23.0057Z" fill="#9E9E9E"/>
</svg>
