<svg width="164" height="43" viewBox="0 0 164 43" fill="none" xmlns="http://www.w3.org/2000/svg">
<path fill-rule="evenodd" clip-rule="evenodd" d="M8.24064 42.5264H34.9803C39.3745 42.5264 42.9358 39.0007 42.9358 34.6504V8.17819C42.9358 3.8279 39.3745 0.302246 34.9803 0.302246H8.24064C3.84641 0.302246 0.285156 3.8279 0.285156 8.17819V34.6504C0.285156 39.0007 3.84641 42.5264 8.24064 42.5264ZM30.4415 25.09C30.4415 23.8471 30.0552 22.7475 29.2946 21.8034C28.5341 20.8592 27.508 20.2378 26.1922 19.927C27.3149 19.6641 28.2203 19.1143 28.9084 18.2538C29.5965 17.3933 29.9466 16.3297 29.9466 15.0389C29.9466 13.294 29.343 11.9435 28.1478 10.9994C26.9527 10.0552 25.2626 9.57715 23.0655 9.57715H13.2871V30.9103H23.3069C25.6006 30.9103 27.3631 30.3844 28.5945 29.3686C29.8258 28.3527 30.4415 26.9186 30.4415 25.09ZM21.9066 18.3016H18.4902V13.7123H21.8462C23.6932 13.7123 24.6228 14.4772 24.6228 16.007C24.6228 17.5368 23.7174 18.3016 21.9066 18.3016ZM24.3451 22.5802C24.8522 23.0105 25.1056 23.608 25.1056 24.3729C25.1056 25.9386 24.1399 26.7154 22.2204 26.7273H18.5022V21.9348H22.1842C23.1138 21.9348 23.8381 22.15 24.3451 22.5802Z" fill="#9E9E9E"/>
<path d="M67.6479 32.0749L62.988 24.0196H61.805V32.0749H56.5898V10.7417H65.487C67.1891 10.7417 68.6378 11.0285 69.8088 11.6142C70.9918 12.1998 71.8731 13.0005 72.4646 14.0164C73.0561 15.0322 73.3459 16.1915 73.3459 17.5062C73.3459 19.0598 72.9113 20.3745 72.0542 21.4621C71.185 22.5496 69.9416 23.2906 68.2877 23.697L73.4062 32.0868H67.6479V32.0749ZM61.805 20.494H65.0282C66.0664 20.494 66.827 20.2669 67.3098 19.8128C67.7927 19.3586 68.0462 18.6893 68.0462 17.805C68.0462 16.9564 67.7927 16.2991 67.2978 15.8091C66.8028 15.331 66.0423 15.08 65.0282 15.08H61.805V20.494Z" fill="#9E9E9E"/>
<path d="M96.934 28.1908H88.8579L87.5178 32.087H82.0371L89.9323 10.9092H95.9321L103.827 32.087H98.2861L96.934 28.1908ZM95.5941 24.2588L92.9141 16.4188L90.1978 24.2588H95.5941Z" fill="#9E9E9E"/>
<path d="M132.596 32.0749H127.38L118.664 18.9762V32.0749H113.449V10.7417H118.664L127.38 23.9599V10.7417H132.596V32.0749Z" fill="#9E9E9E"/>
<path d="M161.834 26.936C160.929 28.5495 159.625 29.8163 157.935 30.7246C156.233 31.6329 154.241 32.0871 151.947 32.0871H143.811V10.7539H151.947C154.265 10.7539 156.269 11.1961 157.947 12.0805C159.637 12.9649 160.929 14.2078 161.834 15.8213C162.74 17.4347 163.186 19.2752 163.186 21.3787C163.186 23.4582 162.727 25.3107 161.834 26.936ZM156.221 25.8604C157.343 24.7967 157.911 23.2909 157.911 21.3667C157.911 19.4306 157.343 17.9367 156.221 16.873C155.098 15.8093 153.516 15.2715 151.476 15.2715H149.014V27.4619H151.476C153.516 27.4619 155.098 26.936 156.221 25.8604Z" fill="#9E9E9E"/>
</svg>
