<svg width="188" height="54" viewBox="0 0 188 54" fill="none" xmlns="http://www.w3.org/2000/svg">
<path d="M71.2855 13.0123V18.6528H63.6277V41.9146H56.5874V18.6528H48.9295V13.0123H71.2855ZM73.4191 30.3866C73.4191 28.0261 73.8582 25.9538 74.7365 24.1697C75.6423 22.3856 76.8637 21.0132 78.4008 20.0526C79.9379 19.0919 81.6533 18.6116 83.5472 18.6116C85.1666 18.6116 86.5802 18.941 87.7878 19.5997C89.023 20.2584 89.9699 21.123 90.6287 22.1935V18.941H97.669V41.9146H90.6287V38.662C89.9425 39.7325 88.9818 40.5971 87.7467 41.2558C86.539 41.9146 85.1254 42.2439 83.506 42.2439C81.6396 42.2439 79.9379 41.7636 78.4008 40.8029C76.8637 39.8148 75.6423 38.4287 74.7365 36.6446C73.8582 34.8331 73.4191 32.7471 73.4191 30.3866ZM90.6287 30.4278C90.6287 28.6711 90.1346 27.285 89.1465 26.2694C88.1858 25.2539 87.0056 24.7461 85.6058 24.7461C84.2059 24.7461 83.012 25.2539 82.0239 26.2694C81.0632 27.2576 80.5829 28.6299 80.5829 30.3866C80.5829 32.1432 81.0632 33.543 82.0239 34.5861C83.012 35.6016 84.2059 36.1094 85.6058 36.1094C87.0056 36.1094 88.1858 35.6016 89.1465 34.5861C90.1346 33.5705 90.6287 32.1844 90.6287 30.4278ZM109.803 22.7699C110.626 21.5073 111.655 20.5192 112.89 19.8056C114.126 19.0645 115.498 18.6939 117.008 18.6939V26.1459H115.073C113.316 26.1459 111.998 26.5302 111.12 27.2987C110.242 28.0398 109.803 29.3573 109.803 31.2512V41.9146H102.762V18.941H109.803V22.7699ZM129.101 18.6116C130.72 18.6116 132.134 18.941 133.342 19.5997C134.577 20.2584 135.524 21.123 136.182 22.1935V18.941H143.223V41.8734C143.223 43.9868 142.797 45.8944 141.946 47.5962C141.123 49.3254 139.847 50.6978 138.118 51.7133C136.416 52.7289 134.289 53.2367 131.736 53.2367C128.332 53.2367 125.574 52.427 123.461 50.8076C121.347 49.2156 120.139 47.0472 119.837 44.3025H126.795C127.015 45.1808 127.537 45.867 128.36 46.3611C129.183 46.8826 130.199 47.1433 131.407 47.1433C132.861 47.1433 134.014 46.7179 134.865 45.867C135.743 45.0436 136.182 43.7124 136.182 41.8734V38.6208C135.496 39.6913 134.549 40.5696 133.342 41.2558C132.134 41.9146 130.72 42.2439 129.101 42.2439C127.207 42.2439 125.492 41.7636 123.955 40.8029C122.418 39.8148 121.196 38.4287 120.29 36.6446C119.412 34.8331 118.973 32.7471 118.973 30.3866C118.973 28.0261 119.412 25.9538 120.29 24.1697C121.196 22.3856 122.418 21.0132 123.955 20.0526C125.492 19.0919 127.207 18.6116 129.101 18.6116ZM136.182 30.4278C136.182 28.6711 135.688 27.285 134.7 26.2694C133.74 25.2539 132.559 24.7461 131.16 24.7461C129.76 24.7461 128.566 25.2539 127.578 26.2694C126.617 27.2576 126.137 28.6299 126.137 30.3866C126.137 32.1432 126.617 33.543 127.578 34.5861C128.566 35.6016 129.76 36.1094 131.16 36.1094C132.559 36.1094 133.74 35.6016 134.7 34.5861C135.688 33.5705 136.182 32.1844 136.182 30.4278ZM169.972 30.0572C169.972 30.716 169.931 31.4021 169.849 32.1158H153.915C154.025 33.543 154.478 34.641 155.274 35.4095C156.098 36.1506 157.099 36.5211 158.28 36.5211C160.036 36.5211 161.258 35.78 161.944 34.2979H169.437C169.053 35.8075 168.353 37.1661 167.337 38.3738C166.349 39.5815 165.1 40.5284 163.591 41.2146C162.081 41.9008 160.393 42.2439 158.527 42.2439C156.276 42.2439 154.272 41.7636 152.516 40.8029C150.759 39.8423 149.387 38.4699 148.398 36.6858C147.41 34.9017 146.916 32.8157 146.916 30.4278C146.916 28.0398 147.397 25.9538 148.357 24.1697C149.345 22.3856 150.718 21.0132 152.474 20.0526C154.231 19.0919 156.248 18.6116 158.527 18.6116C160.75 18.6116 162.726 19.0782 164.455 20.0114C166.184 20.9446 167.529 22.2758 168.49 24.005C169.478 25.7342 169.972 27.7516 169.972 30.0572ZM162.767 28.2045C162.767 26.9968 162.356 26.0361 161.532 25.3225C160.709 24.6089 159.679 24.2521 158.444 24.2521C157.264 24.2521 156.262 24.5951 155.439 25.2813C154.643 25.9675 154.149 26.9419 153.957 28.2045H162.767ZM186.491 35.9447V41.9146H182.909C180.356 41.9146 178.366 41.297 176.939 40.0618C175.512 38.7993 174.798 36.7544 174.798 33.9273V24.7873H171.998V18.941H174.798V13.3417H181.838V18.941H186.449V24.7873H181.838V34.0097C181.838 34.6958 182.003 35.1899 182.332 35.4918C182.662 35.7937 183.211 35.9447 183.979 35.9447H186.491Z" fill="#9E9E9E"/>
<circle cx="20.4954" cy="28.3621" r="7.62432" fill="#9E9E9E"/>
<path fill-rule="evenodd" clip-rule="evenodd" d="M8.29619 8.53906C4.0854 8.53906 0.671875 11.9526 0.671875 16.1634V40.5612C0.671875 44.772 4.08539 48.1855 8.29619 48.1855H32.694C36.9048 48.1855 40.3183 44.772 40.3183 40.5612V16.1634C40.3183 11.9526 36.9048 8.53906 32.694 8.53906H8.29619ZM22.0192 17.688V16.1631H18.9695V17.688V19.279C17.6905 19.4937 16.4653 19.9772 15.3775 20.7041C13.8629 21.7161 12.6824 23.1545 11.9853 24.8375C11.7176 25.4835 11.5259 26.1545 11.4113 26.8372H9.82031H8.29545V29.8869H9.82031H11.4113C11.4265 29.9777 11.4432 30.0684 11.4612 30.1589C11.8165 31.9454 12.6937 33.5865 13.9818 34.8746C15.2698 36.1627 16.9109 37.0399 18.6975 37.3952C18.788 37.4132 18.8787 37.4299 18.9695 37.4451V39.0361V40.5609H22.0192V39.0361V37.4451C22.7019 37.3305 23.3728 37.1388 24.0189 36.8711C25.7019 36.174 27.1403 34.9935 28.1523 33.4789C28.8792 32.3911 29.3627 31.1659 29.5774 29.8869H31.1684H32.6933V26.8372H31.1684H29.5775C29.2623 24.9601 28.3705 23.213 27.0069 21.8495C25.6434 20.4859 23.8963 19.594 22.0192 19.2789V17.688ZM17.0718 23.2398C18.0849 22.5629 19.2759 22.2016 20.4944 22.2016C22.1282 22.2016 23.6951 22.8506 24.8505 24.0059C26.0058 25.1612 26.6548 26.7282 26.6548 28.362C26.6548 29.5805 26.2935 30.7715 25.6166 31.7846C24.9397 32.7977 23.9775 33.5873 22.8519 34.0535C21.7262 34.5198 20.4875 34.6418 19.2925 34.4041C18.0975 34.1664 16.9998 33.5797 16.1383 32.7181C15.2767 31.8566 14.69 30.7589 14.4523 29.5639C14.2146 28.3689 14.3366 27.1302 14.8028 26.0045C15.2691 24.8789 16.0587 23.9167 17.0718 23.2398Z" fill="#9E9E9E"/>
</svg>
