<svg width="129" height="48" viewBox="0 0 129 48" fill="none" xmlns="http://www.w3.org/2000/svg">
<path d="M11.6725 38.2368C10.3098 38.2368 8.94705 38.189 7.5843 38.0934C6.24546 38.0216 4.84685 37.8304 3.38847 37.5196V13.4205C4.53605 13.2053 5.79121 13.0499 7.15396 12.9543C8.51671 12.8347 9.78382 12.775 10.9553 12.775C12.5332 12.775 13.9797 12.8945 15.2946 13.1336C16.6334 13.3487 17.781 13.7313 18.7373 14.2812C19.6936 14.831 20.4348 15.5602 20.9607 16.4687C21.5106 17.3533 21.7856 18.4531 21.7856 19.768C21.7856 21.7524 20.8293 23.3183 18.9166 24.4659C20.4945 25.0636 21.5704 25.8765 22.1442 26.9045C22.718 27.9325 23.0049 29.0921 23.0049 30.3831C23.0049 32.989 22.0486 34.9495 20.1359 36.2644C18.2472 37.5794 15.4261 38.2368 11.6725 38.2368ZM8.83946 27.0838V33.5031C9.2459 33.5509 9.68819 33.5867 10.1663 33.6106C10.6445 33.6346 11.1705 33.6465 11.7443 33.6465C13.4178 33.6465 14.7686 33.4074 15.7966 32.9293C16.8247 32.4511 17.3387 31.5665 17.3387 30.2755C17.3387 29.1279 16.9084 28.3151 16.0477 27.8369C15.187 27.3348 13.9557 27.0838 12.3539 27.0838H8.83946ZM8.83946 22.8163H11.565C13.2863 22.8163 14.5176 22.6011 15.2587 22.1707C15.9999 21.7165 16.3704 20.9993 16.3704 20.019C16.3704 19.0149 15.9879 18.3096 15.2229 17.9032C14.4578 17.4968 13.3341 17.2935 11.8519 17.2935C11.3737 17.2935 10.8597 17.3055 10.3098 17.3294C9.75992 17.3294 9.2698 17.3533 8.83946 17.4011V22.8163ZM32.4679 37.9141H27.1245V19.0508H32.4679V37.9141ZM32.97 13.5998C32.97 14.58 32.6472 15.357 32.0017 15.9308C31.3801 16.4807 30.6389 16.7556 29.7783 16.7556C28.9176 16.7556 28.1645 16.4807 27.519 15.9308C26.8974 15.357 26.5866 14.58 26.5866 13.5998C26.5866 12.6196 26.8974 11.8545 27.519 11.3046C28.1645 10.7308 28.9176 10.4439 29.7783 10.4439C30.6389 10.4439 31.3801 10.7308 32.0017 11.3046C32.6472 11.8545 32.97 12.6196 32.97 13.5998ZM37.3115 14.3529L42.6549 13.4922V19.0508H49.0741V23.4976H42.6549V30.1321C42.6549 31.2557 42.8461 32.1523 43.2287 32.8217C43.6351 33.4911 44.436 33.8258 45.6314 33.8258C46.2052 33.8258 46.7909 33.778 47.3886 33.6824C48.0102 33.5628 48.5721 33.4074 49.0741 33.2162L49.8272 37.3761C49.1817 37.6391 48.4645 37.8662 47.6755 38.0575C46.8866 38.2488 45.9183 38.3444 44.7707 38.3444C43.3123 38.3444 42.105 38.1531 41.1487 37.7706C40.1924 37.3642 39.4273 36.8143 38.8535 36.121C38.2797 35.4037 37.8733 34.5431 37.6342 33.5389C37.4191 32.5348 37.3115 31.4231 37.3115 30.2038V14.3529Z" fill="#9E9E9E"/>
<path d="M98.6971 34.1844C99.223 34.1844 99.7251 34.1725 100.203 34.1486C100.681 34.1247 101.064 34.0888 101.351 34.041V29.9886C101.136 29.9408 100.813 29.893 100.383 29.8452C99.9522 29.7973 99.5577 29.7734 99.1991 29.7734C98.6971 29.7734 98.2189 29.8093 97.7647 29.881C97.3343 29.9288 96.9518 30.0364 96.6171 30.2038C96.2824 30.3711 96.0194 30.5983 95.8281 30.8852C95.6369 31.172 95.5412 31.5307 95.5412 31.961C95.5412 32.7978 95.8162 33.3835 96.366 33.7182C96.9398 34.029 97.7168 34.1844 98.6971 34.1844ZM98.2667 18.5487C99.8446 18.5487 101.16 18.728 102.212 19.0866C103.263 19.4452 104.1 19.9593 104.722 20.6287C105.367 21.2981 105.822 22.111 106.085 23.0673C106.348 24.0236 106.479 25.0875 106.479 26.259V37.3761C105.714 37.5435 104.65 37.7348 103.287 37.9499C101.925 38.189 100.275 38.3085 98.3384 38.3085C97.1191 38.3085 96.0074 38.201 95.0033 37.9858C94.0231 37.7706 93.1743 37.424 92.4571 36.9458C91.7399 36.4437 91.19 35.7982 90.8075 35.0093C90.4249 34.2203 90.2337 33.252 90.2337 32.1045C90.2337 31.0047 90.4488 30.0723 90.8792 29.3072C91.3334 28.5422 91.9311 27.9325 92.6723 27.4783C93.4134 27.024 94.2622 26.7013 95.2185 26.51C96.1748 26.2948 97.167 26.1873 98.195 26.1873C98.8883 26.1873 99.498 26.2231 100.024 26.2948C100.574 26.3427 101.016 26.4144 101.351 26.51V26.008C101.351 25.0995 101.076 24.3703 100.526 23.8204C99.9761 23.2705 99.0198 22.9956 97.6571 22.9956C96.7486 22.9956 95.852 23.0673 94.9674 23.2107C94.0828 23.3303 93.3178 23.5096 92.6723 23.7487L91.9909 19.4452C92.3017 19.3496 92.6842 19.254 93.1385 19.1584C93.6166 19.0388 94.1307 18.9432 94.6805 18.8715C95.2304 18.7758 95.8042 18.7041 96.4019 18.6563C97.0235 18.5846 97.6451 18.5487 98.2667 18.5487ZM118.806 24.7887L122.536 19.0508H128.058L121.603 28.1238C123.038 29.9169 124.341 31.6622 125.512 33.3596C126.684 35.0571 127.616 36.5752 128.309 37.9141H122.571C122.38 37.5554 122.141 37.1131 121.854 36.5872C121.567 36.0373 121.245 35.4755 120.886 34.9017C120.527 34.304 120.145 33.7182 119.738 33.1444C119.356 32.5468 118.973 32.0088 118.591 31.5307C118.232 31.9849 117.862 32.487 117.479 33.0369C117.12 33.5867 116.774 34.1486 116.439 34.7224C116.104 35.2722 115.77 35.8221 115.435 36.372C115.124 36.9219 114.849 37.4359 114.61 37.9141H109.159C109.446 37.3164 109.841 36.6111 110.343 35.7982C110.845 34.9854 111.383 34.1486 111.956 33.2879C112.554 32.4033 113.176 31.5307 113.821 30.67C114.467 29.7854 115.1 28.9606 115.722 28.1955C114.646 26.6893 113.57 25.1712 112.494 23.6411C111.418 22.0871 110.355 20.557 109.303 19.0508H115.076L118.806 24.7887Z" fill="#9E9E9E"/>
<path d="M63.2781 14.0635L73.1129 36.4771H53.4433L63.2781 14.0635Z" fill="#9E9E9E"/>
<path d="M75.2312 14.0635L85.066 36.4771H65.3964L75.2312 14.0635Z" fill="#9E9E9E"/>
</svg>
