<svg width="135" height="36" viewBox="0 0 135 36" fill="none" xmlns="http://www.w3.org/2000/svg">
<path fill-rule="evenodd" clip-rule="evenodd" d="M27.0915 6.53669H12.5352V0.361328H33.2667V21.0929H27.0915V6.53669Z" fill="#9E9E9E"/>
<path fill-rule="evenodd" clip-rule="evenodd" d="M15.7204 18.8244C14.7774 18.1943 13.6688 17.8579 12.5346 17.8579V11.6826C14.8901 11.6826 17.1927 12.3811 19.1513 13.6897C21.1098 14.9984 22.6363 16.8584 23.5377 19.0346C24.4391 21.211 24.6751 23.6055 24.2156 25.9156C23.756 28.2258 22.6218 30.348 20.956 32.0135C19.2904 33.6793 17.1683 34.8135 14.8581 35.2731C12.5478 35.7327 10.1532 35.4967 7.97698 34.5952C5.80079 33.6938 3.94078 32.1675 2.63213 30.2088C1.32348 28.2502 0.625 25.9478 0.625 23.5921H6.80036C6.80036 24.7263 7.13668 25.8351 7.76677 26.7779C8.39683 27.721 9.29241 28.4561 10.3402 28.8899C11.388 29.324 12.541 29.4377 13.6533 29.2162C14.7657 28.9951 15.7874 28.449 16.5894 27.6468C17.3913 26.845 17.9375 25.8231 18.1587 24.7108C18.38 23.5984 18.2664 22.4455 17.8324 21.3978C17.3984 20.35 16.6634 19.4544 15.7204 18.8244Z" fill="#9E9E9E"/>
<path d="M42.9688 30.6649V4.75586H52.5551C54.6278 4.75586 56.3428 5.10132 57.6999 5.79224C59.057 6.48312 60.0687 7.43314 60.7349 8.64221C61.4011 9.85129 61.7342 11.2084 61.7342 12.7136C61.7342 14.1448 61.4134 15.4649 60.772 16.674C60.1301 17.8584 59.1308 18.8207 57.7737 19.561C56.4166 20.2766 54.6769 20.6343 52.5551 20.6343H47.7063V30.6649H42.9688ZM47.7063 16.785H52.2587C53.9122 16.785 55.0966 16.4272 55.8122 15.7116C56.5523 14.9714 56.9224 13.972 56.9224 12.7136C56.9224 11.4305 56.5523 10.4312 55.8122 9.71558C55.0966 8.97531 53.9122 8.6052 52.2587 8.6052H47.7063V16.785Z" fill="#9E9E9E"/>
<path d="M71.4711 31.1084C69.6206 31.1084 67.9798 30.7135 66.5485 29.924C65.1172 29.1346 63.9947 28.024 63.1805 26.5927C62.3663 25.1618 61.959 23.5087 61.959 21.6334C61.959 19.7332 62.3539 18.0429 63.1434 16.5624C63.9576 15.0819 65.0681 13.9345 66.4747 13.1203C67.9056 12.2813 69.5835 11.8618 71.5082 11.8618C73.3097 11.8618 74.901 12.2566 76.2829 13.0462C77.6647 13.8358 78.7382 14.9215 79.5029 16.3033C80.2927 17.6605 80.6873 19.178 80.6873 20.8559C80.6873 21.1272 80.6749 21.4112 80.6506 21.7072C80.6506 22.0032 80.6382 22.3119 80.6135 22.6326H66.6594C66.7583 24.0636 67.2518 25.1865 68.1402 26.0007C69.0529 26.8149 70.1511 27.2222 71.4344 27.2222C72.3966 27.2222 73.1985 27.0124 73.8399 26.5927C74.5065 26.1487 74.9999 25.5811 75.3207 24.8902H80.1324C79.7869 26.0502 79.2069 27.1109 78.3927 28.0735C77.6029 29.0109 76.616 29.7513 75.4316 30.2942C74.2719 30.8371 72.9519 31.1084 71.4711 31.1084ZM71.5082 15.7112C70.3486 15.7112 69.3246 16.0443 68.4362 16.7105C67.5478 17.3521 66.9805 18.3391 66.7336 19.6715H75.8759C75.8018 18.4624 75.3578 17.5001 74.5432 16.7845C73.729 16.0689 72.7174 15.7112 71.5082 15.7112Z" fill="#9E9E9E"/>
<path d="M82.8223 30.6644V12.306H87.0045L87.3747 15.415C87.9424 14.3293 88.7565 13.4657 89.8177 12.8242C90.9031 12.1826 92.1741 11.8618 93.6297 11.8618C95.8999 11.8618 97.6643 12.5774 98.9225 14.0086C100.181 15.4397 100.81 17.5371 100.81 20.3007V30.6644H96.0727V20.745C96.0727 19.1657 95.7519 17.9566 95.1105 17.1176C94.469 16.2787 93.4694 15.8592 92.1122 15.8592C90.7799 15.8592 89.682 16.328 88.8184 17.2657C87.9794 18.2033 87.5598 19.5111 87.5598 21.189V30.6644H82.8223Z" fill="#9E9E9E"/>
<path d="M111.671 30.6644C109.746 30.6644 108.204 30.1953 107.044 29.2579C105.884 28.32 105.304 26.6545 105.304 24.261V16.2663H102.158V12.306H105.304L105.86 7.3833H110.042V12.306H115.002V16.2663H110.042V24.2981C110.042 25.1865 110.227 25.8033 110.597 26.1487C110.992 26.4694 111.658 26.6298 112.596 26.6298H114.891V30.6644H111.671Z" fill="#9E9E9E"/>
<path d="M123.549 31.1084C121.969 31.1084 120.674 30.8615 119.662 30.3681C118.65 29.8499 117.898 29.1713 117.404 28.3324C116.911 27.4935 116.664 26.5683 116.664 25.5567C116.664 23.8541 117.33 22.4723 118.663 21.4112C119.995 20.3501 121.994 19.8195 124.659 19.8195H129.322V19.3754C129.322 18.117 128.965 17.1917 128.249 16.5995C127.533 16.0073 126.645 15.7112 125.584 15.7112C124.622 15.7112 123.783 15.9456 123.067 16.4144C122.352 16.8586 121.907 17.5248 121.735 18.4131H117.108C117.231 17.0806 117.676 15.9209 118.44 14.9339C119.23 13.9469 120.242 13.1943 121.476 12.6761C122.709 12.1332 124.091 11.8618 125.621 11.8618C128.237 11.8618 130.297 12.5157 131.802 13.8235C133.307 15.1313 134.06 16.9819 134.06 19.3754V30.6644H130.026L129.581 27.7033C129.038 28.6902 128.274 29.5044 127.287 30.1462C126.324 30.7877 125.078 31.1084 123.549 31.1084ZM124.622 27.4073C125.979 27.4073 127.028 26.9629 127.768 26.0749C128.533 25.1865 129.014 24.0883 129.211 22.7807H125.177C123.918 22.7807 123.018 23.0148 122.475 23.4839C121.932 23.9279 121.661 24.4832 121.661 25.1494C121.661 25.8651 121.932 26.4203 122.475 26.8149C123.018 27.2098 123.733 27.4073 124.622 27.4073Z" fill="#9E9E9E"/>
</svg>
