<svg width="151" height="42" viewBox="0 0 151 42" fill="none" xmlns="http://www.w3.org/2000/svg">
<path d="M19.5207 41.553H6.11719L19.5207 21.2842H32.9243L19.5207 41.553Z" fill="#9E9E9E"/>
<path d="M14.6191 0.361328H28.3495L14.6191 21.2838H0.888672L14.6191 0.361328Z" fill="#9E9E9E"/>
<path d="M60.271 17.9938C60.271 19.2366 59.9713 20.402 59.3719 21.4898C58.7948 22.5772 57.8738 23.454 56.6087 24.12C55.3655 24.7857 53.7898 25.1188 51.8809 25.1188H47.9853V34.0415H43.3242V10.8022H51.8809C53.6787 10.8022 55.2102 11.113 56.4753 11.7345C57.7408 12.356 58.6838 13.2105 59.3056 14.2981C59.9493 15.3857 60.271 16.6176 60.271 17.9938ZM51.6809 21.3564C52.9683 21.3564 53.9228 21.0681 54.5445 20.4907C55.1659 19.8917 55.4766 19.0593 55.4766 17.9938C55.4766 15.7298 54.2115 14.5978 51.6809 14.5978H47.9853V21.3564H51.6809Z" fill="#9E9E9E"/>
<path d="M66.9091 18.4602C67.5085 17.4836 68.2852 16.7178 69.2396 16.1629C70.2164 15.608 71.3261 15.3306 72.5692 15.3306V20.2247H71.3371C69.8723 20.2247 68.7626 20.5687 68.0078 21.2571C67.2755 21.9452 66.9091 23.1436 66.9091 24.8527V34.0418H62.248V15.5969H66.9091V18.4602Z" fill="#9E9E9E"/>
<path d="M82.5648 34.3416C80.7889 34.3416 79.1908 33.9533 77.7704 33.1765C76.3499 32.3775 75.2288 31.2563 74.4078 29.8136C73.6087 28.3708 73.209 26.7063 73.209 24.8195C73.209 22.933 73.6197 21.2682 74.4411 19.8254C75.2845 18.3826 76.4276 17.2728 77.8704 16.496C79.3132 15.6969 80.9223 15.2974 82.6981 15.2974C84.4736 15.2974 86.0827 15.6969 87.5255 16.496C88.9683 17.2728 90.1004 18.3826 90.9218 19.8254C91.7652 21.2682 92.1869 22.933 92.1869 24.8195C92.1869 26.7063 91.7539 28.3708 90.8885 29.8136C90.0447 31.2563 88.8906 32.3775 87.4259 33.1765C85.9831 33.9533 84.3626 34.3416 82.5648 34.3416ZM82.5648 30.2796C83.4082 30.2796 84.1963 30.0799 84.9286 29.6806C85.6834 29.2589 86.2828 28.6371 86.7264 27.8161C87.1705 26.9947 87.3925 25.9959 87.3925 24.8195C87.3925 23.066 86.9265 21.7232 85.9941 20.7908C85.084 19.8364 83.9632 19.3594 82.6315 19.3594C81.2997 19.3594 80.1786 19.8364 79.2689 20.7908C78.3808 21.7232 77.9371 23.066 77.9371 24.8195C77.9371 26.573 78.3698 27.9271 79.2355 28.8815C80.1232 29.8136 81.233 30.2796 82.5648 30.2796Z" fill="#9E9E9E"/>
<path d="M98.9384 30.3459H103.944V34.0415H94.2773V7.93896H98.9384V30.3459Z" fill="#9E9E9E"/>
<path d="M107.56 13.3992C106.739 13.3992 106.051 13.144 105.496 12.6335C104.964 12.1007 104.697 11.446 104.697 10.6691C104.697 9.89223 104.964 9.24854 105.496 8.73803C106.051 8.20532 106.739 7.93896 107.56 7.93896C108.382 7.93896 109.059 8.20532 109.591 8.73803C110.146 9.24854 110.424 9.89223 110.424 10.6691C110.424 11.446 110.146 12.1007 109.591 12.6335C109.059 13.144 108.382 13.3992 107.56 13.3992ZM109.858 15.5966V34.0415H105.197V15.5966H109.858Z" fill="#9E9E9E"/>
<path d="M123.35 15.3306C125.548 15.3306 127.323 16.0298 128.678 17.4281C130.031 18.8043 130.708 20.7354 130.708 23.2213V34.0418H126.047V23.854C126.047 22.3888 125.681 21.2681 124.949 20.491C124.216 19.6919 123.217 19.2926 121.952 19.2926C120.665 19.2926 119.643 19.6919 118.889 20.491C118.156 21.2681 117.79 22.3888 117.79 23.854V34.0418H113.129V15.5969H117.79V17.8942C118.412 17.0951 119.2 16.4737 120.154 16.0298C121.131 15.5636 122.196 15.3306 123.35 15.3306Z" fill="#9E9E9E"/>
<path d="M150.958 24.4201C150.958 25.0858 150.914 25.6852 150.825 26.2179H137.341C137.452 27.5497 137.918 28.5928 138.739 29.3475C139.561 30.1023 140.571 30.4796 141.769 30.4796C143.501 30.4796 144.733 29.7359 145.465 28.2488H150.492C149.96 30.0246 148.939 31.4894 147.429 32.6438C145.92 33.7756 144.067 34.3416 141.869 34.3416C140.094 34.3416 138.495 33.9533 137.075 33.1765C135.677 32.3775 134.578 31.2563 133.779 29.8136C133.002 28.3708 132.613 26.7063 132.613 24.8195C132.613 22.9107 133.002 21.2349 133.779 19.7921C134.555 18.3494 135.643 17.2395 137.042 16.4627C138.44 15.6858 140.049 15.2974 141.869 15.2974C143.623 15.2974 145.188 15.6747 146.564 16.4294C147.962 17.1841 149.039 18.2605 149.793 19.6591C150.57 21.0352 150.958 22.622 150.958 24.4201ZM146.131 23.0884C146.109 21.8896 145.676 20.9352 144.832 20.2248C143.989 19.4924 142.957 19.1264 141.736 19.1264C140.582 19.1264 139.605 19.4814 138.806 20.1918C138.029 20.8798 137.552 21.8452 137.374 23.0884H146.131Z" fill="#9E9E9E"/>
</svg>
