<svg width="200" height="46" viewBox="0 0 200 46" fill="none" xmlns="http://www.w3.org/2000/svg">
<path d="M58.6416 23.4063C60.0546 23.7074 61.1896 24.4139 62.0466 25.5257C62.9037 26.6144 63.3322 27.8653 63.3322 29.2782C63.3322 31.3166 62.6141 32.938 61.178 34.1425C59.765 35.3239 57.7846 35.9146 55.2366 35.9146H43.8749V11.5234H54.8544C57.3329 11.5234 59.267 12.0909 60.6568 13.2259C62.0698 14.361 62.7763 15.9013 62.7763 17.8471C62.7763 19.2832 62.3941 20.4761 61.6297 21.4258C60.8885 22.3755 59.8924 23.0357 58.6416 23.4063ZM49.8163 21.3911H53.7078C54.6807 21.3911 55.4219 21.1826 55.9315 20.7657C56.4642 20.3255 56.7306 19.6886 56.7306 18.8547C56.7306 18.0208 56.4642 17.3838 55.9315 16.9437C55.4219 16.5036 54.6807 16.2835 53.7078 16.2835H49.8163V21.3911ZM54.1942 31.1197C55.1902 31.1197 55.9546 30.8997 56.4874 30.4596C57.0433 29.9963 57.3213 29.3361 57.3213 28.4791C57.3213 27.622 57.0317 26.9503 56.4527 26.4639C55.8967 25.9774 55.1208 25.7342 54.1247 25.7342H49.8163V31.1197H54.1942ZM69.7663 14.5115C68.7239 14.5115 67.8669 14.2104 67.1952 13.6081C66.5466 12.9827 66.2223 12.2183 66.2223 11.315C66.2223 10.3884 66.5466 9.62403 67.1952 9.02178C67.8669 8.39637 68.7239 8.08366 69.7663 8.08366C70.7855 8.08366 71.6194 8.39637 72.268 9.02178C72.9397 9.62403 73.2756 10.3884 73.2756 11.315C73.2756 12.2183 72.9397 12.9827 72.268 13.6081C71.6194 14.2104 70.7855 14.5115 69.7663 14.5115ZM72.7196 16.5267V35.9146H66.7782V16.5267H72.7196ZM87.8311 30.8765V35.9146H84.8082C82.654 35.9146 80.9747 35.3934 79.7702 34.351C78.5657 33.2855 77.9634 31.5598 77.9634 29.174V21.4606H75.6008V16.5267H77.9634V11.8014H83.9049V16.5267H87.7963V21.4606H83.9049V29.2435C83.9049 29.8226 84.0439 30.2395 84.3218 30.4943C84.5998 30.7491 85.063 30.8765 85.7116 30.8765H87.8311ZM101.946 30.8765V35.9146H98.9235C96.7693 35.9146 95.0899 35.3934 93.8854 34.351C92.6809 33.2855 92.0787 31.5598 92.0787 29.174V21.4606H89.716V16.5267H92.0787V11.8014H98.0201V16.5267H101.912V21.4606H98.0201V29.2435C98.0201 29.8226 98.1591 30.2395 98.437 30.4943C98.715 30.7491 99.1783 30.8765 99.8268 30.8765H101.946ZM114.081 36.1925C112.182 36.1925 110.468 35.7872 108.939 34.9764C107.433 34.1657 106.24 33.0075 105.36 31.5019C104.503 29.9963 104.074 28.2359 104.074 26.2206C104.074 24.2286 104.515 22.4797 105.395 20.9741C106.275 19.4453 107.479 18.2756 109.008 17.4649C110.537 16.6541 112.251 16.2488 114.151 16.2488C116.05 16.2488 117.764 16.6541 119.293 17.4649C120.822 18.2756 122.026 19.4453 122.906 20.9741C123.787 22.4797 124.227 24.2286 124.227 26.2206C124.227 28.2127 123.775 29.9731 122.872 31.5019C121.991 33.0075 120.775 34.1657 119.223 34.9764C117.695 35.7872 115.98 36.1925 114.081 36.1925ZM114.081 31.0502C115.216 31.0502 116.177 30.6333 116.965 29.7994C117.776 28.9655 118.181 27.7726 118.181 26.2206C118.181 24.6687 117.787 23.4758 117 22.6419C116.235 21.808 115.286 21.3911 114.151 21.3911C112.992 21.3911 112.031 21.808 111.267 22.6419C110.502 23.4526 110.12 24.6455 110.12 26.2206C110.12 27.7726 110.491 28.9655 111.232 29.7994C111.996 30.6333 112.946 31.0502 114.081 31.0502ZM133.32 19.758C134.015 18.6925 134.884 17.8586 135.926 17.2564C136.968 16.631 138.127 16.3183 139.401 16.3183V22.6071H137.767C136.285 22.6071 135.173 22.9314 134.432 23.58C133.691 24.2054 133.32 25.3173 133.32 26.9156V35.9146H127.379V16.5267H133.32V19.758ZM160.516 25.9079C160.516 26.4639 160.482 27.0429 160.412 27.6452H146.966C147.058 28.8497 147.441 29.7762 148.112 30.4248C148.807 31.0502 149.653 31.3629 150.649 31.3629C152.131 31.3629 153.162 30.7375 153.741 29.4867H160.065C159.74 30.7607 159.15 31.9073 158.293 32.9265C157.459 33.9457 156.405 34.7448 155.131 35.3239C153.857 35.903 152.432 36.1925 150.857 36.1925C148.958 36.1925 147.267 35.7872 145.784 34.9764C144.302 34.1657 143.144 33.0075 142.31 31.5019C141.476 29.9963 141.059 28.2359 141.059 26.2206C141.059 24.2054 141.464 22.445 142.275 20.9394C143.109 19.4338 144.267 18.2756 145.75 17.4649C147.232 16.6541 148.935 16.2488 150.857 16.2488C152.733 16.2488 154.401 16.6426 155.86 17.4301C157.32 18.2177 158.455 19.3411 159.266 20.8004C160.099 22.2597 160.516 23.9622 160.516 25.9079ZM154.436 24.3444C154.436 23.3252 154.088 22.5145 153.394 21.9122C152.699 21.31 151.83 21.0089 150.788 21.0089C149.792 21.0089 148.946 21.2984 148.251 21.8775C147.58 22.4566 147.163 23.2789 147 24.3444H154.436ZM175.464 16.3183C177.734 16.3183 179.541 17.0595 180.884 18.542C182.251 20.0013 182.934 22.0165 182.934 24.5876V35.9146H177.028V25.3868C177.028 24.0896 176.692 23.082 176.02 22.3639C175.348 21.6459 174.445 21.2868 173.31 21.2868C172.175 21.2868 171.272 21.6459 170.6 22.3639C169.928 23.082 169.592 24.0896 169.592 25.3868V35.9146H163.651V16.5267H169.592V19.0979C170.194 18.2408 171.005 17.5691 172.024 17.0827C173.044 16.5731 174.19 16.3183 175.464 16.3183ZM197.869 30.8765V35.9146H194.846C192.692 35.9146 191.012 35.3934 189.808 34.351C188.603 33.2855 188.001 31.5598 188.001 29.174V21.4606H185.638V16.5267H188.001V11.8014H193.943V16.5267H197.834V21.4606H193.943V29.2435C193.943 29.8226 194.082 30.2395 194.36 30.4943C194.637 30.7491 195.101 30.8765 195.749 30.8765H197.869Z" fill="#9E9E9E"/>
<path fill-rule="evenodd" clip-rule="evenodd" d="M20.8444 30.2162V15.3658H5.99348V30.2162H20.8444ZM26.7858 9.42529H0.0546875V36.1564H26.7858V9.42529Z" fill="#9E9E9E"/>
</svg>
