<svg width="149" height="39" viewBox="0 0 149 39" fill="none" xmlns="http://www.w3.org/2000/svg">
<path d="M38.1203 13.7985C39.2231 14.9014 39.2231 16.6895 38.1203 17.7924L18.0829 37.8296C16.9801 38.9329 15.192 38.9329 14.0891 37.8296L1.47952 25.2201C0.37662 24.1173 0.37662 22.3293 1.47952 21.2264L21.5169 1.18899C22.6198 0.0860925 24.408 0.0860925 25.5108 1.18899L38.1203 13.7985Z" fill="#9E9E9E"/>
<path d="M42.8267 17.7924C43.9295 16.6895 43.9295 14.9014 42.8267 13.7985L33.5547 4.52672L36.8928 1.18899C37.9956 0.0860925 39.7837 0.0860925 40.8865 1.18899L53.496 13.7985C54.5988 14.9014 54.5988 16.6895 53.496 17.7924L33.4587 37.8296C32.3559 38.9329 30.5678 38.9329 29.4645 37.8296L26.127 34.492L42.8267 17.7924Z" fill="#9E9E9E"/>
<path d="M75.609 20.9203C76.6732 21.1188 77.5482 21.651 78.234 22.517C78.9193 23.383 79.2624 24.3753 79.2624 25.4937C79.2624 26.5042 79.0097 27.3971 78.5046 28.1728C78.0175 28.9306 77.3049 29.526 76.3668 29.959C75.4287 30.392 74.3189 30.6085 73.0382 30.6085H64.8926V11.7192H72.6861C73.9673 11.7192 75.0677 11.9267 75.9879 12.3417C76.926 12.7566 77.6296 13.334 78.0984 14.0736C78.5856 14.8133 78.8294 15.6522 78.8294 16.5904C78.8294 17.6909 78.5315 18.611 77.936 19.3507C77.359 20.0904 76.5833 20.6136 75.609 20.9203ZM68.6811 19.5131H72.1448C73.0471 19.5131 73.7418 19.3146 74.229 18.9177C74.7157 18.5028 74.9595 17.9164 74.9595 17.1587C74.9595 16.4009 74.7157 15.8146 74.229 15.3997C73.7418 14.9847 73.0471 14.7772 72.1448 14.7772H68.6811V19.5131ZM72.4969 27.5232C73.4171 27.5232 74.1297 27.3067 74.6347 26.8742C75.1581 26.4411 75.4193 25.8274 75.4193 25.0338C75.4193 24.2219 75.1487 23.5904 74.6074 23.1394C74.0666 22.6703 73.3356 22.4358 72.4154 22.4358H68.6811V27.5232H72.4969Z" fill="#9E9E9E"/>
<path d="M87.8543 30.8518C86.4112 30.8518 85.1121 30.5365 83.9575 29.9048C82.803 29.2553 81.8917 28.3441 81.2243 27.1716C80.5748 25.9991 80.25 24.6459 80.25 23.1123C80.25 21.5788 80.5837 20.2257 81.2511 19.053C81.9369 17.8803 82.866 16.9782 84.0385 16.3468C85.2114 15.6973 86.5194 15.3726 87.9626 15.3726C89.4057 15.3726 90.7137 15.6973 91.8866 16.3468C93.0591 16.9782 93.9792 17.8803 94.6467 19.053C95.3325 20.2257 95.6751 21.5788 95.6751 23.1123C95.6751 24.6459 95.3235 25.9991 94.6198 27.1716C93.9341 28.3441 92.996 29.2553 91.8052 29.9048C90.6327 30.5365 89.3158 30.8518 87.8543 30.8518ZM87.8543 27.5505C88.5401 27.5505 89.1802 27.3881 89.7756 27.0633C90.3889 26.7207 90.8761 26.2152 91.2371 25.5478C91.5981 24.8803 91.7784 24.0684 91.7784 23.1123C91.7784 21.6871 91.3995 20.5955 90.6417 19.8378C89.9022 19.062 88.991 18.6741 87.9084 18.6741C86.8259 18.6741 85.9151 19.062 85.1752 19.8378C84.4536 20.5955 84.0926 21.6871 84.0926 23.1123C84.0926 24.5377 84.4447 25.6381 85.1484 26.4138C85.8699 27.1716 86.7717 27.5505 87.8543 27.5505Z" fill="#9E9E9E"/>
<path d="M101.162 17.9428C101.649 17.149 102.28 16.5265 103.056 16.0755C103.85 15.6244 104.752 15.3989 105.762 15.3989V19.3771H104.761C103.57 19.3771 102.668 19.6567 102.055 20.216C101.459 20.7753 101.162 21.7495 101.162 23.1386V30.6078H97.373V15.6154H101.162V17.9428Z" fill="#9E9E9E"/>
<path d="M106.26 23.0581C106.26 21.5426 106.557 20.1985 107.153 19.0258C107.766 17.8532 108.596 16.9511 109.643 16.3197C110.689 15.6882 111.852 15.3725 113.133 15.3725C114.107 15.3725 115.037 15.589 115.921 16.022C116.805 16.4369 117.509 16.9962 118.031 17.6998V10.5825H121.875V30.6084H118.031V28.3892C117.563 29.1291 116.904 29.7245 116.056 30.1754C115.208 30.6263 114.225 30.8518 113.106 30.8518C111.843 30.8518 110.689 30.527 109.643 29.8779C108.596 29.2284 107.766 28.3172 107.153 27.1442C106.557 25.9539 106.26 24.5917 106.26 23.0581ZM118.059 23.1122C118.059 22.1921 117.878 21.4073 117.517 20.7578C117.156 20.0903 116.669 19.5852 116.056 19.2424C115.443 18.8815 114.784 18.7011 114.081 18.7011C113.377 18.7011 112.727 18.8725 112.132 19.2153C111.537 19.5581 111.049 20.0632 110.67 20.7307C110.31 21.3802 110.129 22.156 110.129 23.0581C110.129 23.9601 110.31 24.7541 110.67 25.4394C111.049 26.1068 111.537 26.6213 112.132 26.9823C112.745 27.3428 113.395 27.5231 114.081 27.5231C114.784 27.5231 115.443 27.3518 116.056 27.0091C116.669 26.6481 117.156 26.1431 117.517 25.4935C117.878 24.8261 118.059 24.0326 118.059 23.1122Z" fill="#9E9E9E"/>
<path d="M138.425 22.7875C138.425 23.3288 138.389 23.8161 138.317 24.2487H127.356C127.447 25.3312 127.825 26.1794 128.493 26.7927C129.16 27.406 129.981 27.7129 130.956 27.7129C132.363 27.7129 133.364 27.1085 133.959 25.8998H138.046C137.613 27.3429 136.783 28.5337 135.556 29.4718C134.329 30.392 132.823 30.8518 131.037 30.8518C129.593 30.8518 128.294 30.5365 127.14 29.9048C126.003 29.2553 125.11 28.3441 124.461 27.1716C123.829 25.9991 123.514 24.6459 123.514 23.1123C123.514 21.5607 123.829 20.1986 124.461 19.0259C125.092 17.8532 125.976 16.9512 127.112 16.3198C128.249 15.6883 129.557 15.3726 131.037 15.3726C132.462 15.3726 133.734 15.6793 134.852 16.2927C135.989 16.9061 136.864 17.7811 137.477 18.9177C138.109 20.0362 138.425 21.3262 138.425 22.7875ZM134.501 21.7051C134.482 20.7308 134.131 19.955 133.445 19.3778C132.76 18.7824 131.92 18.4847 130.928 18.4847C129.99 18.4847 129.197 18.7734 128.547 19.3507C127.915 19.91 127.528 20.6948 127.383 21.7051H134.501Z" fill="#9E9E9E"/>
<path d="M143.9 17.9428C144.387 17.149 145.019 16.5265 145.794 16.0755C146.588 15.6244 147.49 15.3989 148.501 15.3989V19.3771H147.499C146.309 19.3771 145.406 19.6567 144.793 20.216C144.198 20.7753 143.9 21.7495 143.9 23.1386V30.6078H140.111V15.6154H143.9V17.9428Z" fill="#9E9E9E"/>
</svg>
