<svg width="217" height="32" viewBox="0 0 217 32" fill="none" xmlns="http://www.w3.org/2000/svg">
<path d="M41.2168 28.8073V1.20752H46.2635L59.2353 20.6458V1.20752H64.282V28.8073H59.2353L46.2635 9.40859V28.8073H41.2168Z" fill="#9E9E9E"/>
<path d="M77.0432 29.2797C75.0717 29.2797 73.3239 28.8588 71.7994 28.0178C70.2749 27.1768 69.0789 25.9939 68.2113 24.4694C67.3437 22.9445 66.9102 21.1836 66.9102 19.1859C66.9102 17.1619 67.3306 15.3614 68.172 13.7842C69.0392 12.2071 70.2221 10.9848 71.7204 10.1174C73.2449 9.22373 75.0324 8.77686 77.0825 8.77686C79.0017 8.77686 80.6967 9.19743 82.1689 10.0386C83.641 10.8797 84.7842 12.0363 85.5991 13.5082C86.4404 14.9539 86.8609 16.5705 86.8609 18.3579C86.8609 18.647 86.8478 18.9493 86.8213 19.2647C86.8213 19.5802 86.8082 19.9086 86.782 20.2506H71.9176C72.0227 21.7751 72.5483 22.9711 73.4948 23.8383C74.4671 24.7058 75.637 25.1394 77.004 25.1394C78.029 25.1394 78.8831 24.9161 79.5666 24.4694C80.2763 23.9961 80.8019 23.3916 81.1438 22.6557H86.2695C85.9013 23.891 85.2837 25.0212 84.4161 26.0462C83.5751 27.0451 82.5239 27.8337 81.262 28.4121C80.0267 28.9905 78.6205 29.2797 77.0432 29.2797ZM77.0825 12.8774C75.8472 12.8774 74.7563 13.2323 73.8102 13.9419C72.8637 14.6253 72.2591 15.6768 71.9965 17.0962H81.7353C81.6563 15.8082 81.1831 14.7831 80.3159 14.0208C79.4484 13.2585 78.3706 12.8774 77.0825 12.8774Z" fill="#9E9E9E"/>
<path d="M85.9336 28.8069L93.0304 19.0287L85.9336 9.25049H91.3353L96.3031 16.1898L101.232 9.25049H106.673L99.5361 19.0287L106.673 28.8069H101.232L96.3031 21.8676L91.3353 28.8069H85.9336Z" fill="#9E9E9E"/>
<path d="M116.633 28.8062C114.583 28.8062 112.94 28.3068 111.704 27.3079C110.469 26.3091 109.851 24.5347 109.851 21.9851V13.4686H106.5V9.24979H109.851L110.443 4.00586H114.898V9.24979H120.181V13.4686H114.898V22.0244C114.898 22.9709 115.095 23.6278 115.489 23.9959C115.91 24.3375 116.62 24.5085 117.618 24.5085H120.063V28.8062H116.633Z" fill="#9E9E9E"/>
<path d="M122.541 28.8064V9.24999H126.997L127.43 11.8917C128.061 10.9454 128.889 10.1963 129.914 9.64426C130.966 9.066 132.175 8.77686 133.542 8.77686C136.564 8.77686 138.707 9.94658 139.968 12.286C140.678 11.2083 141.624 10.354 142.807 9.72312C144.016 9.0923 145.331 8.77686 146.75 8.77686C149.3 8.77686 151.258 9.53914 152.625 11.0637C153.991 12.5883 154.675 14.8225 154.675 17.7665V28.8064H149.628V18.2396C149.628 16.5574 149.3 15.2694 148.642 14.3757C148.012 13.482 147.026 13.0351 145.686 13.0351C144.319 13.0351 143.215 13.5345 142.374 14.5334C141.559 15.5322 141.151 16.9254 141.151 18.7127V28.8064H136.104V18.2396C136.104 16.5574 135.776 15.2694 135.119 14.3757C134.462 13.482 133.45 13.0351 132.083 13.0351C130.742 13.0351 129.651 13.5345 128.81 14.5334C127.996 15.5322 127.588 16.9254 127.588 18.7127V28.8064H122.541Z" fill="#9E9E9E"/>
<path d="M166.878 29.2797C164.986 29.2797 163.277 28.8457 161.753 27.9785C160.254 27.111 159.058 25.9149 158.164 24.3904C157.297 22.8394 156.863 21.0523 156.863 19.0282C156.863 17.0042 157.31 15.2299 158.204 13.7054C159.097 12.1545 160.293 10.9454 161.792 10.078C163.316 9.21056 165.025 8.77686 166.917 8.77686C168.784 8.77686 170.466 9.21056 171.964 10.078C173.489 10.9454 174.685 12.1545 175.552 13.7054C176.446 15.2299 176.893 17.0042 176.893 19.0282C176.893 21.0523 176.446 22.8394 175.552 24.3904C174.685 25.9149 173.489 27.111 171.964 27.9785C170.44 28.8457 168.744 29.2797 166.878 29.2797ZM166.878 24.903C168.192 24.903 169.336 24.4166 170.308 23.4439C171.281 22.4455 171.767 20.9734 171.767 19.0282C171.767 17.083 171.281 15.6242 170.308 14.6517C169.336 13.6528 168.205 13.1534 166.917 13.1534C165.577 13.1534 164.42 13.6528 163.448 14.6517C162.501 15.6242 162.028 17.083 162.028 19.0282C162.028 20.9734 162.501 22.4455 163.448 23.4439C164.42 24.4166 165.564 24.903 166.878 24.903Z" fill="#9E9E9E"/>
<path d="M183.756 28.8069L176.58 9.25049H181.864L186.831 24.0359L191.8 9.25049H197.083L189.868 28.8069H183.756Z" fill="#9E9E9E"/>
<path d="M206.834 29.2797C204.863 29.2797 203.115 28.8588 201.59 28.0178C200.066 27.1768 198.87 25.9939 198.002 24.4694C197.135 22.9445 196.701 21.1836 196.701 19.1859C196.701 17.1619 197.122 15.3614 197.963 13.7842C198.831 12.2071 200.013 10.9848 201.511 10.1174C203.036 9.22373 204.823 8.77686 206.874 8.77686C208.793 8.77686 210.488 9.19743 211.96 10.0386C213.432 10.8797 214.575 12.0363 215.39 13.5082C216.231 14.9539 216.652 16.5705 216.652 18.3579C216.652 18.647 216.639 18.9493 216.613 19.2647C216.613 19.5802 216.599 19.9086 216.573 20.2506H201.709C201.814 21.7751 202.34 22.9711 203.286 23.8383C204.259 24.7058 205.428 25.1394 206.795 25.1394C207.82 25.1394 208.674 24.9161 209.358 24.4694C210.067 23.9961 210.593 23.3916 210.935 22.6557H216.06C215.692 23.891 215.075 25.0212 214.208 26.0462C213.366 27.0451 212.315 27.8337 211.053 28.4121C209.818 28.9905 208.411 29.2797 206.834 29.2797ZM206.874 12.8774C205.638 12.8774 204.547 13.2323 203.601 13.9419C202.655 14.6253 202.051 15.6768 201.788 17.0962H211.526C211.447 15.8082 210.974 14.7831 210.107 14.0208C209.239 13.2585 208.162 12.8774 206.874 12.8774Z" fill="#9E9E9E"/>
<path d="M16.3308 0.670866V13.1477C16.3308 14.5717 15.1763 15.7262 13.7523 15.7262H1.27546V10.5692H7.52029L0.958984 4.00787L4.60553 0.361328L11.1738 6.92958V0.670866H16.3308Z" fill="#9E9E9E"/>
<path d="M31.5612 15.9028H19.0844C17.6603 15.9028 16.5059 17.0573 16.5059 18.4813V30.9583H21.663V24.7128L28.2246 31.2744L31.871 27.6281L25.303 21.0597H31.5612V15.9028Z" fill="#9E9E9E"/>
</svg>
