<svg width="173" height="52" viewBox="0 0 173 52" fill="none" xmlns="http://www.w3.org/2000/svg">
<path d="M15.9888 40.906C11.6015 40.906 8.25264 39.6859 5.94216 37.2456C3.65765 34.8053 2.51539 31.3396 2.51539 26.8485C2.51539 24.6159 2.86585 22.6299 3.56679 20.8905C4.26772 19.1252 5.22825 17.6455 6.44839 16.4513C7.66853 15.2312 9.12231 14.3096 10.8097 13.6865C12.4972 13.0635 14.3274 12.752 16.3004 12.752C17.4426 12.752 18.481 12.8428 19.4156 13.0245C20.3502 13.1803 21.1679 13.375 21.8689 13.6086C22.5698 13.8163 23.1539 14.037 23.6212 14.2706C24.0885 14.5043 24.426 14.686 24.6337 14.8158L22.8813 19.7223C22.0506 19.281 21.0771 18.9046 19.9608 18.593C18.8704 18.2815 17.6243 18.1258 16.2225 18.1258C15.2879 18.1258 14.3663 18.2815 13.4577 18.593C12.575 18.9046 11.7833 19.4108 11.0823 20.1117C10.4074 20.7867 9.86218 21.6694 9.44682 22.7597C9.03145 23.85 8.82377 25.174 8.82377 26.7316C8.82377 27.9777 8.95357 29.1459 9.21317 30.2363C9.49874 31.3007 9.94006 32.2223 10.5372 33.0011C11.1602 33.7799 11.965 34.4029 12.9515 34.8702C13.938 35.3115 15.1321 35.5322 16.534 35.5322C17.4167 35.5322 18.2085 35.4803 18.9094 35.3764C19.6103 35.2726 20.2334 35.1558 20.7785 35.026C21.3237 34.8702 21.804 34.7015 22.2193 34.5197C22.6347 34.338 23.0111 34.1693 23.3486 34.0135L25.0231 38.8811C24.1664 39.4003 22.9592 39.8676 21.4016 40.283C19.844 40.6983 18.0397 40.906 15.9888 40.906ZM47.2472 30.0805C47.2472 31.6901 47.0135 33.1698 46.5463 34.5197C46.079 35.8437 45.404 36.986 44.5213 37.9465C43.6387 38.8811 42.5743 39.608 41.3282 40.1272C40.1081 40.6464 38.7322 40.906 37.2005 40.906C35.6948 40.906 34.3189 40.6464 33.0728 40.1272C31.8527 39.608 30.8013 38.8811 29.9186 37.9465C29.036 36.986 28.348 35.8437 27.8548 34.5197C27.3615 33.1698 27.1149 31.6901 27.1149 30.0805C27.1149 28.471 27.3615 27.0042 27.8548 25.6802C28.374 24.3563 29.0749 23.227 29.9576 22.2924C30.8662 21.3578 31.9306 20.6309 33.1507 20.1117C34.3968 19.5925 35.7467 19.3329 37.2005 19.3329C38.6803 19.3329 40.0302 19.5925 41.2503 20.1117C42.4964 20.6309 43.5608 21.3578 44.4435 22.2924C45.3261 23.227 46.0141 24.3563 46.5073 25.6802C47.0006 27.0042 47.2472 28.471 47.2472 30.0805ZM41.3282 30.0805C41.3282 28.2893 40.9648 26.8874 40.2379 25.8749C39.5369 24.8365 38.5245 24.3173 37.2005 24.3173C35.8765 24.3173 34.8511 24.8365 34.1242 25.8749C33.3973 26.8874 33.0339 28.2893 33.0339 30.0805C33.0339 31.8718 33.3973 33.2996 34.1242 34.364C34.8511 35.4024 35.8765 35.9216 37.2005 35.9216C38.5245 35.9216 39.5369 35.4024 40.2379 34.364C40.9648 33.2996 41.3282 31.8718 41.3282 30.0805ZM57.5439 40.3608H51.7418V19.8781H57.5439V40.3608ZM58.0891 13.9591C58.0891 15.0235 57.7386 15.8672 57.0377 16.4902C56.3627 17.0873 55.558 17.3859 54.6234 17.3859C53.6888 17.3859 52.8711 17.0873 52.1701 16.4902C51.4952 15.8672 51.1577 15.0235 51.1577 13.9591C51.1577 12.8947 51.4952 12.064 52.1701 11.4669C52.8711 10.8439 53.6888 10.5323 54.6234 10.5323C55.558 10.5323 56.3627 10.8439 57.0377 11.4669C57.7386 12.064 58.0891 12.8947 58.0891 13.9591ZM62.9981 20.579C63.9845 20.2934 65.2566 20.0338 66.8142 19.8002C68.3719 19.5406 70.0074 19.4108 71.7207 19.4108C73.4601 19.4108 74.9009 19.6444 76.0432 20.1117C77.2114 20.5531 78.133 21.1891 78.8079 22.0198C79.4829 22.8505 79.9632 23.837 80.2487 24.9793C80.5343 26.1216 80.6771 27.3936 80.6771 28.7955V40.3608H74.8749V29.4964C74.8749 27.6273 74.6283 26.3033 74.1351 25.5245C73.6418 24.7457 72.7202 24.3563 71.3703 24.3563C70.9549 24.3563 70.5136 24.3822 70.0463 24.4341C69.579 24.4601 69.1636 24.499 68.8002 24.551V40.3608H62.9981V20.579ZM86.3183 40.3608V13.375H104.387V18.4762H92.393V24.1226H103.063V29.2238H92.393V40.3608H86.3183ZM116.467 40.7502C114.779 40.7243 113.404 40.5426 112.339 40.2051C111.301 39.8676 110.47 39.4003 109.847 38.8032C109.25 38.1802 108.834 37.4403 108.601 36.5836C108.393 35.7009 108.289 34.7145 108.289 33.6241V11.0775L114.091 10.1429V32.4559C114.091 32.9751 114.13 33.4424 114.208 33.8578C114.286 34.2731 114.429 34.6236 114.637 34.9092C114.87 35.1947 115.195 35.4284 115.61 35.6101C116.026 35.7918 116.584 35.9086 117.285 35.9606L116.467 40.7502ZM139.769 30.0805C139.769 31.6901 139.536 33.1698 139.068 34.5197C138.601 35.8437 137.926 36.986 137.043 37.9465C136.161 38.8811 135.096 39.608 133.85 40.1272C132.63 40.6464 131.254 40.906 129.722 40.906C128.217 40.906 126.841 40.6464 125.595 40.1272C124.375 39.608 123.323 38.8811 122.441 37.9465C121.558 36.986 120.87 35.8437 120.377 34.5197C119.883 33.1698 119.637 31.6901 119.637 30.0805C119.637 28.471 119.883 27.0042 120.377 25.6802C120.896 24.3563 121.597 23.227 122.48 22.2924C123.388 21.3578 124.453 20.6309 125.673 20.1117C126.919 19.5925 128.269 19.3329 129.722 19.3329C131.202 19.3329 132.552 19.5925 133.772 20.1117C135.018 20.6309 136.083 21.3578 136.965 22.2924C137.848 23.227 138.536 24.3563 139.029 25.6802C139.523 27.0042 139.769 28.471 139.769 30.0805ZM133.85 30.0805C133.85 28.2893 133.487 26.8874 132.76 25.8749C132.059 24.8365 131.046 24.3173 129.722 24.3173C128.398 24.3173 127.373 24.8365 126.646 25.8749C125.919 26.8874 125.556 28.2893 125.556 30.0805C125.556 31.8718 125.919 33.2996 126.646 34.364C127.373 35.4024 128.398 35.9216 129.722 35.9216C131.046 35.9216 132.059 35.4024 132.76 34.364C133.487 33.2996 133.85 31.8718 133.85 30.0805ZM156.268 28.6008C155.749 30.5738 155.191 32.5338 154.594 34.4808C154.023 36.4278 153.413 38.3878 152.764 40.3608H148.247C147.779 39.2705 147.273 37.9725 146.728 36.4668C146.183 34.9611 145.612 33.3256 145.015 31.5603C144.443 29.769 143.846 27.8869 143.223 25.9139C142.626 23.9149 142.042 21.903 141.471 19.8781H147.585C147.792 20.8127 148.013 21.8381 148.247 22.9544C148.506 24.0447 148.766 25.174 149.025 26.3422C149.311 27.5104 149.597 28.6916 149.882 29.8858C150.194 31.054 150.505 32.1833 150.817 33.2736C151.154 32.1314 151.479 30.9632 151.79 29.769C152.128 28.5748 152.439 27.4066 152.725 26.2643C153.036 25.0961 153.322 23.9798 153.581 22.9154C153.867 21.8251 154.114 20.8127 154.321 19.8781H158.527C158.735 20.8127 158.968 21.8251 159.228 22.9154C159.487 23.9798 159.76 25.0961 160.046 26.2643C160.331 27.4066 160.63 28.5748 160.941 29.769C161.253 30.9632 161.577 32.1314 161.915 33.2736C162.226 32.1833 162.538 31.054 162.849 29.8858C163.161 28.6916 163.446 27.5104 163.706 26.3422C163.992 25.174 164.251 24.0447 164.485 22.9544C164.744 21.8381 164.978 20.8127 165.186 19.8781H171.222C170.65 21.903 170.053 23.9149 169.43 25.9139C168.833 27.8869 168.236 29.769 167.639 31.5603C167.068 33.3256 166.497 34.9611 165.926 36.4668C165.38 37.9725 164.874 39.2705 164.407 40.3608H159.89C159.241 38.3878 158.605 36.4278 157.982 34.4808C157.359 32.5338 156.788 30.5738 156.268 28.6008Z" fill="#9E9E9E"/>
</svg>
