<svg width="196" height="33" viewBox="0 0 196 33" fill="none" xmlns="http://www.w3.org/2000/svg">
<path fill-rule="evenodd" clip-rule="evenodd" d="M19.8867 1.15674C16.7582 1.15674 14.2221 3.69286 14.2221 6.82135C14.2221 9.94981 16.7582 12.486 19.8867 12.486C23.0153 12.486 25.5513 9.94981 25.5513 6.82135C25.5513 3.69286 23.0153 1.15674 19.8867 1.15674ZM8.8111 12.1769C14.7076 12.1769 19.4877 16.957 19.4877 22.8536V31.604H14.1772V22.8536C14.1772 22.2255 14.0693 21.6229 13.8711 21.0629L6.07059 28.8634L2.31545 25.1081L9.83795 17.5856C9.50558 17.5212 9.16227 17.4874 8.8111 17.4874H0.0605469V12.1769H8.8111ZM31.0945 12.1769C25.198 12.1769 20.4177 16.957 20.4177 22.8536V31.604H25.7283V22.8536C25.7283 22.3615 25.7945 21.8853 25.9184 21.4325L34.0783 29.5923L37.8336 25.8374L29.6737 17.6775C30.1262 17.5536 30.6027 17.4874 31.0945 17.4874H39.8449V12.1769H31.0945Z" fill="#9E9E9E"/>
<path d="M48.3418 31.9109V1.38623H56.9867L66.2554 27.5438H66.9238V1.38623H71.8701V31.9109H63.4036L53.9119 5.70868H53.2881V31.9109H48.3418Z" fill="#9E9E9E"/>
<path d="M91.6872 27.9006L92.9348 27.7668L93.0241 31.3762C89.6373 32.0595 86.6369 32.4011 84.0226 32.4011C80.7251 32.4011 78.3485 31.4951 76.893 29.6828C75.4669 27.8709 74.7539 24.9741 74.7539 20.9933C74.7539 13.0912 77.9771 9.14014 84.4238 9.14014C90.6623 9.14014 93.7817 12.5417 93.7817 19.3445L93.4698 22.8205H79.6556C79.6853 24.6622 80.0864 26.0139 80.8589 26.8756C81.6311 27.737 83.072 28.1679 85.1814 28.1679C87.2904 28.1679 89.4592 28.0787 91.6872 27.9006ZM89.0135 19.0772C89.0135 16.879 88.657 15.349 87.944 14.4875C87.261 13.5963 86.0874 13.1507 84.4238 13.1507C82.7601 13.1507 81.5422 13.6111 80.7697 14.5321C80.027 15.453 79.6407 16.9681 79.6113 19.0772H89.0135Z" fill="#9E9E9E"/>
<path d="M108.209 13.7746H102.059V23.5782C102.059 25.3901 102.193 26.5935 102.46 27.1876C102.728 27.7817 103.411 28.0787 104.51 28.0787L108.164 27.9452L108.387 31.8219C106.396 32.2082 104.882 32.4011 103.842 32.4011C101.317 32.4011 99.5787 31.8219 98.6281 30.6632C97.7069 29.5048 97.2467 27.3211 97.2467 24.1128V13.7746H94.3945V9.63036H97.2467V3.16895H102.059V9.63036H108.209V13.7746Z" fill="#9E9E9E"/>
<path d="M108.229 9.63086H112.997L116.517 27.7673H117.408L121.642 10.0765H126.632L130.866 27.7673H131.757L135.233 9.63086H140.045L135.322 31.9117H127.613L124.137 16.627L120.661 31.9117H112.952L108.229 9.63086Z" fill="#9E9E9E"/>
<path d="M143.146 12.0361C144.69 10.1051 147.245 9.13965 150.81 9.13965C154.375 9.13965 156.915 10.1051 158.43 12.0361C159.975 13.9671 160.747 16.8636 160.747 20.7255C160.747 24.5877 160.005 27.499 158.519 29.4596C157.034 31.4203 154.464 32.4006 150.81 32.4006C147.156 32.4006 144.586 31.4203 143.101 29.4596C141.615 27.499 140.873 24.5877 140.873 20.7255C140.873 16.8636 141.63 13.9671 143.146 12.0361ZM146.8 26.5186C147.483 27.7068 148.82 28.3009 150.81 28.3009C152.801 28.3009 154.137 27.7068 154.821 26.5186C155.504 25.3301 155.846 23.3843 155.846 20.6809C155.846 17.9778 155.474 16.0615 154.732 14.9326C154.018 13.8037 152.711 13.2393 150.81 13.2393C148.909 13.2393 147.587 13.8037 146.844 14.9326C146.131 16.0615 145.775 17.9778 145.775 20.6809C145.775 23.3843 146.116 25.3301 146.8 26.5186Z" fill="#9E9E9E"/>
<path d="M163.344 31.9106V9.62985H168.157V12.3035C170.682 10.6696 173.207 9.61498 175.732 9.13965V13.9968C173.177 14.5019 170.993 15.1554 169.181 15.9575L168.201 16.3586V31.9106H163.344Z" fill="#9E9E9E"/>
<path d="M182.074 31.9109H177.217V0.361328H182.074V18.587L184.837 18.3197L190.095 9.63008H195.532L189.115 20.0573L195.888 31.9109H190.407L184.971 22.5083L182.074 22.8202V31.9109Z" fill="#9E9E9E"/>
</svg>
