<svg width="238" height="47" viewBox="0 0 238 47" fill="none" xmlns="http://www.w3.org/2000/svg">
<path d="M61.647 14.9571C64.1903 14.9571 66.3136 15.2604 68.017 15.867C69.7203 16.4737 71.0736 17.302 72.077 18.3521C73.1036 19.3787 73.827 20.5687 74.247 21.9221C74.6903 23.2754 74.912 24.6987 74.912 26.1921C74.912 27.6854 74.667 29.1204 74.177 30.4971C73.7103 31.8737 72.952 33.0987 71.902 34.1721C70.8753 35.2221 69.5103 36.0621 67.807 36.6921C66.127 37.2987 64.0736 37.6021 61.647 37.6021H48.697V14.9571H61.647ZM53.352 33.6121H61.542C63.222 33.6121 64.6103 33.4137 65.707 33.0171C66.827 32.5971 67.7136 32.0371 68.367 31.3371C69.0203 30.6371 69.487 29.8437 69.767 28.9571C70.047 28.0704 70.187 27.1487 70.187 26.1921C70.187 25.2354 70.047 24.3254 69.767 23.4621C69.487 22.5987 69.0203 21.8287 68.367 21.152C67.7136 20.4754 66.827 19.9387 65.707 19.542C64.6103 19.1454 63.222 18.947 61.542 18.947H53.352V33.6121ZM84.0787 12.577V16.5671H78.7937V12.577H84.0787ZM79.1437 20.2071H83.6937V37.6021H79.1437V20.2071ZM96.9089 34.9421C95.0189 34.9421 93.3506 34.6621 91.9039 34.1021C90.4806 33.5187 89.3722 32.6671 88.5789 31.5471C87.7856 30.4271 87.3889 29.0737 87.3889 27.4871C87.3889 25.9237 87.7739 24.5704 88.5439 23.427C89.3139 22.2837 90.4106 21.397 91.8339 20.767C93.2806 20.137 94.9722 19.8221 96.9089 19.8221C97.4456 19.8221 97.9589 19.8571 98.4489 19.9271C98.9622 19.9971 99.4639 20.0904 99.9539 20.2071L108.739 20.2421V23.672C107.549 23.6954 106.336 23.5554 105.099 23.252C103.886 22.9254 102.812 22.5754 101.879 22.202L101.774 21.957C102.567 22.3304 103.314 22.7971 104.014 23.3571C104.714 23.8937 105.274 24.5237 105.694 25.2471C106.137 25.9471 106.359 26.7637 106.359 27.6971C106.359 29.2137 105.974 30.5204 105.204 31.6171C104.434 32.6904 103.337 33.5187 101.914 34.1021C100.514 34.6621 98.8456 34.9421 96.9089 34.9421ZM102.754 44.7771V43.9371C102.754 42.8637 102.404 42.1171 101.704 41.6971C101.027 41.2771 100.094 41.0671 98.9039 41.0671H93.4789C92.4289 41.0671 91.5422 40.9854 90.8189 40.8221C90.1189 40.6587 89.5589 40.4254 89.1389 40.1221C88.7189 39.8187 88.4156 39.4571 88.2289 39.0371C88.0422 38.6404 87.9489 38.2087 87.9489 37.7421C87.9489 36.8087 88.2522 36.1087 88.8589 35.6421C89.4656 35.1521 90.2822 34.8254 91.3089 34.6621C92.3356 34.4987 93.4672 34.4637 94.7039 34.5571L96.9089 34.9421C95.4389 34.9887 94.3422 35.1171 93.6189 35.3271C92.9189 35.5137 92.5689 35.8987 92.5689 36.4821C92.5689 36.8321 92.7089 37.1121 92.9889 37.3221C93.2689 37.5087 93.6656 37.6021 94.1789 37.6021H99.8839C101.447 37.6021 102.777 37.7654 103.874 38.0921C104.994 38.4421 105.846 39.0137 106.429 39.8071C107.012 40.6237 107.304 41.7321 107.304 43.1321V44.7771H102.754ZM96.9089 31.6521C97.9122 31.6521 98.7872 31.4887 99.5339 31.1621C100.304 30.8354 100.899 30.3687 101.319 29.7621C101.739 29.1321 101.949 28.3854 101.949 27.5221C101.949 26.6354 101.739 25.8771 101.319 25.2471C100.899 24.6171 100.316 24.1387 99.5689 23.812C98.8222 23.4621 97.9356 23.2871 96.9089 23.2871C95.9056 23.2871 95.0189 23.4621 94.2489 23.812C93.4789 24.1387 92.8839 24.6171 92.4639 25.2471C92.0439 25.8771 91.8339 26.6354 91.8339 27.5221C91.8339 28.3854 92.0439 29.1321 92.4639 29.7621C92.8839 30.3687 93.4672 30.8354 94.2139 31.1621C94.9839 31.4887 95.8822 31.6521 96.9089 31.6521ZM116.925 12.577V16.5671H111.64V12.577H116.925ZM111.99 20.2071H116.54V37.6021H111.99V20.2071ZM119.851 20.2071H133.361V23.742H119.851V20.2071ZM124.331 15.4471H128.881V37.6021H124.331V15.4471ZM141.466 12.577V16.5671H136.181V12.577H141.466ZM136.531 20.2071H141.081V37.6021H136.531V20.2071ZM168.297 14.9571V18.8421H150.867V24.9321H165.147V28.5721H150.867V37.6021H146.212V14.9571H168.297ZM171.909 13.207H176.459V37.6021H171.909V13.207ZM191.316 38.0221C189.123 38.0221 187.186 37.6721 185.506 36.9721C183.849 36.2721 182.554 35.2571 181.621 33.9271C180.688 32.5737 180.221 30.9171 180.221 28.9571C180.221 26.997 180.688 25.3404 181.621 23.987C182.554 22.6104 183.849 21.5721 185.506 20.8721C187.186 20.1721 189.123 19.8221 191.316 19.8221C193.509 19.8221 195.423 20.1721 197.056 20.8721C198.713 21.5721 200.008 22.6104 200.941 23.987C201.874 25.3404 202.341 26.997 202.341 28.9571C202.341 30.9171 201.874 32.5737 200.941 33.9271C200.008 35.2571 198.713 36.2721 197.056 36.9721C195.423 37.6721 193.509 38.0221 191.316 38.0221ZM191.316 34.5221C192.529 34.5221 193.614 34.3121 194.571 33.8921C195.551 33.4487 196.321 32.8187 196.881 32.0021C197.441 31.1621 197.721 30.1471 197.721 28.9571C197.721 27.7671 197.441 26.7521 196.881 25.9121C196.321 25.0487 195.563 24.3954 194.606 23.9521C193.649 23.5087 192.553 23.2871 191.316 23.2871C190.103 23.2871 189.006 23.5087 188.026 23.9521C187.046 24.3954 186.264 25.0371 185.681 25.8771C185.121 26.7171 184.841 27.7437 184.841 28.9571C184.841 30.1471 185.121 31.1621 185.681 32.0021C186.241 32.8187 187.011 33.4487 187.991 33.8921C188.971 34.3121 190.079 34.5221 191.316 34.5221ZM227.701 34.4521L226.266 34.4171L231.936 20.2071H236.941L229.276 37.6021H225.006L219.406 23.567H220.946L215.171 37.6021H210.901L203.446 20.2071H208.451L213.911 34.4521H212.476L217.586 20.2071H222.801L227.701 34.4521Z" fill="#1C1C1C"/>
<path d="M23.2498 40.1814C23.9958 46.6105 30.6261 44.4188 30.8954 40.7385L32.2808 18.0175L24.4374 21.7772L23.2498 40.1814Z" fill="#FFDAC4"/>
<path d="M8.30122 21.2294C2.32534 18.7035 1.01259 25.5555 4.09467 27.6073L23.2568 40.0335L23.7909 31.3516L8.30122 21.2294Z" fill="#454545"/>
<path d="M32.8774 17.7127C38.1114 13.9209 32.9108 9.23184 29.569 10.7975L9.07598 20.7038L8.15662 21.1445L15.6974 26.0477L32.8774 17.7127Z" fill="#1C1C1C"/>
</svg>
