<svg width="60" height="60" viewBox="0 0 60 60" fill="none" xmlns="http://www.w3.org/2000/svg">
<path d="M18.9468 39.9536L6.83896 35.5005C6.48293 35.3691 6.17574 35.1317 5.95878 34.8203C5.74181 34.509 5.62549 34.1386 5.62549 33.7591C5.62549 33.3796 5.74181 33.0092 5.95878 32.6978C6.17574 32.3865 6.48293 32.1491 6.83896 32.0177L18.9468 27.5645C19.1989 27.4722 19.4278 27.3261 19.6177 27.1362C19.8075 26.9464 19.9537 26.7174 20.046 26.4653L24.4991 14.3575C24.6305 14.0015 24.8679 13.6943 25.1793 13.4773C25.4906 13.2604 25.861 13.144 26.2405 13.144C26.62 13.144 26.9904 13.2604 27.3018 13.4773C27.6131 13.6943 27.8505 14.0015 27.9819 14.3575L32.435 26.4653C32.5274 26.7174 32.6735 26.9464 32.8634 27.1362C33.0532 27.3261 33.2822 27.4722 33.5343 27.5645L45.6421 32.0177C45.9981 32.1491 46.3053 32.3865 46.5223 32.6978C46.7392 33.0092 46.8555 33.3796 46.8555 33.7591C46.8555 34.1386 46.7392 34.509 46.5223 34.8203C46.3053 35.1317 45.9981 35.3691 45.6421 35.5005L33.5343 39.9536C33.2822 40.0459 33.0532 40.1921 32.8634 40.3819C32.6735 40.5718 32.5274 40.8007 32.435 41.0528L27.9819 53.1606C27.8505 53.5167 27.6131 53.8238 27.3018 54.0408C26.9904 54.2578 26.62 54.3741 26.2405 54.3741C25.861 54.3741 25.4906 54.2578 25.1793 54.0408C24.8679 53.8238 24.6305 53.5167 24.4991 53.1606L20.046 41.0528C19.9537 40.8007 19.8075 40.5718 19.6177 40.3819C19.4278 40.1921 19.1989 40.0459 18.9468 39.9536Z" stroke="#101010" stroke-width="2" stroke-linecap="round" stroke-linejoin="round"/>
<path d="M41.25 3.75V15" stroke="#101010" stroke-width="2" stroke-linecap="round" stroke-linejoin="round"/>
<path d="M52.5 16.875V24.375" stroke="#101010" stroke-width="2" stroke-linecap="round" stroke-linejoin="round"/>
<path d="M35.625 9.375H46.875" stroke="#101010" stroke-width="2" stroke-linecap="round" stroke-linejoin="round"/>
<path d="M48.75 20.625H56.25" stroke="#101010" stroke-width="2" stroke-linecap="round" stroke-linejoin="round"/>
</svg>
