<svg width="60" height="59" viewBox="0 0 60 59" fill="none" xmlns="http://www.w3.org/2000/svg">
<path d="M12.4138 37.4311C15.5561 37.4311 18.1034 34.8837 18.1034 31.7414C18.1034 28.5991 15.5561 26.0518 12.4138 26.0518C9.27147 26.0518 6.72412 28.5991 6.72412 31.7414C6.72412 34.8837 9.27147 37.4311 12.4138 37.4311Z" stroke="black" stroke-width="2" stroke-linecap="round" stroke-linejoin="round"/>
<path d="M29.6897 26.3793C32.832 26.3793 35.3793 23.832 35.3793 20.6897C35.3793 17.5473 32.832 15 29.6897 15C26.5473 15 24 17.5473 24 20.6897C24 23.832 26.5473 26.3793 29.6897 26.3793Z" stroke="black" stroke-width="2" stroke-linecap="round" stroke-linejoin="round"/>
<path d="M47.5861 46.7416C50.7284 46.7416 53.2758 44.1943 53.2758 41.052C53.2758 37.9097 50.7284 35.3623 47.5861 35.3623C44.4438 35.3623 41.8965 37.9097 41.8965 41.052C41.8965 44.1943 44.4438 46.7416 47.5861 46.7416Z" stroke="black" stroke-width="2" stroke-linecap="round" stroke-linejoin="round"/>
<path d="M12.9312 9.5V26.0517" stroke="black" stroke-width="2" stroke-linecap="round" stroke-linejoin="round"/>
<path d="M47.0688 9.5V35.3621" stroke="black" stroke-width="2" stroke-linecap="round" stroke-linejoin="round"/>
<path d="M30 8V14.2069" stroke="black" stroke-width="2" stroke-linecap="round" stroke-linejoin="round"/>
<path d="M12.9312 38.4653V51.9136" stroke="black" stroke-width="2" stroke-linecap="round" stroke-linejoin="round"/>
<path d="M47.0688 46.7412V51.9136" stroke="black" stroke-width="2" stroke-linecap="round" stroke-linejoin="round"/>
<path d="M30 27.0864V52.9485" stroke="black" stroke-width="2" stroke-linecap="round" stroke-linejoin="round"/>
</svg>
