<svg width="65" height="65" viewBox="0 0 65 65" fill="none" xmlns="http://www.w3.org/2000/svg">
<path d="M6.09375 46.7189V40.9121C6.09375 26.3175 17.8115 14.2697 32.4061 14.2189C35.8817 14.2066 39.3255 14.8804 42.5401 16.2019C45.7547 17.5234 48.6768 19.4666 51.1389 21.9198C53.6009 24.3731 55.5543 27.2883 56.8872 30.4982C58.2202 33.7081 58.9063 37.1495 58.9062 40.6252V46.7189C58.9062 47.2576 58.6922 47.7743 58.3113 48.1552C57.9304 48.5362 57.4137 48.7502 56.875 48.7502H8.125C7.58628 48.7502 7.06962 48.5362 6.68869 48.1552C6.30776 47.7743 6.09375 47.2576 6.09375 46.7189Z" stroke="black" stroke-width="2" stroke-linecap="round" stroke-linejoin="round"/>
<path d="M32.5 14.2188V22.3438" stroke="black" stroke-width="2" stroke-linecap="round" stroke-linejoin="round"/>
<path d="M26.4062 48.75L42.6562 26.4062" stroke="black" stroke-width="2" stroke-linecap="round" stroke-linejoin="round"/>
<path d="M50.7812 36.5625H58.5965" stroke="black" stroke-width="2" stroke-linecap="round" stroke-linejoin="round"/>
<path d="M6.44653 36.5625H14.2186" stroke="black" stroke-width="2" stroke-linecap="round" stroke-linejoin="round"/>
</svg>
