<svg width="126" height="69" viewBox="0 0 126 69" fill="none" xmlns="http://www.w3.org/2000/svg">
<path d="M17.5605 29.6415C17.6998 29.7808 17.8104 29.9461 17.8858 30.1282C17.9612 30.3102 18 30.5053 18 30.7023C18 30.8993 17.9612 31.0944 17.8858 31.2764C17.8104 31.4584 17.6998 31.6238 17.5605 31.7631L17.1217 32.2019C16.9824 32.3412 16.8171 32.4517 16.635 32.5271C16.453 32.6026 16.2579 32.6414 16.0609 32.6414C15.8639 32.6414 15.6688 32.6026 15.4868 32.5271C15.3047 32.4517 15.1394 32.3412 15.0001 32.2019L9.82006 27.0229L7.76869 31.7425C7.65374 32.0102 7.46258 32.2382 7.21903 32.398C6.97547 32.5579 6.69026 32.6426 6.39892 32.6416H6.3258C6.02205 32.6289 5.72956 32.5231 5.48791 32.3387C5.24626 32.1542 5.06714 31.8999 4.97478 31.6103L0.0741803 16.6021C-0.0117707 16.3395 -0.0232742 16.0582 0.0409462 15.7894C0.105167 15.5207 0.242599 15.275 0.437992 15.0796C0.633386 14.8842 0.879097 14.7468 1.14786 14.6825C1.41662 14.6183 1.69792 14.6298 1.96054 14.7158L16.9689 19.6163C17.2558 19.7123 17.5069 19.8927 17.6894 20.1339C17.8718 20.3751 17.9771 20.6659 17.9914 20.968C18.0057 21.2701 17.9284 21.5695 17.7695 21.8269C17.6106 22.0843 17.3776 22.2876 17.1011 22.4102L12.3815 24.4615L17.5605 29.6415Z" fill="#C548FF"/>
<rect x="11.8755" y="27.4971" width="106.241" height="42.7469" rx="21.3735" transform="rotate(-15 11.8755 27.4971)" fill="#C548FF"/>
<path d="M40.8889 46.6133L40.4953 45.1442L42.9062 44.4981C43.375 44.3725 43.7374 44.1678 43.9933 43.8839C44.2469 43.5916 44.4006 43.2274 44.4542 42.7913C44.5078 42.3553 44.4584 41.8526 44.3059 41.2833C44.1802 40.8146 44.0223 40.4262 43.8322 40.1182C43.6397 39.8019 43.4139 39.5619 43.1547 39.3981C42.9038 39.232 42.6131 39.1349 42.2826 39.1068C41.9604 39.0765 41.5984 39.1152 41.1966 39.2229L39.0619 39.7949L38.6683 38.3257L40.7402 37.7705C41.7447 37.5013 42.6089 37.4448 43.3326 37.6008C44.0563 37.7568 44.6507 38.1 45.1158 38.6303C45.5787 39.1523 45.9234 39.8361 46.1499 40.6816C46.3204 41.3178 46.3931 41.8905 46.368 42.3997C46.343 42.9088 46.2444 43.3614 46.0724 43.7574C45.9087 44.1512 45.6864 44.4934 45.4054 44.7841C45.1244 45.0747 44.8078 45.3165 44.4558 45.5095C44.1037 45.7026 43.7352 45.8507 43.3501 45.9539L40.8889 46.6133ZM40.0225 46.8455L37.8018 38.5578L39.61 38.0733L41.8307 46.361L40.0225 46.8455ZM51.838 43.868C51.2939 44.0138 50.7881 44.0685 50.3208 44.0322C49.8619 43.9937 49.4478 43.8714 49.0785 43.6653C48.7092 43.4591 48.389 43.1681 48.1178 42.7922C47.855 42.414 47.6529 41.9612 47.5116 41.4338C47.3725 40.9148 47.3158 40.4185 47.3415 39.9451C47.3733 39.461 47.4889 39.0218 47.6882 38.6274C47.8854 38.2247 48.1655 37.8804 48.5286 37.5947C48.8917 37.309 49.3327 37.0966 49.8518 36.9576C50.3541 36.823 50.8244 36.7867 51.2627 36.8487C51.6987 36.9023 52.0903 37.0576 52.4373 37.3146C52.7926 37.5693 53.0928 37.9195 53.3379 38.3653C53.5891 38.8004 53.7798 39.328 53.9101 39.9481L48.75 41.3846L48.4842 40.3926L52.6054 39.2479L52.0996 39.9218C52.0393 39.4624 51.9124 39.1061 51.7189 38.8529C51.5255 38.5997 51.2978 38.4364 51.0359 38.363C50.7823 38.2874 50.5216 38.2854 50.2537 38.3572C49.9356 38.4425 49.6776 38.6013 49.4797 38.8338C49.2818 39.0663 49.1596 39.3637 49.1131 39.7261C49.0644 40.0801 49.1007 40.4831 49.2218 40.9351C49.4124 41.6467 49.7075 42.1284 50.107 42.3803C50.5148 42.6299 50.9741 42.6863 51.4847 42.5495C51.7191 42.4867 51.908 42.4046 52.0513 42.3034C52.2008 42.1916 52.3123 42.072 52.3859 41.9446C52.4678 41.815 52.5212 41.6796 52.5462 41.5383C52.5795 41.3948 52.6003 41.2546 52.6085 41.1178L54.2689 41.0363C54.2766 41.3662 54.2387 41.6769 54.1553 41.9685C54.0781 42.2494 53.9427 42.5144 53.7493 42.7636C53.5536 43.0045 53.2965 43.2169 52.978 43.401C52.67 43.5912 52.29 43.7468 51.838 43.868ZM58.781 42.0076C58.3373 42.1265 57.9242 42.1923 57.5418 42.205C57.1594 42.2178 56.8172 42.1794 56.515 42.0899C56.2129 42.0003 55.9532 41.8681 55.7358 41.693C55.5162 41.5096 55.3442 41.2865 55.22 41.0237L56.4498 40.0885C56.5327 40.2637 56.6707 40.4107 56.864 40.5294C57.0573 40.648 57.293 40.724 57.5711 40.7571C57.8553 40.7797 58.1773 40.7427 58.5373 40.6463C58.9224 40.5431 59.205 40.409 59.3851 40.2441C59.563 40.0709 59.6239 39.8796 59.5678 39.6703C59.5252 39.5112 59.433 39.4014 59.2911 39.3407C59.1492 39.28 58.9563 39.2465 58.7123 39.2401C58.4684 39.2337 58.1795 39.2438 57.8456 39.2704C57.5157 39.2781 57.1763 39.2838 56.8274 39.2875C56.4868 39.2891 56.1583 39.2515 55.8416 39.1748C55.5334 39.0959 55.2588 38.9586 55.018 38.763C54.7832 38.5567 54.6143 38.261 54.5111 37.8759C54.4034 37.4741 54.4181 37.0933 54.555 36.7337C54.6919 36.374 54.9472 36.0543 55.3209 35.7748C55.6923 35.4868 56.1794 35.2621 56.7822 35.1006C57.3263 34.9548 57.8237 34.9023 58.2742 34.943C58.7226 34.9754 59.1135 35.095 59.447 35.3017C59.7867 35.4978 60.053 35.7719 60.2461 36.1239L58.9081 37.0073C58.8208 36.8154 58.69 36.662 58.5157 36.5472C58.3497 36.4302 58.1478 36.3631 57.91 36.3461C57.6805 36.3268 57.4235 36.3553 57.1388 36.4316C56.7789 36.5281 56.5141 36.6618 56.3446 36.8328C56.1835 37.0016 56.1287 37.1823 56.1803 37.3748C56.2229 37.5339 56.3205 37.6468 56.473 37.7136C56.6338 37.7782 56.8404 37.8126 57.0928 37.8167C57.3429 37.8125 57.6359 37.8013 57.972 37.783C58.3248 37.7603 58.6726 37.7523 59.0154 37.7592C59.3559 37.7576 59.6708 37.7944 59.9601 37.8694C60.2577 37.9422 60.5133 38.0756 60.7268 38.2696C60.9403 38.4636 61.0964 38.7448 61.1951 39.1131C61.3117 39.5485 61.2955 39.9566 61.1463 40.3375C60.9949 40.71 60.7198 41.0395 60.321 41.3258C59.9221 41.6121 59.4088 41.8394 58.781 42.0076ZM62.9517 40.7016L61.1853 34.1092L62.9935 33.6247L64.76 40.2171L62.9517 40.7016ZM61.8362 32.8715C61.4846 32.9658 61.1934 32.9675 60.9627 32.8768C60.7382 32.7754 60.5878 32.5825 60.5115 32.2978C60.433 32.0048 60.4657 31.7583 60.6095 31.5583C60.7616 31.356 61.0135 31.2078 61.3651 31.1136C61.7251 31.0171 62.0173 31.0196 62.2419 31.1209C62.4748 31.22 62.6305 31.416 62.709 31.709C62.783 31.9853 62.744 32.2245 62.5918 32.4268C62.448 32.6269 62.1961 32.7751 61.8362 32.8715ZM69.6619 41.3665C68.942 41.5595 68.3319 41.6601 67.8317 41.6685C67.3422 41.6831 66.9594 41.6107 66.6834 41.4513C66.4074 41.292 66.2257 41.0491 66.1382 40.7226C66.035 40.3375 66.1016 39.9832 66.3379 39.6597C66.5826 39.3339 66.9954 39.0663 67.5763 38.8568L67.509 38.6057C67.057 38.7268 66.6972 38.7739 66.4298 38.7468C66.1601 38.7114 65.9927 38.5723 65.9277 38.3296C65.8649 38.0952 65.926 37.8545 66.111 37.6075C66.3045 37.3583 66.6628 37.1052 67.1862 36.8484L67.1189 36.5972C66.5909 36.7028 66.14 36.6442 65.7663 36.4213C65.3925 36.1985 65.1417 35.8484 65.0139 35.3713C64.9017 34.9527 64.9191 34.5488 65.066 34.1595C65.2107 33.7618 65.4874 33.405 65.8963 33.0891C66.3112 32.7626 66.8578 32.5085 67.5358 32.3268L70.876 31.4318L71.2461 32.8131L69.0968 33.0794L69.1742 33.3682C69.7302 33.3 70.1511 33.3308 70.4371 33.4605C70.7315 33.588 70.9247 33.8234 71.0166 34.1666C71.1086 34.5098 71.0763 34.8415 70.9198 35.1615C70.7633 35.4816 70.496 35.7731 70.1178 36.0359C69.7457 36.2881 69.2709 36.4916 68.6933 36.6464C68.5845 36.6756 68.4661 36.7028 68.3383 36.7281C68.2105 36.7533 67.9956 36.7885 67.6936 36.8335C67.566 36.9933 67.4685 37.1316 67.4011 37.2484C67.3398 37.3545 67.3192 37.4453 67.3394 37.5206C67.3551 37.5792 67.3979 37.6216 67.4677 37.6477C67.5459 37.6717 67.6374 37.6785 67.7424 37.6684C67.8557 37.6559 67.9668 37.6351 68.0756 37.606L69.9591 37.1013C70.1266 37.0564 70.3476 37.0107 70.6222 36.964C70.8946 36.909 71.1793 36.9 71.4763 36.937C71.7734 36.9741 72.0465 37.0893 72.2957 37.2827C72.5427 37.4678 72.7256 37.7821 72.8445 38.2258C72.9746 38.7114 72.9442 39.1502 72.7531 39.5423C72.5705 39.9322 72.2189 40.2776 71.6984 40.5786C71.1863 40.8774 70.5075 41.14 69.6619 41.3665ZM69.4759 39.8687C69.9866 39.7318 70.3764 39.596 70.6453 39.4611C70.9165 39.3346 71.0938 39.1929 71.1774 39.0359C71.2715 38.8851 71.2939 38.7176 71.2446 38.5334C71.1997 38.366 71.1273 38.2463 71.0273 38.1744C70.9356 38.1003 70.8267 38.0621 70.7006 38.0601C70.5805 38.0474 70.4608 38.0525 70.3413 38.0756C70.228 38.088 70.1295 38.1054 70.0458 38.1278L68.4636 38.5518C68.121 38.6795 67.8914 38.8442 67.775 39.0458C67.6647 39.2369 67.6365 39.4329 67.6903 39.6338C67.7396 39.818 67.8353 39.9404 67.9771 40.0011C68.119 40.0618 68.3116 40.0774 68.555 40.0481C68.809 40.0249 69.116 39.9651 69.4759 39.8687ZM68.3405 35.7316C68.7423 35.6239 69.0179 35.4469 69.1672 35.2005C69.3143 34.9457 69.3452 34.6593 69.26 34.3412C69.1702 34.0063 68.9916 33.7581 68.724 33.5966C68.4647 33.4327 68.1384 33.4035 67.7449 33.509C67.3599 33.6121 67.0876 33.8017 66.9283 34.0777C66.7667 34.3453 66.7308 34.6465 66.8205 34.9814C66.8766 35.1907 66.9731 35.3667 67.1101 35.5094C67.2531 35.6416 67.4291 35.729 67.6379 35.7718C67.8468 35.8145 68.081 35.8011 68.3405 35.7316ZM73.9759 37.7477L72.906 33.7546L72.2095 31.1552L73.6912 30.7582L74.2069 32.733L74.4581 32.6657C74.439 32.1594 74.4873 31.7203 74.603 31.3483C74.7187 30.9764 74.9059 30.6705 75.1647 30.4307C75.4318 30.1887 75.7746 30.0116 76.1932 29.8994C76.955 29.6953 77.6044 29.8084 78.1414 30.2387C78.6868 30.6668 79.1131 31.4543 79.4204 32.6012L80.3423 36.0418L78.5216 36.5297L77.6535 33.29C77.4651 32.5868 77.2236 32.1042 76.9291 31.8421C76.6407 31.5695 76.2998 31.4859 75.9063 31.5913C75.5715 31.681 75.3191 31.8608 75.1491 32.1307C74.9792 32.4005 74.8816 32.7227 74.8563 33.0974C74.8372 33.4614 74.8796 33.8538 74.9834 34.2746L75.7841 37.2632L73.9759 37.7477ZM85.0087 34.9799C84.4645 35.1257 83.9588 35.1805 83.4915 35.1442C83.0326 35.1056 82.6185 34.9833 82.2492 34.7772C81.8799 34.5711 81.5597 34.28 81.2885 33.9041C81.0256 33.5259 80.8236 33.0731 80.6822 32.5457C80.5432 32.0267 80.4865 31.5305 80.5121 31.057C80.5439 30.573 80.6595 30.1337 80.8589 29.7394C81.0561 29.3366 81.3362 28.9924 81.6993 28.7067C82.0624 28.421 82.5034 28.2086 83.0225 28.0695C83.5247 27.9349 83.995 27.8986 84.4334 27.9606C84.8694 28.0143 85.261 28.1695 85.608 28.4265C85.9633 28.6812 86.2635 29.0314 86.5086 29.4772C86.7598 29.9123 86.9505 30.44 87.0807 31.06L81.9207 32.4965L81.6549 31.5045L85.7761 30.3599L85.2702 31.0337C85.21 30.5744 85.0831 30.218 84.8896 29.9648C84.6962 29.7116 84.4685 29.5483 84.2066 29.4749C83.953 29.3993 83.6923 29.3974 83.4244 29.4692C83.1063 29.5544 82.8483 29.7133 82.6504 29.9457C82.4525 30.1782 82.3303 30.4756 82.2838 30.838C82.2351 31.192 82.2713 31.595 82.3925 32.0471C82.5831 32.7587 82.8782 33.2404 83.2777 33.4922C83.6855 33.7418 84.1447 33.7982 84.6554 33.6614C84.8898 33.5986 85.0787 33.5166 85.222 33.4154C85.3715 33.3035 85.483 33.1839 85.5565 33.0566C85.6385 32.9269 85.6919 32.7915 85.7168 32.6502C85.7502 32.5067 85.7709 32.3666 85.7791 32.2298L87.4396 32.1482C87.4473 32.4782 87.4094 32.7889 87.326 33.0804C87.2487 33.3613 87.1134 33.6264 86.92 33.8756C86.7243 34.1164 86.4672 34.3289 86.1487 34.5129C85.8407 34.7031 85.4607 34.8588 85.0087 34.9799ZM89.194 33.67L88.3394 30.4805L87.4275 27.0776L88.9218 26.6772L89.5367 28.9215L89.7752 28.8576C89.6919 28.2788 89.6827 27.7923 89.7475 27.398C89.8207 27.0016 89.9814 26.6804 90.2296 26.4345C90.4777 26.1885 90.8194 26.0072 91.2547 25.8906C91.3301 25.8704 91.4107 25.8533 91.4967 25.8392C91.5888 25.8145 91.6968 25.7991 91.8207 25.7928L92.2601 27.7342C92.1189 27.7092 91.9695 27.7044 91.8121 27.7197C91.6547 27.7349 91.5174 27.7582 91.4002 27.7896C91.0737 27.8771 90.8135 28.0276 90.6194 28.2411C90.4254 28.4546 90.2912 28.7238 90.2168 29.0488C90.1485 29.3632 90.1431 29.7281 90.2005 30.1434L91.0147 33.1822L89.194 33.67ZM96.9299 31.5972L97.5471 22.5491L100.184 21.8426L105.243 29.3698L103.284 29.8947L99.3496 23.6004L99.1613 23.6509L98.8888 31.0723L96.9299 31.5972ZM98.0872 29.5375L97.7575 28.3069L103.144 26.8634L103.474 28.094L98.0872 29.5375Z" fill="white"/>
</svg>
