<svg width="70" height="70" viewBox="0 0 70 70" fill="none" xmlns="http://www.w3.org/2000/svg">
<path d="M59.0625 13.125H10.9375C9.72938 13.125 8.75 14.1044 8.75 15.3125V54.6875C8.75 55.8956 9.72938 56.875 10.9375 56.875H59.0625C60.2706 56.875 61.25 55.8956 61.25 54.6875V15.3125C61.25 14.1044 60.2706 13.125 59.0625 13.125Z" stroke="black" stroke-width="2" stroke-linecap="round" stroke-linejoin="round"/>
<path d="M8.75 26.25H61.25" stroke="black" stroke-width="2" stroke-linecap="round" stroke-linejoin="round"/>
<path d="M32 20H55" stroke="black" stroke-width="2" stroke-linecap="round" stroke-linejoin="round"/>
<path d="M18.353 45L16.351 36.42H18.132L19.562 43.57H19.692L21.291 36.42H23.41L24.996 43.57H25.139L26.582 36.42H28.285L26.244 45H23.93L22.383 37.85H22.266L20.719 45H18.353ZM31.3911 45L29.3891 36.42H31.1701L32.6001 43.57H32.7301L34.3291 36.42H36.4481L38.0341 43.57H38.1771L39.6201 36.42H41.3231L39.2821 45H36.9681L35.4211 37.85H35.3041L33.7571 45H31.3911ZM44.4292 45L42.4272 36.42H44.2082L45.6382 43.57H45.7682L47.3672 36.42H49.4862L51.0722 43.57H51.2152L52.6582 36.42H54.3612L52.3202 45H50.0062L48.4592 37.85H48.3422L46.7952 45H44.4292Z" fill="#101010"/>
</svg>
