<svg width="584" height="390" viewBox="0 0 584 390" fill="none" xmlns="http://www.w3.org/2000/svg">
<mask id="path-1-outside-1_70_1685" maskUnits="userSpaceOnUse" x="-2" y="-2" width="588" height="394" fill="black">
<rect fill="white" x="-2" y="-2" width="588" height="394"/>
<path d="M0.15075 177V3.85624H57.0783L105.349 134.239H106.66L153.881 3.85624H208.186V177H172.245L174.606 42.1577H171.72L119.253 177H87.772L36.0912 42.1577H33.2055L35.5665 177H0.15075ZM321.635 180.673C309.043 180.673 297.762 178.749 287.793 174.901C277.824 170.879 269.255 165.107 262.084 157.587C255.088 149.892 249.667 140.535 245.819 129.517C242.146 118.324 240.31 105.556 240.31 91.2151C240.31 70.7527 243.895 53.8755 251.066 40.5837C258.236 27.117 268.03 17.0606 280.448 10.4147C293.04 3.5939 307.206 0.183494 322.947 0.183494C335.189 0.183494 346.295 2.19476 356.264 6.21729C366.233 10.0649 374.715 15.8364 381.711 23.5317C388.881 31.052 394.39 40.4963 398.238 51.8643C402.086 63.0574 404.009 75.912 404.009 90.4281C404.009 105.294 402.086 118.324 398.238 129.517C394.39 140.71 388.794 150.154 381.448 157.849C374.278 165.37 365.62 171.054 355.477 174.901C345.333 178.749 334.052 180.673 321.635 180.673ZM322.684 150.504C331.954 150.504 339.736 148.23 346.032 143.683C352.329 139.136 357.138 132.577 360.461 124.008C363.784 115.438 365.446 104.944 365.446 92.5268C365.446 79.5848 363.697 68.5665 360.199 59.4721C356.876 50.3777 351.979 43.4694 345.508 38.7473C339.037 33.8503 331.167 31.4018 321.897 31.4018C312.803 31.4018 305.02 33.7629 298.549 38.485C292.253 43.0322 287.356 49.6781 283.858 58.4228C280.535 67.1674 278.874 78.0107 278.874 90.9528C278.874 100.397 279.836 108.879 281.759 116.4C283.858 123.745 286.744 129.954 290.417 135.026C294.089 140.098 298.637 143.945 304.058 146.569C309.48 149.192 315.689 150.504 322.684 150.504ZM435.931 177V3.85624H507.812C518.48 3.85624 528.012 4.81815 536.407 6.74196C544.801 8.49089 551.972 11.2017 557.918 14.8745C564.04 18.5472 568.674 23.3568 571.822 29.3031C575.145 35.0746 576.807 41.9828 576.807 50.0279C576.807 56.8487 575.32 62.7951 572.347 67.867C569.549 72.9389 565.089 77.0488 558.968 80.1969C553.021 83.345 545.151 85.5311 535.357 86.7554V90.6905C551.972 91.9147 564.127 96.1121 571.822 103.283C579.693 110.278 583.628 119.723 583.628 131.615C583.628 141.584 581.004 149.979 575.757 156.8C570.686 163.446 562.99 168.518 552.672 172.016C542.353 175.339 529.586 177 514.37 177H435.931ZM471.871 146.569H513.845C525.039 146.569 533.346 144.907 538.768 141.584C544.189 138.086 546.9 132.752 546.9 125.582C546.9 117.362 543.49 111.24 536.669 107.218C529.848 103.02 519.529 100.922 505.713 100.922H471.871V146.569ZM471.871 77.3112H500.204C513.845 77.3112 523.814 75.4748 530.11 71.802C536.581 67.9544 539.817 62.3578 539.817 55.0123C539.817 47.6669 536.931 42.3326 531.16 39.0097C525.388 35.5118 516.556 33.7629 504.664 33.7629H471.871V77.3112ZM0.15075 390V216.856H38.7146V390H0.15075ZM77.0079 390V216.856H114.785V390H77.0079ZM84.8781 390V358.257H187.977V390H84.8781ZM210.227 390V216.856H248.266V390H210.227ZM236.461 390V359.306H343.757V390H236.461ZM236.461 316.545V288.475H330.641V316.545H236.461ZM236.461 247.288V216.856H343.233V247.288H236.461Z"/>
</mask>
<path d="M0.150749 177H-1.33139V178.482H0.150749V177ZM0.150749 3.85624V2.3741H-1.33139V3.85624H0.150749ZM57.0783 3.85624L58.4683 3.34165L58.1101 2.3741H57.0783V3.85624ZM105.349 134.239L103.959 134.753L104.317 135.721H105.349V134.239ZM106.66 134.239V135.721H107.7L108.054 134.743L106.66 134.239ZM153.881 3.85624V2.3741H152.842L152.488 3.35153L153.881 3.85624ZM208.186 3.85624H209.668V2.3741H208.186V3.85624ZM208.186 177V178.482H209.668V177H208.186ZM172.245 177L170.763 176.974L170.737 178.482H172.245V177ZM174.606 42.1577L176.088 42.1837L176.115 40.6756H174.606V42.1577ZM171.72 42.1577V40.6756H170.707L170.339 41.6203L171.72 42.1577ZM119.253 177V178.482H120.266L120.634 177.537L119.253 177ZM87.772 177L86.388 177.53L86.7528 178.482H87.772V177ZM36.0912 42.1577L37.4752 41.6273L37.1104 40.6756H36.0912V42.1577ZM33.2055 42.1577V40.6756H31.6971L31.7236 42.1837L33.2055 42.1577ZM35.5665 177V178.482H37.0748L37.0484 176.974L35.5665 177ZM1.63289 177V3.85624H-1.33139V177H1.63289ZM0.150749 5.33838H57.0783V2.3741H0.150749V5.33838ZM55.6884 4.37083L103.959 134.753L106.739 133.724L58.4683 3.34165L55.6884 4.37083ZM105.349 135.721H106.66V132.757H105.349V135.721ZM108.054 134.743L155.275 4.36095L152.488 3.35153L105.267 133.734L108.054 134.743ZM153.881 5.33838H208.186V2.3741H153.881V5.33838ZM206.703 3.85624V177H209.668V3.85624H206.703ZM208.186 175.518H172.245V178.482H208.186V175.518ZM173.727 177.026L176.088 42.1837L173.124 42.1318L170.763 176.974L173.727 177.026ZM174.606 40.6756H171.72V43.6399H174.606V40.6756ZM170.339 41.6203L117.871 176.463L120.634 177.537L173.102 42.6952L170.339 41.6203ZM119.253 175.518H87.772V178.482H119.253V175.518ZM89.156 176.47L37.4752 41.6273L34.7072 42.6882L86.388 177.53L89.156 176.47ZM36.0912 40.6756H33.2055V43.6399H36.0912V40.6756ZM31.7236 42.1837L34.0846 177.026L37.0484 176.974L34.6874 42.1318L31.7236 42.1837ZM35.5665 175.518H0.150749V178.482H35.5665V175.518ZM287.793 174.901L287.239 176.276L287.249 176.28L287.26 176.284L287.793 174.901ZM262.084 157.587L260.987 158.584L260.999 158.597L261.011 158.61L262.084 157.587ZM245.819 129.517L244.411 129.979L244.415 129.992L244.42 130.005L245.819 129.517ZM251.066 40.5837L252.37 41.2874L252.374 41.2803L251.066 40.5837ZM280.448 10.4147L281.147 11.7215L281.154 11.7179L280.448 10.4147ZM356.264 6.21729L355.709 7.59176L355.72 7.59597L355.73 7.60002L356.264 6.21729ZM381.711 23.5317L380.614 24.5287L380.626 24.5417L380.638 24.5545L381.711 23.5317ZM398.238 51.8643L396.834 52.3395L396.836 52.3461L398.238 51.8643ZM398.238 129.517L396.836 129.035L398.238 129.517ZM381.448 157.849L380.376 156.826L380.376 156.826L381.448 157.849ZM355.477 174.901L356.002 176.287L355.477 174.901ZM346.032 143.683L346.9 144.884L346.032 143.683ZM360.461 124.008L361.843 124.543L360.461 124.008ZM360.199 59.4721L358.807 59.9808L358.811 59.9925L358.815 60.0042L360.199 59.4721ZM345.508 38.7473L344.613 39.9292L344.624 39.937L344.634 39.9446L345.508 38.7473ZM298.549 38.485L299.417 39.6866L299.423 39.6823L298.549 38.485ZM283.858 58.4228L282.482 57.8723L282.477 57.8842L282.473 57.8963L283.858 58.4228ZM281.759 116.4L280.323 116.767L280.329 116.787L280.334 116.807L281.759 116.4ZM304.058 146.569L304.704 145.235L304.058 146.569ZM321.635 179.191C309.193 179.191 298.098 177.29 288.327 173.519L287.26 176.284C297.426 180.208 308.892 182.155 321.635 182.155V179.191ZM288.348 173.527C278.568 169.58 270.177 163.926 263.157 156.564L261.011 158.61C268.333 166.288 277.081 172.177 287.239 176.276L288.348 173.527ZM263.181 156.59C256.334 149.059 251.008 139.881 247.218 129.028L244.42 130.005C248.325 141.189 253.842 150.724 260.987 158.584L263.181 156.59ZM247.227 129.055C243.613 118.039 241.792 105.432 241.792 91.2151H238.828C238.828 105.68 240.68 118.608 244.411 129.979L247.227 129.055ZM241.792 91.2151C241.792 70.915 245.35 54.2999 252.37 41.2874L249.761 39.88C242.44 53.4511 238.828 70.5904 238.828 91.2151H241.792ZM252.374 41.2803C259.419 28.0502 269.01 18.2172 281.147 11.7215L279.748 9.10796C267.05 15.9041 257.054 26.1838 249.757 39.8871L252.374 41.2803ZM281.154 11.7179C293.508 5.02589 307.428 1.66564 322.947 1.66564V-1.29865C306.985 -1.29865 292.572 2.16191 279.742 9.11147L281.154 11.7179ZM322.947 1.66564C335.025 1.66564 345.939 3.64953 355.709 7.59176L356.818 4.84283C346.65 0.73999 335.353 -1.29865 322.947 -1.29865V1.66564ZM355.73 7.60002C365.49 11.367 373.778 17.0088 380.614 24.5287L382.807 22.5347C375.652 14.664 366.975 8.76288 356.797 4.83457L355.73 7.60002ZM380.638 24.5545C387.638 31.8961 393.045 41.1443 396.834 52.3394L399.642 51.3891C395.736 39.8482 390.124 30.208 382.783 22.5089L380.638 24.5545ZM396.836 52.3461C400.62 63.3536 402.527 76.0402 402.527 90.4281H405.492C405.492 75.7838 403.551 62.7612 399.64 51.3825L396.836 52.3461ZM402.527 90.4281C402.527 105.17 400.619 118.031 396.836 129.035L399.64 129.998C403.552 118.616 405.492 105.418 405.492 90.4281H402.527ZM396.836 129.035C393.05 140.049 387.558 149.302 380.376 156.826L382.52 158.873C390.029 151.006 395.73 141.371 399.64 129.998L396.836 129.035ZM380.376 156.826C373.365 164.179 364.897 169.743 354.951 173.515L356.002 176.287C366.344 172.364 375.191 166.56 382.521 158.872L380.376 156.826ZM354.951 173.515C344.998 177.291 333.898 179.191 321.635 179.191V182.155C334.206 182.155 345.668 180.207 356.002 176.287L354.951 173.515ZM322.684 151.986C332.203 151.986 340.306 149.647 346.9 144.884L345.165 142.481C339.167 146.813 331.704 149.022 322.684 149.022V151.986ZM346.9 144.884C353.468 140.141 358.436 133.33 361.843 124.543L359.079 123.472C355.84 131.824 351.189 138.131 345.165 142.481L346.9 144.884ZM361.843 124.543C365.251 115.754 366.928 105.067 366.928 92.5268H363.963C363.963 104.821 362.317 115.121 359.079 123.472L361.843 124.543ZM366.928 92.5268C366.928 79.4592 365.163 68.2499 361.582 58.9401L358.815 60.0042C362.23 68.8832 363.963 79.7104 363.963 92.5268H366.928ZM361.591 58.9635C358.188 49.6515 353.135 42.4786 346.381 37.5501L344.634 39.9446C350.822 44.4603 355.563 51.1039 358.807 59.9808L361.591 58.9635ZM346.402 37.5655C339.638 32.4465 331.441 29.9197 321.897 29.9197V32.884C330.892 32.884 338.436 35.2542 344.613 39.9292L346.402 37.5655ZM321.897 29.9197C312.533 29.9197 304.434 32.356 297.675 37.2877L299.423 39.6823C305.607 35.1698 313.073 32.884 321.897 32.884V29.9197ZM297.681 37.2835C291.113 42.0271 286.062 48.9227 282.482 57.8723L285.234 58.9732C288.65 50.4336 293.393 44.0373 299.417 39.6865L297.681 37.2835ZM282.473 57.8963C279.066 66.8601 277.392 77.8949 277.392 90.9528H280.356C280.356 78.1265 282.004 67.4747 285.244 58.9492L282.473 57.8963ZM277.392 90.9528C277.392 100.495 278.363 109.104 280.323 116.767L283.195 116.032C281.308 108.655 280.356 100.299 280.356 90.9528H277.392ZM280.334 116.807C282.47 124.283 285.423 130.656 289.216 135.895L291.617 134.156C288.065 129.251 285.246 123.207 283.185 115.993L280.334 116.807ZM289.216 135.895C293.027 141.157 297.762 145.168 303.413 147.903L304.704 145.235C299.512 142.722 295.152 139.038 291.617 134.156L289.216 135.895ZM303.413 147.903C309.066 150.638 315.501 151.986 322.684 151.986V149.022C315.876 149.022 309.894 147.746 304.704 145.235L303.413 147.903ZM435.931 177H434.449V178.482H435.931V177ZM435.931 3.85624V2.3741H434.449V3.85624H435.931ZM536.407 6.74196L536.076 8.18666L536.09 8.18995L536.104 8.19295L536.407 6.74196ZM557.918 14.8745L557.14 16.1355L557.148 16.1405L557.156 16.1454L557.918 14.8745ZM571.822 29.3031L570.512 29.9966L570.525 30.0199L570.538 30.0427L571.822 29.3031ZM572.347 67.867L571.068 67.1174L571.059 67.1341L571.049 67.151L572.347 67.867ZM558.968 80.1969L558.29 78.8788L558.282 78.8829L558.274 78.887L558.968 80.1969ZM535.357 86.7554L535.173 85.2847L533.875 85.447V86.7554H535.357ZM535.357 90.6905H533.875V92.0674L535.248 92.1686L535.357 90.6905ZM571.822 103.283L570.812 104.367L570.825 104.379L570.838 104.39L571.822 103.283ZM575.757 156.8L574.583 155.896L574.579 155.901L575.757 156.8ZM552.672 172.016L553.126 173.426L553.137 173.423L553.147 173.419L552.672 172.016ZM471.871 146.569H470.389V148.051H471.871V146.569ZM538.768 141.584L539.542 142.848L539.557 142.839L539.571 142.83L538.768 141.584ZM536.669 107.218L535.892 108.48L535.904 108.487L535.916 108.494L536.669 107.218ZM471.871 100.922V99.4395H470.389V100.922H471.871ZM471.871 77.3112H470.389V78.7933H471.871V77.3112ZM530.11 71.802L530.857 73.0823L530.868 73.076L530.11 71.802ZM531.16 39.0097L530.392 40.2772L530.406 40.2858L530.42 40.2941L531.16 39.0097ZM471.871 33.7629V32.2808H470.389V33.7629H471.871ZM437.413 177V3.85624H434.449V177H437.413ZM435.931 5.33838H507.812V2.3741H435.931V5.33838ZM507.812 5.33838C518.394 5.33838 527.811 6.2928 536.076 8.18666L536.738 5.29727C528.212 3.3435 518.566 2.3741 507.812 2.3741V5.33838ZM536.104 8.19295C544.367 9.91443 551.369 12.5712 557.14 16.1355L558.697 13.6135C552.575 9.83226 545.235 7.06734 536.709 5.29098L536.104 8.19295ZM557.156 16.1454C563.06 19.688 567.499 24.3037 570.512 29.9966L573.132 28.6096C569.85 22.4098 565.019 17.4065 558.681 13.6036L557.156 16.1454ZM570.538 30.0427C573.707 35.5466 575.325 42.1885 575.325 50.0279H578.289C578.289 41.7772 576.584 34.6025 573.107 28.5636L570.538 30.0427ZM575.325 50.0279C575.325 56.628 573.888 62.3071 571.068 67.1174L573.626 68.6165C576.752 63.2831 578.289 57.0695 578.289 50.0279H575.325ZM571.049 67.151C568.418 71.9197 564.2 75.8396 558.29 78.8788L559.646 81.5149C565.978 78.258 570.679 73.958 573.645 68.583L571.049 67.151ZM558.274 78.887C552.542 81.9215 544.865 84.0732 535.173 85.2847L535.541 88.2261C545.438 86.989 553.5 84.7684 559.661 81.5068L558.274 78.887ZM533.875 86.7554V90.6905H536.839V86.7554H533.875ZM535.248 92.1686C551.711 93.3816 563.471 97.527 570.812 104.367L572.833 102.198C564.783 94.6973 552.233 90.4478 535.466 89.2123L535.248 92.1686ZM570.838 104.39C578.349 111.067 582.145 120.085 582.145 131.615H585.11C585.11 119.36 581.036 109.49 572.807 102.175L570.838 104.39ZM582.145 131.615C582.145 141.311 579.6 149.374 574.583 155.896L576.932 157.704C582.409 150.584 585.11 141.857 585.11 131.615H582.145ZM574.579 155.901C569.733 162.251 562.319 167.18 552.196 170.612L553.147 173.419C563.661 169.855 571.638 164.641 576.936 157.699L574.579 155.901ZM552.217 170.605C542.091 173.866 529.489 175.518 514.37 175.518V178.482C529.683 178.482 542.614 176.811 553.126 173.426L552.217 170.605ZM514.37 175.518H435.931V178.482H514.37V175.518ZM471.871 148.051H513.845V145.087H471.871V148.051ZM513.845 148.051C525.131 148.051 533.77 146.385 539.542 142.848L537.993 140.321C532.921 143.429 524.946 145.087 513.845 145.087V148.051ZM539.571 142.83C545.469 139.025 548.382 133.189 548.382 125.582H545.418C545.418 132.315 542.91 137.148 537.964 140.339L539.571 142.83ZM548.382 125.582C548.382 116.861 544.715 110.242 537.422 105.941L535.916 108.494C542.264 112.238 545.418 117.862 545.418 125.582H548.382ZM537.446 105.956C530.277 101.544 519.629 99.4395 505.713 99.4395V102.404C519.43 102.404 529.419 104.497 535.892 108.48L537.446 105.956ZM505.713 99.4395H471.871V102.404H505.713V99.4395ZM470.389 100.922V146.569H473.353V100.922H470.389ZM471.871 78.7933H500.204V75.829H471.871V78.7933ZM500.204 78.7933C513.915 78.7933 524.212 76.9588 530.857 73.0823L529.364 70.5218C523.417 73.9908 513.776 75.829 500.204 75.829V78.7933ZM530.868 73.076C537.774 68.9694 541.299 62.8964 541.299 55.0123H538.335C538.335 61.8193 535.388 66.9394 529.353 70.5281L530.868 73.076ZM541.299 55.0123C541.299 47.2029 538.185 41.3441 531.899 37.7252L530.42 40.2941C535.678 43.3211 538.335 48.1308 538.335 55.0123H541.299ZM531.928 37.7421C525.809 34.0334 516.648 32.2808 504.664 32.2808V35.245C516.465 35.245 524.968 36.9902 530.392 40.2772L531.928 37.7421ZM504.664 32.2808H471.871V35.245H504.664V32.2808ZM470.389 33.7629V77.3112H473.353V33.7629H470.389ZM0.150749 390H-1.33139V391.482H0.150749V390ZM0.150749 216.856V215.374H-1.33139V216.856H0.150749ZM38.7146 216.856H40.1967V215.374H38.7146V216.856ZM38.7146 390V391.482H40.1967V390H38.7146ZM1.63289 390V216.856H-1.33139V390H1.63289ZM0.150749 218.338H38.7146V215.374H0.150749V218.338ZM37.2324 216.856V390H40.1967V216.856H37.2324ZM38.7146 388.518H0.150749V391.482H38.7146V388.518ZM77.0079 390H75.5257V391.482H77.0079V390ZM77.0079 216.856V215.374H75.5257V216.856H77.0079ZM114.785 216.856H116.267V215.374H114.785V216.856ZM114.785 390V391.482H116.267V390H114.785ZM84.8781 390H83.3959V391.482H84.8781V390ZM84.8781 358.257V356.775H83.3959V358.257H84.8781ZM187.977 358.257H189.459V356.775H187.977V358.257ZM187.977 390V391.482H189.459V390H187.977ZM78.49 390V216.856H75.5257V390H78.49ZM77.0079 218.338H114.785V215.374H77.0079V218.338ZM113.303 216.856V390H116.267V216.856H113.303ZM114.785 388.518H77.0079V391.482H114.785V388.518ZM86.3602 390V358.257H83.3959V390H86.3602ZM84.8781 359.739H187.977V356.775H84.8781V359.739ZM186.495 358.257V390H189.459V358.257H186.495ZM187.977 388.518H84.8781V391.482H187.977V388.518ZM210.227 390H208.745V391.482H210.227V390ZM210.227 216.856V215.374H208.745V216.856H210.227ZM248.266 216.856H249.748V215.374H248.266V216.856ZM248.266 390V391.482H249.748V390H248.266ZM236.461 390H234.979V391.482H236.461V390ZM236.461 359.306V357.824H234.979V359.306H236.461ZM343.757 359.306H345.24V357.824H343.757V359.306ZM343.757 390V391.482H345.24V390H343.757ZM236.461 316.545H234.979V318.027H236.461V316.545ZM236.461 288.475V286.993H234.979V288.475H236.461ZM330.641 288.475H332.123V286.993H330.641V288.475ZM330.641 316.545V318.027H332.123V316.545H330.641ZM236.461 247.288H234.979V248.77H236.461V247.288ZM236.461 216.856V215.374H234.979V216.856H236.461ZM343.233 216.856H344.715V215.374H343.233V216.856ZM343.233 247.288V248.77H344.715V247.288H343.233ZM211.709 390V216.856H208.745V390H211.709ZM210.227 218.338H248.266V215.374H210.227V218.338ZM246.784 216.856V390H249.748V216.856H246.784ZM248.266 388.518H210.227V391.482H248.266V388.518ZM237.943 390V359.306H234.979V390H237.943ZM236.461 360.788H343.757V357.824H236.461V360.788ZM342.275 359.306V390H345.24V359.306H342.275ZM343.757 388.518H236.461V391.482H343.757V388.518ZM237.943 316.545V288.475H234.979V316.545H237.943ZM236.461 289.957H330.641V286.993H236.461V289.957ZM329.158 288.475V316.545H332.123V288.475H329.158ZM330.641 315.063H236.461V318.027H330.641V315.063ZM237.943 247.288V216.856H234.979V247.288H237.943ZM236.461 218.338H343.233V215.374H236.461V218.338ZM341.751 216.856V247.288H344.715V216.856H341.751ZM343.233 245.805H236.461V248.77H343.233V245.805Z" fill="#4F4F4F" mask="url(#path-1-outside-1_70_1685)"/>
</svg>
