<svg width="66" height="59" viewBox="0 0 66 59" fill="none" xmlns="http://www.w3.org/2000/svg">
<path d="M42.2188 9.625V22.9688H55.5625" stroke="black" stroke-width="2" stroke-linecap="round" stroke-linejoin="round"/>
<path d="M42.2188 32.5L47.9375 38.2188L42.2188 43.9375" stroke="black" stroke-width="2" stroke-linecap="round" stroke-linejoin="round"/>
<path d="M30.7812 32.5L25.0625 38.2188L30.7812 43.9375" stroke="black" stroke-width="2" stroke-linecap="round" stroke-linejoin="round"/>
<path d="M53.6562 55.375C54.1618 55.375 54.6467 55.1742 55.0042 54.8167C55.3617 54.4592 55.5625 53.9743 55.5625 53.4688V22.9688L42.2188 9.625H19.3438C18.8382 9.625 18.3533 9.82584 17.9958 10.1833C17.6383 10.5408 17.4375 11.0257 17.4375 11.5312V53.4688C17.4375 53.9743 17.6383 54.4592 17.9958 54.8167C18.3533 55.1742 18.8382 55.375 19.3438 55.375H53.6562Z" stroke="black" stroke-width="2" stroke-linecap="round" stroke-linejoin="round"/>
<circle cx="18" cy="12" r="10" fill="white" stroke="black" stroke-width="2" stroke-linecap="round" stroke-linejoin="round"/>
<path d="M21.4348 15.4343L14.3638 8.36328" stroke="black" stroke-width="2" stroke-linecap="round" stroke-linejoin="round"/>
<path d="M21.4348 8.3635L14.3638 15.4346" stroke="black" stroke-width="2" stroke-linecap="round" stroke-linejoin="round"/>
</svg>
