<svg width="22" height="22" viewBox="0 0 22 22" fill="none" xmlns="http://www.w3.org/2000/svg">
<path fill-rule="evenodd" clip-rule="evenodd" d="M21.9805 10.7666C21.9805 4.93309 17.2789 0.203125 11.4805 0.203125C5.68203 0.203125 0.980469 4.93309 0.980469 10.7666C0.980469 16.0388 4.81953 20.409 9.83984 21.2022V13.821H7.17313V10.7666H9.83984V8.4393C9.83984 5.79231 11.4078 4.32899 13.8059 4.32899C14.9548 4.32899 16.1567 4.53555 16.1567 4.53555V7.13537H14.832C13.5284 7.13537 13.1206 7.94932 13.1206 8.78591V10.7666H16.0325L15.5675 13.821H13.1211V21.2031C18.1414 20.4104 21.9805 16.0402 21.9805 10.7666V10.7666Z" fill="#1C1C1C"/>
</svg>
